<svg xmlns="http://www.w3.org/2000/svg" viewBox="0 0 97.61 97.19"><defs><style>.cls-1{fill:#fff;}</style></defs><title>Asset 11</title><g id="Layer_2" data-name="Layer 2"><g id="Layer_1-2" data-name="Layer 1"><rect class="cls-1" width="76.41" height="97.19"/><path d="M65.44,27.57v5H10.37v-5Z"/><path d="M65.43,52.62v5.05h-55V52.62Z"/><path d="M52.44,39.5v5.12H10.36V39.5Z"/><path d="M10.27,19.55V14.68h42v4.87Z"/><path d="M52.43,64.67v4.89H10.36V64.67Z"/><path class="cls-1" d="M91.54,92.4c-2.78-5.3-4.91-9.85-4.81-16.26.2-13.09-.53-21,0-40.94.13-4.7.24-12,0-21.11l10.51-.15C97.15,18.8,97,26.09,97.18,35c0,2.09.22,3.29.34,13.57.13,10.72-.15,17.27.08,26.59.17,7.09-2.14,12.47-4.66,17.23l-.7,1.32Z"/><rect class="cls-1" x="86.75" y="0.87" width="10.48" height="8.4"/></g></g></svg>