<svg xmlns="http://www.w3.org/2000/svg" viewBox="0 0 106.13 145.56"><defs><style>.cls-1{fill:#fff;}.cls-2{fill:#f4f9fc;}.cls-3{fill:#fafcfe;}</style></defs><title>Asset 3</title><g id="Layer_2" data-name="Layer 2"><g id="Layer_1-2" data-name="Layer 1"><path d="M105.47,44.78C102.57,24,86.5,6.71,66,1.59a53,53,0,0,0-42.4,95.52c3.93,2.65,7,5.85,7.84,10.5.53,2.94.1,6.06.1,9.1h.18c0,2.07,0,4.14,0,6.21,0,5.28,1.76,9.58,7.07,11.6a3.44,3.44,0,0,1,2,2.4c2.17,5.6,6.29,8.54,12.27,8.64,6.18.1,10.34-3,12.68-8.63A4,4,0,0,1,68,134.39c4.54-2,6.39-5.77,6.52-10.5.11-3.77.14-7.55,0-11.32-.24-6.84,2.73-11.71,8.28-15.62C100.86,84.2,108.53,66.67,105.47,44.78ZM53.64,140.25c-3.33.26-5.7-1.41-7.64-4.77H60.17A7.18,7.18,0,0,1,53.64,140.25Zm14-12.36c-1.5,1.67-3.59,2-5.66,2-6,.07-11.9.09-17.85,0-2.17,0-4.45-.25-5.78-2.41-.43-.7-1.08-1.45-.7-2.34s1.47-.65,2.27-.66c4.49,0,9,0,13.48,0,4.25,0,8.5,0,12.75,0,.9,0,2.14-.42,2.54.79C69.05,126.29,68.33,127.18,67.68,127.89Zm-1.4-8.67c-4.37-.12-8.74,0-13.11,0s-8.74-.1-13.11,0c-2.12.07-2.68-.71-2.66-2.73S38.08,114,40,114q13.11.12,26.22,0c1.87,0,2.9.28,2.88,2.53S68.29,119.28,66.28,119.22Zm13.81-27c-5.2,3.62-9.19,7.93-10.51,14.27-.52,2.53-2.39,1.92-4,2-2.15.08-1.77-1.53-1.79-2.8,0-2.32-.06-4.63,0-6.94.06-2,.16-3.53-2.71-3.48-2.64.06-2.56,1.51-2.52,3.32,0,2.55,0,5.11,0,7.67,0,1.2-.17,2.22-1.7,2.22H49.93c-1.24,0-1.7-.73-1.69-1.87,0-.85,0-1.7,0-2.56,0-11.21,0-11.21-3-11.18-2.74,0-2.74,0-2.76,11.35,0,.61,0,1.22,0,1.83,0,1.3-.07,2.51-1.85,2.45-1.52,0-3.3.46-3.76-1.82-1.34-6.65-5.57-11-11-14.77A47.21,47.21,0,0,1,45.78,6.44c29-4.85,54.81,17.35,54.74,51.84C100.21,69.83,93.5,82.83,80.09,92.17Z"/><path class="cls-1" d="M45.78,6.44A47.21,47.21,0,0,0,25.9,91.83c5.41,3.79,9.64,8.12,11,14.77.46,2.28,2.24,1.77,3.76,1.82,1.78.06,1.87-1.15,1.85-2.45,0-.61,0-1.22,0-1.83,0-11.33,0-11.33,2.76-11.35,2.94,0,2.94,0,3,11.18,0,.86,0,1.71,0,2.56,0,1.14.45,1.86,1.69,1.87h6.94c1.53,0,1.7-1,1.7-2.22,0-2.56,0-5.12,0-7.67,0-1.81-.12-3.26,2.52-3.32,2.87,0,2.77,1.53,2.71,3.48-.07,2.31,0,4.62,0,6.94,0,1.27-.36,2.88,1.79,2.8,1.62,0,3.49.56,4-2,1.32-6.34,5.31-10.65,10.51-14.27,13.41-9.34,20.12-22.34,20.43-33.89C100.59,23.79,74.77,1.59,45.78,6.44Zm48.07,45A14.85,14.85,0,0,1,73.64,65.28c-5.33-1.91-10.84-.6-16.27-.79-.78,0-1.6,1-2.4,1.51-8,5.41-16.43,6.25-25.19,1.91a18.49,18.49,0,0,0-4.41-1.55,14.38,14.38,0,0,1-9.74-21.29,20.21,20.21,0,0,0,1.8-4.33c2.81-10.13,9.34-16.24,19.75-18a8.72,8.72,0,0,0,3.29-1.41c7.34-4.68,14.83-4.92,22.41-.61a7,7,0,0,0,3.71,1A18,18,0,0,1,84.24,34.89a6.5,6.5,0,0,0,2.92,3.9A14.24,14.24,0,0,1,93.85,51.43Z"/><path class="cls-2" d="M66.19,124.51c-4.25,0-8.5,0-12.75,0-4.5,0-9,0-13.48,0-.8,0-1.82-.34-2.27.66s.27,1.64.7,2.34c1.33,2.16,3.61,2.37,5.78,2.41,5.95.1,11.9.08,17.85,0,2.07,0,4.16-.37,5.66-2,.65-.71,1.37-1.6,1-2.59C68.33,124.09,67.09,124.52,66.19,124.51Z"/><path class="cls-1" d="M66.17,114q-13.11.1-26.22,0c-1.87,0-2.54.53-2.55,2.46s.54,2.8,2.66,2.73c4.37-.14,8.74,0,13.11,0s8.74-.09,13.11,0c2,.06,2.75-.53,2.77-2.65S68,114,66.17,114Z"/><path class="cls-3" d="M53.64,140.25a7.18,7.18,0,0,0,6.53-4.77H46C47.94,138.84,50.31,140.51,53.64,140.25Z"/><path d="M84.24,34.89A18,18,0,0,0,66.59,21.67a7,7,0,0,1-3.71-1c-7.58-4.31-15.07-4.07-22.41.61a8.72,8.72,0,0,1-3.29,1.41C26.77,24.5,20.24,30.61,17.43,40.74a20.21,20.21,0,0,1-1.8,4.33,14.38,14.38,0,0,0,9.74,21.29,18.49,18.49,0,0,1,4.41,1.55C38.54,72.25,46.93,71.41,55,66c.8-.54,1.62-1.53,2.4-1.51,5.43.19,10.94-1.12,16.27.79A14.85,14.85,0,0,0,93.85,51.43a14.24,14.24,0,0,0-6.69-12.64A6.5,6.5,0,0,1,84.24,34.89Zm5.47,19.74c-1.8,5.55-7.19,9.17-12.85,7.49-4.94-1.47-9.8-1.39-14.73-1.36-2,0-2.76-.29-2.39-2.56a7.4,7.4,0,0,0-2-6.05,1.84,1.84,0,0,0-2.56-.62c-1,.63-.93,1.47-.47,2.54,2.25,5.14,1.9,6.4-2.8,9.42-6.6,4.24-13.47,4.51-20.45,1-4.2-2.08-5.12-5.28-2.79-9.31.74-1.27,2-2.64.19-3.71s-2.54.84-3.34,2C24.13,55.4,23.91,57,24,61.84c-6.19-3-8.32-9.44-4.88-15.19A16.63,16.63,0,0,0,20.92,42,20.17,20.17,0,0,1,33.58,27.45c1.56-.61,2.57-.78,2.18,1.55a9,9,0,0,0,2.07,7.14c.74,1,1.66,1.65,2.79.93s.8-1.75.24-2.85c-2.72-5.35-1.89-8,3.42-10.85A15.65,15.65,0,0,1,60,23.48c-1.49,1.95-2.72,3.73-2.72,6,0,1.17.24,2.32,1.56,2.54s1.91-.73,2-2c.18-3.68,2.53-4.56,5.72-4.56,6.12,0,10.36,2.93,13.25,8.12,1,1.76,1.22,3.07-1.39,3.63a7.15,7.15,0,0,0-5.21,4.68,1.79,1.79,0,0,0,.46,2.3,1.42,1.42,0,0,0,2.24-.3c2.33-4,5.3-4.61,9.11-2.07A11.34,11.34,0,0,1,89.71,54.63Z"/><path class="cls-1" d="M75.91,43.93a1.42,1.42,0,0,1-2.24.3,1.79,1.79,0,0,1-.46-2.3,7.15,7.15,0,0,1,5.21-4.68c2.61-.56,2.37-1.87,1.39-3.63-2.89-5.19-7.13-8.13-13.25-8.12-3.19,0-5.54.88-5.72,4.56-.06,1.27-.58,2.23-2,2s-1.56-1.37-1.56-2.54c0-2.31,1.23-4.09,2.72-6a15.65,15.65,0,0,0-15.75-.11c-5.31,2.8-6.14,5.5-3.42,10.85.56,1.1.92,2.12-.24,2.85s-2,0-2.79-.93A9,9,0,0,1,35.76,29c.39-2.33-.62-2.16-2.18-1.55A20.17,20.17,0,0,0,20.92,42a16.63,16.63,0,0,1-1.83,4.68C15.65,52.4,17.78,58.85,24,61.84c-.06-4.82.16-6.44,1.53-8.37.8-1.12,1.57-3,3.34-2s.55,2.44-.19,3.71c-2.33,4-1.41,7.23,2.79,9.31,7,3.47,13.85,3.2,20.45-1,4.7-3,5-4.28,2.8-9.42-.46-1.07-.5-1.91.47-2.54a1.84,1.84,0,0,1,2.56.62,7.4,7.4,0,0,1,2,6.05c-.37,2.27.39,2.57,2.39,2.56,4.93,0,9.79-.11,14.73,1.36,5.66,1.68,11-1.94,12.85-7.49A11.34,11.34,0,0,0,85,41.86C81.21,39.32,78.24,40,75.91,43.93Z"/></g></g></svg>