<svg xmlns="http://www.w3.org/2000/svg" viewBox="0 0 142.61 94.67"><defs><style>.cls-1{fill:#fff;}</style></defs><title>Asset 13</title><g id="Layer_2" data-name="Layer 2"><g id="Layer_1-2" data-name="Layer 1"><path class="cls-1" d="M45.76,43.39v-1c0-1.71,0-3.4,0-5.07,0-4-.1-7.84.13-11.72.2-3.5,2.6-5.51,6.57-5.51h.28c1.77,0,3.7.06,6.06.06l4.51,0h2c-4.66-3.85-5.39-7-3-11.7s6.35-7.35,10.62-7.35a10.34,10.34,0,0,1,4.57,1.09,90.61,90.61,0,0,1,12.54,8c1.5,1.09,3,2.21,4.6,3.27.8-.68,1.64-1.42,2.5-2.18a100.39,100.39,0,0,1,9.12-7.38A15.23,15.23,0,0,1,114.52,1a9.9,9.9,0,0,1,5.66,1.74c3,2,6.31,5.75,6.7,9.19.26,2.32-1.36,4.66-2.93,6.92l-.88,1.28h1.57l4.25,0c2.08,0,3.89,0,5.52-.06h.37a6.85,6.85,0,0,1,5.15,1.76c1.19,1.22,1.74,3,1.68,5.47-.08,3.36-.06,6.69,0,10.22,0,1.55,0,3.13,0,4.74v1h-45V22.87H91.18V43.39ZM73,7.24c-2.35,0-3.86,2.88-4.55,4.6a2.85,2.85,0,0,0-.09,2.46c.47.84,1.75,1.47,3.58,1.78,3.76.63,7.66.91,11.44,1.19,1.35.09,2.71.19,4.06.3l.44-1c-1.17-.83-2.32-1.69-3.45-2.52a70.45,70.45,0,0,0-9.58-6.32A4.12,4.12,0,0,0,73,7.24ZM100.86,17.4c1.21-.09,2.42-.16,3.63-.23a95.93,95.93,0,0,0,10.42-1,7.79,7.79,0,0,0,4.9-3.19A5.64,5.64,0,0,0,118,9.11,9.57,9.57,0,0,0,113.66,8a3.37,3.37,0,0,0-1.61.32,67.9,67.9,0,0,0-8.7,6.26c-.93.75-1.86,1.49-2.8,2.22Z"/><path d="M114.52,2a8.93,8.93,0,0,1,5.1,1.57c2.83,1.93,5.92,5.4,6.26,8.47.32,2.81-2.91,6-4.59,9.09,2.19,0,4.81,0,7.6,0,1.8,0,3.68,0,5.55-.06h.34c4.12,0,5.93,2,5.83,6.21-.11,4.88,0,9.76,0,15h-43V21.87H90.18V42.39H46.76c0-5.73-.23-11.25.09-16.73.18-3.15,2.4-4.57,5.57-4.57h.25c2,0,4,.06,6.08.06,3,0,6.15,0,9.48,0-6.49-4.54-7.58-7.38-5.13-12.25,2-4.07,5.72-6.8,9.72-6.8a9.27,9.27,0,0,1,4.13,1c6.27,3.09,11.8,7.71,17.65,11.66,3.4-2.85,7.49-6.8,12.11-10A14.15,14.15,0,0,1,114.52,2M88.09,18.63l1-2.4c-4.58-3.18-8.9-6.87-13.82-9.38A5,5,0,0,0,73,6.24c-2.61,0-4.4,2.55-5.47,5.22-1.56,3.89,1.69,5.18,4.25,5.61,5.37.9,10.85,1.08,16.29,1.56m12.17-.18c4.94-.39,9.95-.46,14.82-1.3a8.79,8.79,0,0,0,5.6-3.69c.61-1.07-.8-4.42-2.19-5.22A10.57,10.57,0,0,0,113.67,7a4.42,4.42,0,0,0-2.11.45c-4.39,2.49-8.22,6-12.27,9,.32.67.64,1.33,1,2M114.52,0a16.23,16.23,0,0,0-8.94,3.1,101.3,101.3,0,0,0-9.21,7.45l-1.9,1.67c-1.33-.93-2.66-1.88-4-2.82A90.69,90.69,0,0,0,77.83,1.27a11.28,11.28,0,0,0-5-1.19c-4.65,0-9.06,3-11.51,7.9s-1.57,8.08,1.37,11.17H58.75c-2.35,0-4.26,0-6-.06h-.3c-4.5,0-7.33,2.42-7.57,6.45s-.18,7.74-.13,11.79c0,1.67,0,3.36,0,5.06v2H92.18V23.87h3.41V44.29h47v-2c0-1.62,0-3.19,0-4.75,0-3.52,0-6.85,0-10.2.06-2.74-.58-4.77-2-6.19a7.87,7.87,0,0,0-5.86-2.06h-.39c-1.63,0-3.43.06-5.5.06l-3.93,0c1.61-2.32,3.2-4.73,2.91-7.32-.42-3.77-3.88-7.69-7.13-9.9A10.78,10.78,0,0,0,114.52,0ZM86,16.46l-2.54-.19c-3.76-.27-7.64-.55-11.35-1.17-1.49-.25-2.57-.73-2.88-1.29a2.07,2.07,0,0,1,.15-1.6c.48-1.2,1.79-4,3.62-4a3.06,3.06,0,0,1,1.39.39,68.47,68.47,0,0,1,9.45,6.24L86,16.46Zm16.75-.19,1.2-1a65.76,65.76,0,0,1,8.57-6.16,2.28,2.28,0,0,1,1.13-.2,8.47,8.47,0,0,1,3.83,1,5.3,5.3,0,0,1,1.32,2.68,7.16,7.16,0,0,1-4.08,2.52,93.19,93.19,0,0,1-10.31,1l-1.66.1Z"/><path class="cls-1" d="M73.25,93.67c-4.81,0-11.17,0-17.62-.22-2-.06-5.55-2.77-5.6-4.76-.27-11.06-.24-22.36-.22-33.29q0-4.68,0-9.39V45H91.15V93.63h-1l-8.53,0Z"/><path d="M90.15,46V92.63c-5.69,0-11.32,0-16.9,0-5.89,0-11.74,0-17.59-.21-1.65,0-4.6-2.44-4.63-3.8-.34-14.13-.21-28.27-.21-42.65H90.15m2-2H48.82v2c0,3.13,0,6.25,0,9.36,0,10.95-.05,22.26.22,33.34.06,2.58,4,5.67,6.57,5.74,6.47.19,12.83.22,17.65.22l8.37,0,8.53,0h2V44Z"/><path class="cls-1" d="M117,93.65l-9.77,0-10,0h-1V44.91h41l.08.92c0,.45.08.91.13,1.35.1,1,.2,2,.21,3q0,7.54,0,15.07,0,10.56,0,21.12c0,2,0,7.17-5.46,7.24C127.78,93.62,122.94,93.65,117,93.65Z"/><path d="M136.29,45.91c.12,1.45.33,2.84.34,4.23,0,12.06,0,24.12,0,36.19,0,3.26-.58,6.18-4.47,6.23-5.06.07-10.11.09-15.19.09-6.52,0-13.08,0-19.74,0V45.91h39m1.84-2H95.26v50.7h2l10,0,9.77,0c6,0,10.79,0,15.21-.09s6.48-2.83,6.45-8.24c0-7,0-14.2,0-21.13q0-7.53,0-15.06a30,30,0,0,0-.22-3.05c0-.44-.09-.89-.13-1.33l-.15-1.84Z"/><path class="cls-1" d="M1.06,55.88v-1c0-1.27,0-2.53,0-3.77,0-3-.07-5.85.1-8.75C1.29,39.64,3.21,38,6.28,38h.21c1.49,0,3,0,4.5,0h4.14c-2.76-2.43-3.68-4.84-1.79-8.58,1.74-3.47,4.86-5.62,8.14-5.62a7.88,7.88,0,0,1,3.51.84,68.29,68.29,0,0,1,9.38,6c1.07.77,2.16,1.57,3.26,2.32l1.71-1.49A75.06,75.06,0,0,1,46.15,26a11.55,11.55,0,0,1,6.38-2.23,7.65,7.65,0,0,1,4.37,1.35c2.32,1.58,4.8,4.37,5.09,7,.21,1.83-1,3.61-2.22,5.33l-.39.56h.69l3.16,0c1.34,0,2.73,0,4.12,0h.28a5.32,5.32,0,0,1,4,1.38A5.62,5.62,0,0,1,73,43.66c-.06,2.5,0,5,0,7.6,0,1.16,0,2.34,0,3.54v1h-34V40.59H35.41V55.88ZM21.62,29C20,29,19,31,18.47,32.22a1.88,1.88,0,0,0-.08,1.61A3.45,3.45,0,0,0,20.88,35c2.78.47,5.69.68,8.49.88l2.85.22.17-.39c-.81-.58-1.61-1.17-2.4-1.76a52.27,52.27,0,0,0-7.11-4.69A2.91,2.91,0,0,0,21.62,29ZM42.51,36l2.54-.16a69,69,0,0,0,7.73-.75,5.6,5.6,0,0,0,3.47-2.25A4.2,4.2,0,0,0,55,30.31a6.9,6.9,0,0,0-3.1-.83,2.37,2.37,0,0,0-1.08.21,49.83,49.83,0,0,0-6.45,4.64l-1.92,1.53Z"/><path d="M52.53,24.79A6.63,6.63,0,0,1,56.33,26c2.11,1.44,4.42,4,4.67,6.31.23,2.1-2.17,4.49-3.42,6.77,1.63,0,3.58,0,5.66,0,1.34,0,2.74,0,4.13,0h.26C70.7,39,72,40.51,72,43.64c-.08,3.63,0,7.27,0,11.16h-32V39.59H34.41V54.88H2.06c0-4.27-.17-8.38.07-12.46C2.26,40.07,3.92,39,6.28,39h.19c1.5,0,3,0,4.52,0l7.07,0c-4.84-3.38-5.65-5.5-3.83-9.12,1.52-3,4.27-5.07,7.25-5.07a6.85,6.85,0,0,1,3.07.74c4.67,2.31,8.79,5.75,13.15,8.69a115.42,115.42,0,0,1,9-7.44,10.51,10.51,0,0,1,5.81-2.05M32.85,37.18l.78-1.79C30.22,33,27,30.27,23.34,28.4A3.84,3.84,0,0,0,21.62,28c-1.94,0-3.28,1.9-4.08,3.89-1.16,2.9,1.27,3.86,3.17,4.18,4,.67,8.09.81,12.14,1.16m9.06-.13c3.69-.29,7.41-.35,11-1a6.54,6.54,0,0,0,4.17-2.75c.46-.79-.59-3.29-1.62-3.89a8,8,0,0,0-3.6-1,3.2,3.2,0,0,0-1.57.34c-3.27,1.85-6.12,4.44-9.14,6.74l.72,1.49M52.53,22.79a12.65,12.65,0,0,0-7,2.4,76.32,76.32,0,0,0-6.9,5.59l-1.12,1L35,29.89a68,68,0,0,0-9.53-6.09,8.83,8.83,0,0,0-3.95-.95c-3.66,0-7.13,2.36-9,6.17-1.68,3.35-1.32,5.83.38,8H11c-1.74,0-3.17,0-4.48,0H6.28c-3.6,0-6,2-6.15,5.28C0,45.24,0,48.09,0,51.12c0,1.24,0,2.5,0,3.76v2H36.41V41.59h1.52V56.8H74v-2c0-1.2,0-2.38,0-3.53,0-2.62,0-5.1,0-7.59a6.57,6.57,0,0,0-1.61-5A6.32,6.32,0,0,0,67.63,37h-.31c-1.21,0-2.54,0-4.08,0h-2c1-1.57,1.92-3.2,1.72-5-.33-3-3-6-5.53-7.74a8.57,8.57,0,0,0-4.93-1.52Zm-23,12.13h-.12c-2.79-.2-5.67-.4-8.41-.86-1.25-.21-1.71-.58-1.78-.71a1.21,1.21,0,0,1,.14-.75C20.05,31,20.91,30,21.62,30a1.82,1.82,0,0,1,.81.24,50.06,50.06,0,0,1,7,4.6l.18.13Zm15.79-.1a45.38,45.38,0,0,1,6-4.26,1.71,1.71,0,0,1,.59-.08,5.78,5.78,0,0,1,2.56.68,3.67,3.67,0,0,1,.74,1.45,4.92,4.92,0,0,1-2.59,1.5,67.19,67.19,0,0,1-7.25.71Z"/><path class="cls-1" d="M21.79,93.33c-3.58,0-8.32,0-13.13-.16C7,93.12,4.28,91,4.24,89.37,4,81.13,4.06,72.7,4.08,64.54c0-2.31,0-8,0-8h31.3V93.31H21.79Z"/><path d="M34.39,57.58V92.31l-12.6,0c-4.39,0-8.75,0-13.1-.16-1.23,0-3.42-1.81-3.45-2.82C5,78.82,5.09,68.29,5.09,57.58h29.3m2-2H3.09v2c0,2.33,0,4.65,0,7,0,8.16,0,16.59.16,24.85.06,2.23,3.21,4.71,5.39,4.77,4.82.15,9.57.16,13.16.16h14.6V55.58Z"/><path class="cls-1" d="M54.36,93.32H47.09l-7.41,0h-1V56.5h31l.08.92c0,.34.06.67.1,1,.07.73.15,1.47.15,2.23,0,3.73,0,7.47,0,11.2q0,7.88,0,15.76c0,1.53,0,5.59-4.32,5.64C62.41,93.3,58.8,93.32,54.36,93.32Z"/><path d="M68.75,57.5c.09,1.08.25,2.12.25,3.15,0,9,0,18,0,27,0,2.43-.44,4.6-3.33,4.64-3.77,0-7.53.07-11.31.07-4.86,0-9.75,0-14.71,0V57.5H68.75m1.84-2H37.68V94.29h2l7.42,0h7.29c4.43,0,8,0,11.33-.07,2.44,0,5.33-1.21,5.31-6.65,0-5.24,0-10.58,0-15.74q0-5.61,0-11.21a21.67,21.67,0,0,0-.16-2.33c0-.32-.07-.65-.09-1l-.16-1.84Z"/></g></g></svg>