<svg xmlns="http://www.w3.org/2000/svg" viewBox="0 0 128.66 140.38"><defs><style>.cls-1{fill:#fff;}</style></defs><title>Asset 6</title><g id="Layer_2" data-name="Layer 2"><g id="Layer_1-2" data-name="Layer 1"><path class="cls-1" d="M0,70.15Q0,39.48.06,8.8A4.08,4.08,0,0,1,.84,6.28a2.48,2.48,0,0,1,4.31,1.2,5.77,5.77,0,0,1,.14,1.44q0,61.35,0,122.71a2.91,2.91,0,0,1-1.71,3,2.38,2.38,0,0,1-2.87-.71,2.92,2.92,0,0,1-.66-1.51,15.32,15.32,0,0,1,0-2.25Z"/><path class="cls-1" d="M128.65,55.51a5.48,5.48,0,0,0-.23,1.11q0,15.12,0,30.23a5.57,5.57,0,0,0,.24,1.1,10.13,10.13,0,0,0-.24,1.53c0,14-.09,27.89,0,41.83a8.7,8.7,0,0,1-9,9.07c-49.8-.09-65.87,0-104.42,0H13.35c3.39-4.6,2.78-9.62,2.65-14.61-.1-4,.11-8,.12-12.06q0-36.12,0-72.24c0-2.24-.18-4.48-.17-6.72,0-3.57.15-7.15.16-10.72,0-7.75,0-15.49,0-23.24,0-.21,0-.42,0-.74H128.4V1.66q0,26.09,0,52.19A11.83,11.83,0,0,0,128.65,55.51ZM69.82,70.26h0V46.63c0-2.5-1-3.44-3.44-3.43-7.65,0-9.68.07-17.33.07-6.32,0-12.65-.07-19-.08A2.77,2.77,0,0,0,27,46.29q0,23.76,0,47.52c0,2.31,1,3.3,3.33,3.29,6.19,0,12.38-.09,18.57-.09,7.74,0,9.85.08,17.59.1,2.45,0,3.37-1,3.37-3.37Q69.84,82,69.82,70.26ZM78,10.9H29.83A2.58,2.58,0,0,0,27,13.52a2.79,2.79,0,0,0,2.91,2.65H40.49c19.92,0,23-.06,54.13-.08,8.41,0,11.2.05,19.61.08,1.93,0,3.28-1.13,3.25-2.7s-1.19-2.57-3.17-2.57H78ZM65.75,27.07H33.14c-1.24,0-2.48,0-3.72,0a2.33,2.33,0,0,0-2.31,1.83c-.62,2,.74,3.42,3.28,3.42h67c2.87,0,5.74-.17,8.61-.16,4.73,0,3.84.13,8.57.15a2.64,2.64,0,1,0,0-5.25c-3.23,0-.83.11-4.06.1-7.07,0-19.76-.09-26.84-.1C70.17,27.06,79.2,27.07,65.75,27.07Zm49,86.15h0c1.91,0-1.81.08.09,0a3.31,3.31,0,0,0,2-.86,2.2,2.2,0,0,0,.5-2.67,2.74,2.74,0,0,0-2.75-1.69c-3.61,0-1.6,0-5.21,0H37.49c-2.42,0-4.86-.13-7.27.06a4.2,4.2,0,0,0-2.81,1.33c-1.23,1.66.12,3.84,2.26,3.86,3.76,0,7.52,0,11.28,0ZM93.49,91.74H81c-2,0-3.26,1.27-3,3.12.16,1.38,1.37,2.24,3.25,2.25,4.86,0,15.35,0,20.21,0,12.48,0-.33,0,12.16,0a11.64,11.64,0,0,0,1.32,0,2.65,2.65,0,0,0,.2-5.29,6.77,6.77,0,0,0-1.19,0Zm-.12-43.18c8.8,0,12,0,20.8,0,1.12,0,2.26-.18,2.75-1.22a3.83,3.83,0,0,0,.21-2.58c-.41-1.28-1.61-1.58-2.91-1.57H81.32a7.84,7.84,0,0,0-1.19.07,2.55,2.55,0,0,0-2.2,2.58c0,1.7,1.16,2.7,3.2,2.71Zm.08,32.28h20.39a10.13,10.13,0,0,0,1.46,0,2.55,2.55,0,0,0,1.79-3.85c-.75-1.26-1.93-1.38-3.21-1.38H81.25a5.82,5.82,0,0,0-1.18.1,2.57,2.57,0,0,0-2.13,2.89c.14,1.52,1.21,2.29,3.28,2.29Zm.07,48.55h21.2a2.55,2.55,0,0,0,2.57-1.7,2.11,2.11,0,0,0-.69-2.72,4.44,4.44,0,0,0-2.4-.82c-8.58,0-11.54.06-20.12.06-9.08,0-4.1-.06-13.17-.09a2.65,2.65,0,0,0-3,2.66c0,1.63,1,2.6,2.82,2.6C89.7,129.4,84.58,129.39,93.52,129.39Zm0-69.92c-8.8,0-3.56,0-12.36,0a4.4,4.4,0,0,0-2,.39,2.48,2.48,0,0,0-1.12,3,2.85,2.85,0,0,0,2.92,1.84c17.74,0,15.81,0,33.55,0a3.42,3.42,0,0,0,1.85-.54,2.43,2.43,0,0,0,1-2.91,2.73,2.73,0,0,0-2.91-1.81C105.59,59.48,102.36,59.47,93.51,59.47Z"/><path d="M69.82,70.26q0,11.73,0,23.48c0,2.42-.92,3.37-3.37,3.37-7.74,0-9.85-.09-17.59-.1-6.19,0-12.38.07-18.57.09-2.33,0-3.33-1-3.33-3.29q0-23.76,0-47.52a2.77,2.77,0,0,1,3.13-3.1c6.32,0,12.65.08,19,.08,7.65,0,9.68-.05,17.33-.07,2.49,0,3.44.93,3.44,3.43V70.26ZM64.51,48.64c-.42,0-.72-.08-1-.08-11.91,0-18.19,0-30.1,0-1.1,0-1.19.49-1.18,1.37q0,20.18,0,40.36c0,1.32.47,1.5,1.6,1.5,11.69,0,17.75,0,29.43,0,.39,0,.78,0,1.29,0Z"/><path d="M78,10.9h36.35c2,0,3.14,1,3.17,2.57s-1.32,2.7-3.25,2.7c-8.41,0-11.2-.08-19.61-.08-31.16,0-34.21.06-54.13.08H29.88A2.79,2.79,0,0,1,27,13.52a2.58,2.58,0,0,1,2.86-2.61H78Z"/><path d="M65.75,27.07c13.45,0,4.42,0,17.87,0,7.08,0,19.77.09,26.84.1,3.23,0,.83-.09,4.06-.1a2.64,2.64,0,1,1,0,5.25c-4.73,0-3.84-.14-8.57-.15-2.87,0-5.74.15-8.61.16h-67c-2.54,0-3.9-1.41-3.28-3.42a2.33,2.33,0,0,1,2.31-1.83c1.24,0,2.48,0,3.72,0Z"/><path d="M114.72,113.22H41c-3.76,0-7.52,0-11.28,0-2.14,0-3.49-2.2-2.26-3.86A4.2,4.2,0,0,1,30.22,108c2.41-.19,4.85-.06,7.27-.06H109.3c3.61,0,1.6,0,5.21,0a2.74,2.74,0,0,1,2.75,1.69,2.2,2.2,0,0,1-.5,2.67,3.31,3.31,0,0,1-2,.86c-1.9.12,1.82,0-.09,0Z"/><path d="M93.49,91.74H113.9a6.77,6.77,0,0,1,1.19,0,2.65,2.65,0,0,1-.2,5.29,11.64,11.64,0,0,1-1.32,0c-12.49,0,.32,0-12.16,0-4.86,0-15.35,0-20.21,0-1.88,0-3.09-.87-3.25-2.25-.21-1.85,1-3.12,3-3.12H93.49Z"/><path d="M93.37,48.56H81.13c-2,0-3.21-1-3.2-2.71a2.55,2.55,0,0,1,2.2-2.58,7.84,7.84,0,0,1,1.19-.07h32.9c1.3,0,2.5.29,2.91,1.57a3.83,3.83,0,0,1-.21,2.58c-.49,1-1.63,1.22-2.75,1.22C105.36,48.55,102.17,48.56,93.37,48.56Z"/><path d="M93.45,80.84H81.22c-2.07,0-3.14-.77-3.28-2.29a2.57,2.57,0,0,1,2.13-2.89,5.82,5.82,0,0,1,1.18-.1h32.63c1.28,0,2.46.12,3.21,1.38a2.55,2.55,0,0,1-1.79,3.85,10.13,10.13,0,0,1-1.46,0Z"/><path d="M93.52,129.39c-8.94,0-3.82,0-12.76,0-1.82,0-2.83-1-2.82-2.6a2.65,2.65,0,0,1,3-2.66c9.07,0,4.09.09,13.17.09,8.58,0,11.54-.08,20.12-.06a4.44,4.44,0,0,1,2.4.82,2.11,2.11,0,0,1,.69,2.72,2.55,2.55,0,0,1-2.57,1.7H93.52Z"/><path d="M93.51,59.47c8.85,0,12.08,0,20.93,0a2.73,2.73,0,0,1,2.91,1.81,2.43,2.43,0,0,1-1,2.91,3.42,3.42,0,0,1-1.85.54c-17.74,0-15.81,0-33.55,0A2.85,2.85,0,0,1,78,62.88a2.48,2.48,0,0,1,1.12-3,4.4,4.4,0,0,1,2-.39C90,59.46,84.71,59.47,93.51,59.47Z"/><path class="cls-1" d="M64.51,48.64v43c-.51,0-.9,0-1.29,0-11.68,0-17.74,0-29.43,0-1.13,0-1.61-.18-1.6-1.5q.08-20.17,0-40.36c0-.88.08-1.37,1.18-1.37,11.91,0,18.19,0,30.1,0C63.79,48.56,64.09,48.61,64.51,48.64Z"/></g></g></svg>