<svg xmlns="http://www.w3.org/2000/svg" viewBox="0 0 448.17 448.17"><defs><style>.cls-1{fill:#fff;}.cls-2{fill:#475992;}</style></defs><title>fb</title><g id="Layer_2" data-name="Layer 2"><g id="Layer_1-2" data-name="Layer 1"><rect class="cls-1" width="448.17" height="448.17" rx="60.56"/><path class="cls-2" d="M.32,223.87q0-81.76,0-163.52C.33,26.56,26.79.16,60.66.16q163.51,0,327,0c32.67,0,59.18,25.05,60.11,57.6.65,22.79.25,45.61.26,68.41q0,129.32,0,258.62c0,32.41-19.46,56.41-50.28,62.19a63.84,63.84,0,0,1-11.56.88c-29.42.07-58.84-.09-88.26.16-5.08,0-6.48-1.25-6.46-6.41q.42-74.22.25-148.45c0-4.43,1.11-5.79,5.64-5.71,15.73.28,31.47.14,47.2.1,8.54,0,11.58-2.87,12.65-11.78q2.79-23.06,5.47-46.14c.95-8.3-3.1-12.92-11.72-13-17.79-.13-35.58-.21-53.36.07-4.77.07-6.24-1.19-6.12-6.05.33-13.45,0-26.91.15-40.37.26-19.65,8.34-28.26,28.07-29.46,9.54-.57,19.15-.15,28.72-.33,8.9-.16,12-3.26,12-11.95.05-13.46,0-26.91,0-40.37,0-5.58-2.43-10-8-10-20.94.09-42-2.12-62.82,1.24-36.78,5.93-61.46,32-66.28,69.07-2.66,20.45-1,41-1.2,61.49-.06,5.37-1.4,7-6.79,6.74-10.7-.43-21.43-.19-32.15-.1-8.9.07-12.58,3.54-12.58,12.46,0,16.18.24,32.36.56,48.54.12,6.5,3.68,9.82,10.46,9.89,11.86.13,23.72.18,35.58,0,3.8-.07,5.07,1,5.06,4.93q-.3,75.25-.22,150.51c0,3.78-1,5.07-4.92,5.06-52.68-.15-105.37.32-158-.32-33.9-.41-58.82-27-58.83-61Z"/></g></g></svg>