<svg xmlns="http://www.w3.org/2000/svg" viewBox="0 0 175.92 175.93"><defs><style>.cls-1{fill:#fcfcfc;}.cls-2{fill:#020202;}</style></defs><title>Insta</title><g id="Layer_2" data-name="Layer 2"><g id="Layer_1-2" data-name="Layer 1"><path class="cls-1" d="M175.92,162.39a13.54,13.54,0,0,1-13.54,13.54H13.54A13.54,13.54,0,0,1,0,162.39V13.55A13.55,13.55,0,0,1,13.55,0H162.38a13.54,13.54,0,0,1,13.54,13.54Z"/><path class="cls-2" d="M113.42,21.63H62.5A40.88,40.88,0,0,0,21.62,62.51v50.92A40.87,40.87,0,0,0,62.5,154.3h50.92a40.87,40.87,0,0,0,40.88-40.87V62.51A40.88,40.88,0,0,0,113.42,21.63Zm28.14,86.91a33,33,0,0,1-33,33H67.39a33,33,0,0,1-33-33V67.39a33,33,0,0,1,33-33h41.15a33,33,0,0,1,33,33Z"/><path class="cls-2" d="M89.74,53.25a34.95,34.95,0,1,0,34.94,34.94A34.94,34.94,0,0,0,89.74,53.25Zm0,56a21,21,0,1,1,21-21A21,21,0,0,1,89.74,109.22Z"/><path class="cls-2" d="M131.15,52.7a8.89,8.89,0,1,1-8.89-8.89A8.89,8.89,0,0,1,131.15,52.7Z"/></g></g></svg>