<svg xmlns="http://www.w3.org/2000/svg" viewBox="0 0 175.92 175.92"><defs><style>.cls-1{fill:#fcfcfc;}</style></defs><title>Whatsapp</title><g id="Layer_2" data-name="Layer 2"><g id="Layer_1-2" data-name="Layer 1"><path class="cls-1" d="M175.92,160a15.88,15.88,0,0,1-15.87,15.88H15.88A15.88,15.88,0,0,1,0,160V15.88A15.88,15.88,0,0,1,15.88,0H160.05a15.88,15.88,0,0,1,15.87,15.87Z"/><path d="M89.14,23.1A64.25,64.25,0,0,0,33.9,120.15l-8.1,32.66L58,143.54A64.25,64.25,0,1,0,89.14,23.1Zm.73,117.83a53.08,53.08,0,0,1-30.22-9.4l-18.33,5.28L46,117.93a53.33,53.33,0,1,1,43.86,23Z"/><path d="M72.9,82.26l2.23-2.57c1.25-1.45,3.13-2.85,3.23-4.94A14.66,14.66,0,0,0,77,68.92c-.45-1.17-.92-2.34-1.37-3.52-.81-2.13-1.86-5.12-3-6.38a5.7,5.7,0,0,0-6.5-1S53.5,64.07,57.39,76.19c0,0,7.51,34.19,45.33,41.22,0,0,13.58,1.94,17.21-6.31a14.48,14.48,0,0,0,1.19-6.21c-.13-1.88-1.45-3.12-3-4-2-1.14-3.76-2.2-6-3.33-2-1-4.23-2.4-6.5-1.78-1.66.47-2.85,2-4,3.19-1.47,1.56-3,3.09-4.45,4.64C97.15,103.59,78,96.56,72.9,82.26Z"/></g></g></svg>