<svg xmlns="http://www.w3.org/2000/svg" xmlns:xlink="http://www.w3.org/1999/xlink" viewBox="0 0 243.96 243.96"><defs><style>.cls-1{isolation:isolate;}.cls-2{fill:url(#linear-gradient);}.cls-3{fill:#fff;}</style><linearGradient id="linear-gradient" x1="122" y1="240.84" x2="122" y2="-3.13" gradientTransform="matrix(1, 0, 0, -1, -0.02, 240.84)" gradientUnits="userSpaceOnUse"><stop offset="0" stop-color="#61fd7d"/><stop offset="1" stop-color="#2bb826"/></linearGradient></defs><title>whatsapp icon</title><g id="Layer_2" data-name="Layer 2"><g id="Layer_1-2" data-name="Layer 1"><g class="cls-1"><path id="SVGID" class="cls-2" d="M243.94,182.05c0,1.34,0,4.24-.12,6.47a128.61,128.61,0,0,1-1.28,15.76,52.71,52.71,0,0,1-4.42,13.21,46.94,46.94,0,0,1-20.7,20.67,52.32,52.32,0,0,1-13.28,4.42c-3.18.65-10.2,1.07-15.64,1.26-2.24.08-5.13.12-6.46.12H61.91c-1.34,0-4.23,0-6.47-.13a128.61,128.61,0,0,1-15.76-1.28,52.63,52.63,0,0,1-13.2-4.42A47,47,0,0,1,5.8,217.42a52.32,52.32,0,0,1-4.42-13.28A128.92,128.92,0,0,1,.12,188.5C0,186.26,0,183.37,0,182L0,61.91c0-1.34,0-4.23.12-6.47C.34,50,.77,42.9,1.43,39.68a52.23,52.23,0,0,1,4.41-13.2A47,47,0,0,1,26.54,5.8,52.45,52.45,0,0,1,39.82,1.38,129.09,129.09,0,0,1,55.46.12C57.7,0,60.6,0,61.93,0L182.05,0c1.34,0,4.24,0,6.47.12,5.48.2,12.55.63,15.76,1.29a52.3,52.3,0,0,1,13.21,4.41,46.94,46.94,0,0,1,20.67,20.7,52.45,52.45,0,0,1,4.42,13.28c.65,3.19,1.07,10.2,1.26,15.64.08,2.24.12,5.14.12,6.47Z"/></g><g id="logo"><path class="cls-3" d="M186.62,57.72A87.5,87.5,0,0,0,48.92,163.24L36.51,208.56,82.89,196.4A87.33,87.33,0,0,0,124.7,207h0A87.48,87.48,0,0,0,186.62,57.72ZM124.73,192.27h0a72.61,72.61,0,0,1-37-10.13L85,180.57l-27.52,7.21L64.86,161l-1.73-2.75a72.72,72.72,0,1,1,61.6,34.06Zm39.89-54.44c-2.19-1.09-12.94-6.38-14.94-7.11s-3.46-1.09-4.92,1.1-5.64,7.11-6.92,8.57-2.55,1.64-4.74.54a59.61,59.61,0,0,1-17.57-10.84A66.15,66.15,0,0,1,103.36,115c-1.27-2.19-.13-3.37,1-4.46s2.19-2.55,3.28-3.83a14.81,14.81,0,0,0,2.19-3.65,4,4,0,0,0-.18-3.82c-.55-1.1-4.92-11.85-6.74-16.23S99.29,79.28,98,79.21s-2.73-.08-4.19-.08a8,8,0,0,0-5.83,2.74c-2,2.18-7.65,7.47-7.65,18.23s7.83,21.14,8.92,22.6,15.42,23.53,37.35,33A125.65,125.65,0,0,0,139,160.3a30.06,30.06,0,0,0,13.77.87c4.2-.63,12.93-5.29,14.75-10.39s1.82-9.48,1.28-10.39S166.8,138.93,164.62,137.83Z"/></g></g></g></svg>