<svg xmlns="http://www.w3.org/2000/svg" viewBox="0 0 457.84 457.8"><defs><style>.cls-1{fill:#0dbc2a;}.cls-2{fill:#5af377;}.cls-3{fill:#10be2e;}.cls-4{fill:#13c030;}.cls-5{fill:#09b927;}.cls-6{fill:#06b724;}.cls-7{fill:#57f174;}.cls-8{fill:#5df67a;}.cls-9{fill:#60f77c;}.cls-10{fill:#55f071;}.cls-11{fill:#16c334;}.cls-12{fill:#4dea6a;}.cls-13{fill:#19c537;}.cls-14{fill:#50ec6d;}.cls-15{fill:#53ee70;}.cls-16{fill:#51ed6e;}.cls-17{fill:#4feb6c;}.cls-18{fill:#16c234;}.cls-19{fill:#3adc57;}.cls-20{fill:#fefefe;}.cls-21{fill:#15c233;}.cls-22{fill:#1dc73b;}.cls-23{fill:#4ae767;}.cls-24{fill:#47e564;}.cls-25{fill:#21cb3f;}.cls-26{fill:#36da54;}.cls-27{fill:#1fc93d;}.cls-28{fill:#24cd42;}.cls-29{fill:#33d750;}.cls-30{fill:#30d54d;}.cls-31{fill:#45e462;}.cls-32{fill:#2bd249;}.cls-33{fill:#42e25f;}.cls-34{fill:#26ce44;}.cls-35{fill:#40e15d;}.cls-36{fill:#29d046;}.cls-37{fill:#3cdd59;}.cls-38{fill:#2dd34b;}.cls-39{fill:#3edf5b;}.cls-40{fill:#43e361;}.cls-41{fill:#3cde59;}.cls-42{fill:#1dc73a;}.cls-43{fill:#2cd24a;}.cls-44{fill:#22cb40;}.cls-45{fill:#20c93d;}.cls-46{fill:#23cc41;}.cls-47{fill:#1dc83b;}.cls-48{fill:#49e766;}.cls-49{fill:#43e360;}.cls-50{fill:#25ce43;}.cls-51{fill:#4be968;}.cls-52{fill:#30d54e;}.cls-53{fill:#1ac538;}.cls-54{fill:#2dd34a;}.cls-55{fill:#2bd148;}.cls-56{fill:#2fd44c;}.cls-57{fill:#31d64f;}.cls-58{fill:#3dde5a;}.cls-59{fill:#29d047;}.cls-60{fill:#3fe05c;}.cls-61{fill:#41e25f;}.cls-62{fill:#28cf46;}</style></defs><title>Whatsapp</title><g id="Layer_2" data-name="Layer 2"><g id="Layer_1-2" data-name="Layer 1"><path class="cls-1" d="M26,428.86c-5.3-5.28-10-11-13.08-17.88-.08-2.75,2-3.2,4-3.55a36,36,0,0,1,6.49-.25q205.68,0,411.37.06c3.63,0,7.81-1.29,10.52,2.68a63.45,63.45,0,0,1-14.1,19.26,46.77,46.77,0,0,0-10.43-.73H36.46C33,428.44,29.47,428.56,26,428.86Z"/><path class="cls-2" d="M15.24,42.87c3.35-6.08,7.9-11.21,12.83-16a54.16,54.16,0,0,1,9.44-.66q192.3,0,384.61,0a43.8,43.8,0,0,1,7,.51,54.89,54.89,0,0,1,13,15.95c-.22,3-2.72,3-4.72,3.47a33.29,33.29,0,0,1-7.47.35q-201,0-402-.06C23.53,46.38,18.45,47.76,15.24,42.87Z"/><path class="cls-3" d="M445.26,409.92c-1.95-1.18-4.12-1.11-6.29-1.11q-210,0-420,0c-2.24,0-4.82-.69-6.1,2.15a37.88,37.88,0,0,1-6-13.92c-.19-2.78,1.88-3.23,3.87-3.61a34.17,34.17,0,0,1,6.48-.27H439.86a39,39,0,0,1,6.48.24c2,.32,4,.63,4.6,3.1C449.65,401.25,448.33,406,445.26,409.92Z"/><path class="cls-4" d="M450.94,396.52c-1.89-1.72-4.21-1.72-6.57-1.72q-215.73,0-431.45,0c-2.26,0-4.82-.63-6,2.23a49.19,49.19,0,0,1-4-15c-1-3.1,1.43-3.55,3.3-3.58,20.87-.34,41.75-.64,62.62.13a4,4,0,0,1,1.82.73,2.63,2.63,0,0,1,.93,1.67c.58,5.37.55,5.26,6,4,6.89-1.53,13.42-4.77,20.73-4.36,2.6.88,5.27.54,7.92.55,27.4,0,54.8-.11,82.2.09a27.64,27.64,0,0,0,5.9-.76c8.23-.21,16.1,2.35,24.23,3.13a163.65,163.65,0,0,0,59.34-5.57c2.57-.7,5.05-1.79,7.81-1.34,2.95,1,6,.39,8.95.39q75.71,0,151.43.05c3.08,0,6.39-.78,9.07,1.65C454.86,385,453.79,391,450.94,396.52Z"/><path class="cls-5" d="M26,428.86c.19-1.06.62-1.92,1.85-2s2.66-.07,4-.07q196.59,0,393.17.06c2.16,0,5.27-1.52,6.16,2.3-5.53,6-11.35,11.59-19.16,14.59a105.5,105.5,0,0,0-11-.33q-171.68,0-343.34,0c-3.63,0-7.37-.5-10.75,1.47A67.55,67.55,0,0,1,26,428.86Z"/><path class="cls-6" d="M47,444.92c-.75-1.81-.23-2.92,1.79-3.06,1.33-.09,2.67,0,4,0q176.28,0,352.55,0c2.34,0,5.14-1,6.71,1.92a18.8,18.8,0,0,1-6.1,4c-17.17,7.93-35.51,9.87-54,9.9q-122.88.22-245.76-.08c-18.42-.08-37-1.15-54-9.68C50.28,447,48.35,446.44,47,444.92Z"/><path class="cls-7" d="M15.24,42.87a20.21,20.21,0,0,0,9.64,2q204.18-.06,408.35,0c3.15,0,6.36.27,8.89-2.19a46.19,46.19,0,0,1,7.68,15.14c-1.7.94-3.56.7-5.38.7q-213.6,0-427.21,0c-3.08,0-6.39.77-9.09-1.61A46.8,46.8,0,0,1,15.24,42.87Z"/><path class="cls-8" d="M429.08,26.67c-1.39,1.79-3.37,1.12-5.11,1.12q-195,0-390.09,0c-2,0-4,.16-5.81-1C33.44,21.65,39,16.72,45.87,13.57a93.6,93.6,0,0,1,9.47-.39q173.4,0,346.79,0c2.64,0,5.33.42,7.93-.47A60.5,60.5,0,0,1,429.08,26.67Z"/><path class="cls-9" d="M410.06,12.7c.16.93.71,2.07-1,2.11-1.33,0-2.67,0-4,0q-176.32,0-352.64-.05c-2.19,0-4.71,1-6.56-1.2C56.58,6.64,68.67,3.59,81,2,96.56-.09,112.24,0,127.9,0c73.65,0,147.3-.22,221,.18,19.22.11,38.67.88,56.53,9.74C407,10.76,408.5,11.78,410.06,12.7Z"/><path class="cls-10" d="M8.12,56.81q217.43,0,434.87,0c2.3,0,4.69-.46,6.81.93a36.63,36.63,0,0,1,2.93,9.06c-2.53,2.28-5.67,1.58-8.58,1.58q-73.66.07-147.31,0c-4,0-8-.05-11.89,1.07a9.38,9.38,0,0,1-5.88-.23c-11.14-3.62-22.75-4.72-34.25-6.45a87.44,87.44,0,0,0-22.57,0C212.4,64,202.57,65.28,193,68c-1.9.55-3.87,1-5.84.12-1.35-.88-2.84-.76-4.35-.76q-84.24.15-168.49,0c-3.16,0-6.82,1.05-9.09-2.51A18,18,0,0,1,8.12,56.81Z"/><path class="cls-11" d="M455.15,378.87l-163.38-.06c-2.32,0-4.69.32-6.81-1-.07-2.07,1.69-2.31,3-2.76a153.88,153.88,0,0,0,28.4-13.42c1.89-1.12,3.85-2,6.16-1.39,36.42,2.14,72.87.43,109.3,1,6,.09,12-.07,18,.05,6.7.13,7.19.79,6.31,7.78C456,372.32,456.4,375.67,455.15,378.87Z"/><path class="cls-12" d="M456.82,95.77c.62,6.3.91,12.6.91,18.93q0,117.11,0,234.22c0,2,.46,4-.52,5.89-2.58-2.62-1.49-5.92-1.66-9-.13-4.95-.14-9.9,0-14.85-.1-3.39-.12-6.77,0-10.16-.12-4.31-.13-8.61,0-12.92-.11-4-.13-8,0-12-.11-3.68-.12-7.36,0-11q-.18-5.52,0-11c-.12-4.31-.13-8.62,0-12.93q-.18-5.56,0-11.12-.21-7.47,0-14.94c-.14-5.32-.15-10.63,0-16-.13-5.3-.15-10.6,0-15.9-.11-4-.14-8,0-12-.1-3.67-.12-7.35,0-11-.11-3.36-.12-6.71,0-10.07-.11-3.66-.12-7.32,0-11q-.18-5.52,0-11c-.13-3.69-.12-7.39,0-11.08-.15-4.36-.13-8.71,0-13.07-.24-3-.09-6-.14-9s-1.4-4.27-4.27-4.26c-32.9.13-65.8-.62-98.69.4-2,.87-3.58,0-4.88-1.35-4.5-4.6-9.53-8.6-14.35-12.84-1.44-1.26-2.46-2.71-1.4-4.75,1.71-1.73,3.94-1.67,6.08-1.67q56.07-.12,112.14,0C453.87,90.21,457.1,90.8,456.82,95.77Z"/><path class="cls-13" d="M456.75,345.83c.15,3,.31,6,.46,9-.42,4.73.21,9.55-1.11,14.21.72-5-1.25-6.37-6.34-6.33-38.65.23-77.3.14-115.95.11-4.41,0-8.81-.31-12.9-2.27,2.12-4,18.71-16,23.09-16.67,10.8.74,21.6.29,32.4.33,24.09.07,48.19,0,72.28.05C451.43,344.25,454.39,343.63,456.75,345.83Z"/><path class="cls-14" d="M456.82,95.77c-.78-3.15-2.61-4.07-6-4-37.86.15-75.72.08-113.58.15-1.87,0-4.57-1.28-5.29,2a3.93,3.93,0,0,1-3.74-.84c-4.77-3.35-9.74-6.4-14.59-9.62-1.63-1.08-2.87-2.36-1.91-4.56,2.62-3.17,6.29-2.67,9.73-2.67q39.24-.09,78.47,0,23.74,0,47.49,0c2.64,0,5.38-.31,7.67,1.52A64.44,64.44,0,0,1,456.82,95.77Z"/><path class="cls-12" d="M.21,197.73q0-48.51,0-97a39.91,39.91,0,0,1,.84-5.9c1.91-1.73,4.3-1.59,6.61-1.59q58.38,0,116.74,0c2.47,0,5-.17,7.11,1.62a2.17,2.17,0,0,1,.1,3.09c-3.86,5-8.94,8.68-13.71,12.69a3.1,3.1,0,0,1-3.3.22,54.26,54.26,0,0,0-8-.46H11.41c-8.8,0-8.8,0-8.82,8.78,0,1.49,0,3-.11,4.48.14,5.35.16,10.71,0,16.06.14,5.32.16,10.64,0,16,.11,4.65.15,9.29,0,13.93.09,3.36.12,6.71,0,10.07.08,3.32.11,6.64,0,10C2,192.43,3.73,195.8.21,197.73Z"/><path class="cls-15" d="M455.09,77.73q-67.9,0-135.8.12c-2.82,0-6.26-.95-7.36,3.2-1.33.81-2.6.28-3.77-.31a156.59,156.59,0,0,0-21.88-9.41c-1.07-.35-2.21-.82-2.36-2.24,2.48-2.57,5.7-2.27,8.83-2.27h160C453.87,70.38,455.07,73.93,455.09,77.73Z"/><path class="cls-15" d="M5.23,64.87c1.95,1.32,4.17.94,6.31.94q85.49,0,171,.07c1.88,0,4.52-1.37,5.5,1.78a74.88,74.88,0,0,1-24.4,9.56c-.27.06-.61-.22-.92-.36-1.6-.73-3.28-.4-4.93-.4q-72.85-.08-145.7-.06c-3.07,0-6.38.78-9.07-1.59A28.83,28.83,0,0,1,5.23,64.87Z"/><path class="cls-16" d="M3,74.81q77.79,0,155.58.07c1.87,0,4.53-1.36,5.44,1.84-4.54,4.17-10,6.94-15.31,9.92a4.47,4.47,0,0,1-4.3.18,70.77,70.77,0,0,0-10-.42q-60.67,0-121.34,0c-4.36,0-8.56,0-11.87,3.39A57.41,57.41,0,0,1,3,74.81Z"/><path class="cls-17" d="M1.21,89.75c.59-4.15,2.91-5.07,7.05-5,43.8.19,87.6.11,131.4.14,2.22,0,4.78-.79,6.34,1.76a24.32,24.32,0,0,1-14,10c-1.58-2.52-4.12-1.74-6.34-1.74q-62.31,0-124.61,0C1.1,93.13,1.16,91.44,1.21,89.75Z"/><path class="cls-13" d="M1,362.81a.74.74,0,0,1-.15-.89c-.38-5.13-.72-10.26.18-15.38,2-1.56,4.4-1.32,6.7-1.32q32.61-.06,65.22,0c2.46,0,5-.24,7.16,1.44,1.93,2.65.71,5.31,0,7.95a76.46,76.46,0,0,1-2.5,8.44c-.56,1.4-.8,3.4-3.2,2.81-2.94-1.49-6.11-1.47-9.28-1.47q-28.24,0-56.49,0C6,364.37,3.23,364.73,1,362.81Z"/><path class="cls-18" d="M1,362.81H69.54c2.49,0,5.2-.37,5.58,3.26C76.2,371.69,75,376.7,71,380.93c-1.4-1.76-3.37-1.08-5.11-1.09q-28.91-.06-57.81,0c-1.93,0-4.57-1.09-5.23,2.19C1,375.77.88,369.3,1,362.81Z"/><path class="cls-19" d="M1,346.82q-.11,7.55-.2,15.1c-1.1-2.71-.79-5.58-.79-8.37q0-76.92,0-153.83c0-.66.1-1.33.14-2,1.61-2.5.4-5.29.82-7.92,1.75-1.6,3.94-1.58,6.1-1.59q30.59-.06,61.17,0a10.87,10.87,0,0,1,5.33,1,3.29,3.29,0,0,1,1.47,3c-.19,5.44-1.41,10.75-2.17,16.11a1.61,1.61,0,0,1-2.07,1.54c-1.76-3.52-4.61-4.55-8.51-4.51-17.75.16-35.51,0-53.27.09-6.12,0-6.45.4-6.53,6.48,0,2.66.08,5.31-.08,8,.15,5.31.16,10.63,0,15.94.15,5.66.16,11.32,0,17,.14,5.65.16,11.3,0,16.95.12,5,.15,10,0,14.94.11,3.7.13,7.4,0,11.1.11,3.68.12,7.37,0,11.05q.18,6,0,12c.13,3.72.12,7.45,0,11.18C2.08,335.59,4,341.41,1,346.82Z"/><path class="cls-20" d="M71.12,210.06q1.47-10.12,2.95-20.23a14.08,14.08,0,0,1,.93-9,85,85,0,0,0,3.15-9.05c1.81-5.07,3.59-10.15,5.9-15,2.09-5.66,5.66-10.57,8.19-16,3.39-5,6.64-10.15,10.11-15.14,3.24-4,6.61-7.81,9.91-11.72,1-1.25,1.91-2.76,3.86-2.74L132,96.58l14-10c6.39-2.59,11.45-7.6,18-9.88l24-9.06a208.09,208.09,0,0,1,34.05-6,178.71,178.71,0,0,1,22.91,0c13.19,1.4,26.26,3.5,39,7.47a217.3,217.3,0,0,1,28,12l20,12.87q9.52,8.44,19,16.91c6.17,3.34,9.15,9.68,13.71,14.54,3.27,4.22,6.15,8.7,9,13.21a119.18,119.18,0,0,1,6.1,11.08c1.58,3.46,3.44,6.79,5,10.25,1.41,3.65,2.83,7.29,4.09,11,1.14,3.34,2.1,6.74,3.05,10.15,1.12,4.32,2,8.69,3,13,.42,3,1.13,6,1.37,9.08.14,5.28,1.56,10.47,1.08,15.79,0,5.1.36,10.21-.3,15.29-.95,5-.84,10.17-1.82,15.19q-.94,5.6-2.32,11.09c-1.3,4.44-2.19,9-3.8,13.35-1.44,3.71-2.42,7.57-4,11.23-1.72,3.17-2.71,6.67-4.4,9.85-2.17,4.44-4.94,8.55-7.1,13-2.76,4-5.47,8-8.08,12.09q-4.68,5.47-9,11.24c-5,4.42-8.71,10.24-14.81,13.45l-20.9,15.79a224.55,224.55,0,0,1-36,17.27c-19.24,5.72-38.81,8.92-59,8-10.33-.48-20.43-2.46-30.58-4.1-11.39-.6-21.61-5.17-31.47-10.17-6.48-3.29-12.21-3.58-19-1.55-14,4.18-28.28,7.48-42.4,11.28-2,.53-4-.38-5.87.45l-28.24,6.76c2.38-2.93,1.25-5.48,2.61-7.53a73.88,73.88,0,0,0,4.08-14.86,107.18,107.18,0,0,0,5-18.11c-.3-5.28,2.13-10,3-15.07a106.63,106.63,0,0,0,3-11.11c1.89-4.47,2.05-9.4,3.65-13.95,1.63-2.74.28-5.1-.9-7.51-.89-1.79-2.45-3.18-3-5.15-.81-3.33-2.87-6.12-4-9.31-1.61-5.05-3.95-9.85-5.22-15-1.86-6.08-3.37-12.25-4.67-18.47-1.11-5.54-1.33-11.19-2.27-16.75a68.57,68.57,0,0,1-.14-8.11c.18-4-.08-7.95,0-11.93C69.52,213.62,69.39,211.55,71.12,210.06Z"/><path class="cls-21" d="M96.67,381.7q28.53-7.63,57.07-15.3a4.15,4.15,0,0,1,3.3.47c12.15,6.6,25.2,10.85,38.37,14.82a29,29,0,0,1-8.81,1.16q-40.56-.09-81.13,0A28.31,28.31,0,0,1,96.67,381.7Z"/><path class="cls-7" d="M245,61.62l-22.91,0A65.07,65.07,0,0,1,245,61.62Z"/><path class="cls-22" d="M341.81,344.74q7-7,13.91-14a16.41,16.41,0,0,1,7.73-1.54q43.11,0,86.23,0c2.44,0,5.05-.37,7.07,1.61v15q-53.31,0-106.62,0A27.39,27.39,0,0,1,341.81,344.74Z"/><path class="cls-23" d="M364,125.94,351,110.83c.35-2.46,2.27-2,3.86-2,32.75,0,65.5,0,98.25-.07,3.13,0,4.09,1.17,3.92,4.11-.2,3.65-.13,7.31-.18,11-2.4,2.12-5.35,1.54-8.11,1.55q-34.42.08-68.86,0C374.55,125.35,369.26,125.87,364,125.94Z"/><path class="cls-24" d="M364,125.94c2.27-2.08,5.08-2.13,7.92-2.13l85,0q0,6.49,0,13c-2.23,2-5,1.55-7.61,1.56q-31.2.08-62.39,0c-4.67,0-9.29.37-13.93.62Z"/><path class="cls-25" d="M364.56,319.67l8.1-12c2.19-1.5,4.69-1.5,7.2-1.5q34.9,0,69.82,0c2.44,0,5.05-.38,7.07,1.62v13c-1.87,1.86-4.3,1.57-6.59,1.58q-38.19.06-76.37,0C370.51,322.38,367,322.6,364.56,319.67Z"/><path class="cls-26" d="M396.13,218.82q-.53-8-1-16c1.9-1.78,4.31-1.59,6.62-1.6q24.24-.06,48.49,0c2.3,0,4.73-.27,6.6,1.6q0,8,0,16c-1.89,1.85-4.32,1.56-6.61,1.56q-23.71.09-47.44,0C400.44,220.4,398,220.62,396.13,218.82Z"/><path class="cls-27" d="M364.56,319.67c5,1.49,10.2,1.14,15.33,1.14l76.86,0v10l-101-.11Z"/><path class="cls-28" d="M456.75,307.83l-84.09-.14q3.52-6.51,7.07-13a9.58,9.58,0,0,1,3.9-.6c22,.26,44.05,0,66.08.14,2.43,0,5-.39,7.05,1.59Q456.76,301.83,456.75,307.83Z"/><path class="cls-29" d="M396.13,218.82l60.66,0q0,8,0,16c-1.87,1.85-4.29,1.57-6.58,1.58q-23.88.08-47.77,0c-2.28,0-4.7.25-6.55-1.63Q396,226.8,396.13,218.82Z"/><path class="cls-30" d="M395.88,234.78l60.9.05q0,7.5,0,15c-1.88,1.86-4.31,1.57-6.6,1.57q-24.72.09-49.45,0c-2.31,0-4.72.19-6.62-1.59Q395,242.31,395.88,234.78Z"/><path class="cls-31" d="M372.91,139c1.72-2.36,4.26-2.19,6.76-2.19l77.17,0q0,5.5,0,11c-2.22,2-5,1.54-7.6,1.55q-26.16.09-52.34,0c-6,0-11.95,0-17.92.48Z"/><path class="cls-32" d="M388.18,273.8l3.78-13c1.92-1.67,4.29-1.58,6.6-1.59q25.83,0,51.66,0c2.28,0,4.7-.26,6.55,1.61q0,6.5,0,13c-1.72,1.74-4,1.53-6.09,1.53q-27.65.08-55.31,0C392.88,275.35,390.35,275.37,388.18,273.8Z"/><path class="cls-33" d="M379,149.88c1.17-2.59,3.53-2,5.62-2q36.12,0,72.24,0c0,3.67,0,7.33,0,11-1.41,1.47-3.28,1.53-5.11,1.54-22,.13-44,0-65.95.06-.65,0-1.31-.21-2-.26Q381.38,155,379,149.88Z"/><path class="cls-34" d="M456.76,295.82H386.5c-2.33,0-4.67.18-6.77-1.13q2.22-4.94,4.43-9.87c2-1.49,4.31-1.61,6.66-1.62q29.69,0,59.36,0c2.29,0,4.72-.28,6.58,1.6Z"/><path class="cls-35" d="M383.78,160.17c1.43-2.06,3.6-1.32,5.48-1.32q33.78-.07,67.56,0c0,3.67,0,7.33,0,11-1.41,1.47-3.28,1.52-5.1,1.54-20.28.13-40.57,0-60.85.08a16.33,16.33,0,0,1-2.95-.47A57,57,0,0,1,383.78,160.17Z"/><path class="cls-36" d="M456.76,284.83h-72.6l4-11,68.58,0Z"/><path class="cls-19" d="M456.8,202.83H395.09a30.1,30.1,0,0,1-1.2-8.64c-1.11-3,.36-4.34,3.16-4.76a13.13,13.13,0,0,1,2-.18q26.36-.15,52.71,0c1.81,0,3.67.09,5.06,1.58Z"/><path class="cls-37" d="M456.8,190.83q-29.13,0-58.27,0c-2.46,0-4.83-.15-4.64,3.38-1.22-4.36-2.56-8.69-3-13.23.36-2.86,2.75-2.61,4.56-2.63,18.91-.22,37.83-.17,56.74,0,1.66,0,3.34.2,4.58,1.56Q456.81,185.32,456.8,190.83Z"/><path class="cls-38" d="M456.77,260.83l-64.81,0q1.07-5.49,2.14-11h62.67Z"/><path class="cls-39" d="M456.81,179.83q-30.39,0-60.78,0c-1.74,0-3.71-.65-5.1,1.11-1.26-3.25-2.61-6.47-3-10,1.38-1.79,3.35-1.13,5.09-1.14q31.9,0,63.82,0Q456.81,174.83,456.81,179.83Z"/><path class="cls-23" d="M116.12,111.12l-12.89,15.06c-31.19-1.68-62.4-.3-93.59-.77-2.94,0-6,.56-8.6-1.59,0-3.34.21-6.69-.09-10-.36-3.94,1-5.14,5-5.1,21.49.18,43,.09,64.48.09,13.66,0,27.33,0,41,0C113.3,108.84,115.68,108.09,116.12,111.12Z"/><path class="cls-24" d="M1,123.82H96c2.66,0,5.41-.28,7.21,2.37l-10,14.95c-3,.61-6,.29-8.93.3q-37.58,0-75.15,0c-2.78,0-5.7.47-8.1-1.59Q1,131.81,1,123.82Z"/><path class="cls-40" d="M1,139.82q43.08,0,86.16,0c2,0,4.39-.87,6,1.28L85,156.82a5.75,5.75,0,0,1-3.8.79c-24-.4-48.07-.05-72.1-.2-2.77,0-5.69.46-8.09-1.59Z"/><path class="cls-35" d="M1,155.82q37.85,0,75.68,0a27,27,0,0,1,8.31,1q-3,7.55-6,15.08c-23.29-1.07-46.59-.19-69.88-.5-2.79,0-5.72.47-8.13-1.58Z"/><path class="cls-39" d="M1,169.82c24.24,0,48.47,0,72.71.05,1.87,0,4.56-1.28,5.3,2l-2.82,9.25c-7.61.67-15.23.21-22.85.25-14.91.09-29.83,0-44.75,0-2.62,0-5.36.36-7.59-1.6Z"/><path class="cls-41" d="M1,179.81q34.85,0,69.69,0c1.89,0,4.06-.74,5.5,1.3-1.64,2.66-.3,6.07-2.15,8.68l-73,0Z"/><path class="cls-42" d="M84.13,333.2a71.86,71.86,0,0,1-4,14.76c-1.57-1.89-3.72-1.11-5.62-1.11q-36.72-.08-73.44,0,0-8.51,0-17c1.91-1.74,4.29-1.62,6.61-1.62q34.91,0,69.82,0C83.6,328.23,84.23,328.82,84.13,333.2Z"/><path class="cls-43" d="M73.26,252.72l4.53,18.06c-1.54.84-3.22.66-4.87.65-21.43,0-42.85,0-64.27,0-2.62,0-5.37.38-7.61-1.58v-17c1.91-1.74,4.31-1.61,6.62-1.61q29.46-.06,58.91,0C68.91,251.2,71.26,251.22,73.26,252.72Z"/><path class="cls-30" d="M73.26,252.72,1,252.82v-17c1.91-1.74,4.29-1.6,6.6-1.61q28.38-.06,56.77,0c2.31,0,4.69-.1,6.61,1.61Q72.13,244.27,73.26,252.72Z"/><path class="cls-36" d="M1,269.82H71.49c2.14,0,4.36-.38,6.3,1q2.59,7.52,5.17,15c-1.37.8-2.89.65-4.38.65-23.47-.08-46.94,0-70.41,0-2.47,0-5,.26-7.13-1.59Z"/><path class="cls-26" d="M71.12,210.06l-.29,17.72c-.46-.12-1.16-.06-1.25-.62-1-6.13-5.48-5.83-10.11-5.81-16.94.1-33.88.06-50.81,0-2.62,0-5.37.39-7.62-1.55,0-4.16.07-8.33-.06-12.49-.08-2.55.87-3.55,3.48-3.54q31.24.09,62.48,0C71.83,203.76,70.8,207.25,71.12,210.06Z"/><path class="cls-29" d="M1,219.82c20.75,0,41.51.12,62.26-.1,4.77-.05,7.78.61,6.79,6.3-.1.53.48,1.17.74,1.76q.09,4,.19,8H1Z"/><path class="cls-44" d="M91.07,307.94c-1.36,4.73-1.73,9.73-3.9,14.24-3-1.56-6.31-1.79-9.67-1.78q-34.17.06-68.35,0c-2.77,0-5.71.47-8.11-1.58v-12c1.91-1.74,4.3-1.61,6.61-1.61,25.62,0,51.23-.07,76.84,0C86.88,305.27,90,304.38,91.07,307.94Z"/><path class="cls-28" d="M91.07,307.94c-1.58-1.87-3.73-1.09-5.62-1.09q-42.21-.08-84.41,0v-11c1.6-1.49,3.62-1.57,5.62-1.58,25.79-.17,51.59.18,77.38-.19a4.11,4.11,0,0,1,2.82.77c1.45,2.53,2.85,5.08,4.35,7.58A4.55,4.55,0,0,1,91.07,307.94Z"/><path class="cls-45" d="M1,318.82H82c2.47,0,5.29-.57,5.2,3.37a40.65,40.65,0,0,1-3,11c.16-4-2.7-3.38-5.15-3.38H1Z"/><path class="cls-34" d="M86.86,294.82a23.88,23.88,0,0,1-7.85,1q-39-.06-78,0v-11H76.68c2.15,0,4.34-.26,6.28,1A29.61,29.61,0,0,1,86.86,294.82Z"/><path class="cls-46" d="M343.12,302.05A66.63,66.63,0,0,1,331,316.72c-67.89-.65-135.77-.09-203.66-.32-3.08,0-6.38.78-9.09-1.58l3.9-14c1.07-1.76,2.82-2.21,4.69-2.44a39.51,39.51,0,0,1,5-.19c67.32-.08,134.64.14,202,0a28.79,28.79,0,0,1,5.49.25C341.23,298.84,343.31,299.27,343.12,302.05Z"/><path class="cls-27" d="M118.22,314.82q103.26,0,206.53,0c2.2,0,4.79-.85,6.22,1.88-4.69,5.38-9.71,10.39-16,14-3.65-.32-7.31-.24-11-.24q-92.25,0-184.49,0c-1.82,0-3.68.29-5.39-.64Z"/><path class="cls-47" d="M114.13,329.8c1.78-1.2,3.81-1,5.8-1q94.64,0,189.28,0c2.08,0,4.45-.63,5.77,1.85-7.32,6.06-15.08,11.44-24,15-2.79-.69-5.62-.2-8.42-.21-35-.11-70.07.08-105.11-.12a6,6,0,0,0-1.46.28A60.94,60.94,0,0,1,163.24,339a9.49,9.49,0,0,0-8.36-1.1c-15.2,4.12-30.45,8-46.73,12.28C110.29,342.88,112.21,336.34,114.13,329.8Z"/><path class="cls-24" d="M128.56,139.67a70.64,70.64,0,0,1,13.1-14c3.1-1.54,6.42-1.52,9.77-1.52q81.18,0,162.35.06c3.79,0,7.65-1,11.37.53,5.16,4.49,10.29,9,13.76,15.06-1.87,1.87-4.3,1.6-6.59,1.61q-98.62.06-197.24,0C132.79,141.42,130.35,141.68,128.56,139.67Z"/><path class="cls-26" d="M366.93,202.82c1.75,10,2.85,20.08,1.19,30.25-2.33-2.3-1.62-5.3-1.7-8-.09-3.11-1.42-4.59-4.54-4.56-1.67,0-3.34,0-5,0H214.46A49.79,49.79,0,0,0,205,221c-3.86-.6-9.77-7.75-10.1-12.36-.28-3.82,1.43-6.27,5.28-7.08a39.92,39.92,0,0,1,6-.35q76.32,0,152.66,0C361.6,201.21,364.54,200.72,366.93,202.82Z"/><path class="cls-29" d="M204,220.94c.71-3.33,3.4-2.07,5.28-2.07q61.09-.1,122.18-.05c10.64,0,21.28.15,31.91-.09,3.81-.08,5,1.2,4.73,4.87-.25,3.13,0,6.31.06,9.46,0,.59-.08,1.17-.13,1.76-2.57,2.14-5.67,1.58-8.61,1.58q-65.06.06-130.12,0a80.46,80.46,0,0,0-9.45.38c-.79.18-1.76.74-2.4.31C211.38,233,205.92,228.43,204,220.94Z"/><path class="cls-19" d="M366.93,202.82H199c2.46-6,5.54-11.44,11.76-14.37a45.46,45.46,0,0,1,6.49-.26q69.14,0,138.28,0c3,0,6-.42,8.68,1.54A43,43,0,0,1,366.93,202.82Z"/><path class="cls-48" d="M325.15,124.76c-2.1.39-4.1,1.1-6.33,1.1q-87.33-.09-174.66-.06c-.84,0-1.67-.07-2.5-.11a64.84,64.84,0,0,1,14.93-12c2.91-1.19,5.93-.47,8.91-.48,46.47,0,92.95.08,139.43-.06,2.15,0,4.33-.24,6.42.56A61.44,61.44,0,0,1,325.15,124.76Z"/><path class="cls-49" d="M128.56,139.67c13.66.05,27.31.13,41,.14q84.69,0,169.38,0a23.86,23.86,0,0,1,6.21,8c-2.52,2.31-5.66,1.62-8.58,1.62q-59.73.07-119.46,0a186,186,0,0,0-20.45.62,8.56,8.56,0,0,1-4.12-1.55c-9-5.55-17.41-4.42-24.91,3.39-1.28,1.33-2.49,2.72-4.61,2.46q-17.48.08-34.93,0c-2.94,0-6.11.36-8.18-2.55A51.16,51.16,0,0,1,128.56,139.67Z"/><path class="cls-35" d="M350,155.82a39.76,39.76,0,0,1,7,13c-2.54,2.28-5.67,1.58-8.59,1.58q-65.14.07-130.3,0c-4.32,0-8.65,0-13,.22-4.59-2.06-7.4-8.44-6.13-13.94,2.78-2.11,6-1.48,9.14-1.49q65.8-.06,131.6,0C343.09,155.26,346.63,154.11,350,155.82Z"/><path class="cls-41" d="M364.23,189.74l-155.34,0a22.18,22.18,0,0,1-.58-9.45c1-2.08,2.81-2.7,4.87-3a45.55,45.55,0,0,1,5.48-.18q66.82,0,133.67,0c2.93,0,6-.57,8.61,1.6A36.58,36.58,0,0,1,364.23,189.74Z"/><path class="cls-39" d="M360.94,178.82q-72.85,0-145.7,0c-2.43,0-5.67-1.14-6.24,3-3.94-3.05-5.77-7-5.1-12,2.13-1.29,4.49-1,6.8-1H356.93A32.28,32.28,0,0,1,360.94,178.82Z"/><path class="cls-50" d="M343.12,302.05c-1-2.37-3-2.24-5-2.24q-105.07,0-210.13,0a29,29,0,0,0-5.84,1l-2.26-4.59c-1-2.59.77-3.23,2.66-3.68a25.29,25.29,0,0,1,6-.35q61.11,0,122.21,0a26.22,26.22,0,0,0,4.94-.4c6.24.59,11.93,3.73,18.25,4a26.52,26.52,0,0,0,11.89.09,47.92,47.92,0,0,0,18.47-6.46,9.18,9.18,0,0,1,5.1-1.62c11.53.88,23.07.11,34.59.49,2.33.07,5.5-.95,6.26,2.86C348.16,295,346.25,298.93,343.12,302.05Z"/><path class="cls-51" d="M311.35,113.69a27.9,27.9,0,0,1-8.82,1.16q-68.56-.07-137.12,0a28.46,28.46,0,0,1-8.82-1.18,64.81,64.81,0,0,1,16.46-9.84c1.52-.83,3.16-.73,4.84-.73q56.12.24,112.23,0c1.67,0,3.31-.11,4.84.73A64.19,64.19,0,0,1,311.35,113.69Z"/><path class="cls-49" d="M350,155.82a26.52,26.52,0,0,1-7.84,1q-68.58-.07-137.16,0c-2,0-4.38-.9-6.06,1.18-3.7-2-4.35-5.38-4.18-9.13,12-2.07,24.16-1,36.25-1,38-.16,76.09-.08,114.14-.09A19.5,19.5,0,0,1,350,155.82Z"/><path class="cls-12" d="M295,103.83q-61,2.43-121.92,0C186.83,96.06,201.83,92,217.37,90a133.32,133.32,0,0,1,74.19,11.8C292.75,102.39,293.83,103.17,295,103.83Z"/><path class="cls-52" d="M218,237c.69-3.33,3.38-2.09,5.27-2.09q60.65-.1,121.3-.05H368c.14,2.71.24,5.43-.91,8-2.26,1.89-5,1.55-7.64,1.56-18.13,0-36.26,0-54.39,0-3.15,0-6.33-.2-9.41.67-3.8,1.06-6.6-1.56-9.74-2.8-7.26-2.88-7.62-2.83-12.28,3.36-1.35,1.8-2.51,4.08-5.46,3.3a193,193,0,0,0-34.08-.08,2.79,2.79,0,0,1-2.86-.06C226.29,245.43,220.32,243.2,218,237Z"/><path class="cls-36" d="M115,287.83c-2.44-4.13-5.11-8.17-6-13,2.37-2.18,5.33-1.59,8.09-1.59q44.43-.08,88.86,0a83,83,0,0,0,10.46-.37c2.63-.17,4.85,1,6.95,2.36,3.63,2.34,7.39,4.44,11.15,6.56,1.34.76,4.48,1.6,1.47,4.2-3.24,1.73-6.78,1.45-10.25,1.45q-49.62,0-99.24,0C122.63,287.4,118.81,287.49,115,287.83Z"/><path class="cls-53" d="M176,345.6c.54-2.43,2.52-1.76,4.05-1.76q53.48,0,106.94,0c1.54,0,3.51-.63,4,1.81-21.54,10.64-44.35,14.58-68.2,12.65C206.44,357,190.73,353.07,176,345.6Z"/><path class="cls-34" d="M115,287.83c.81-3.3,3.5-1.95,5.37-1.95q51-.13,102-.06c5,0,10,.26,14.85-1.08,5.26-1,9.16,2.78,13.8,4,2.34.63,5.26,1,6.3,4a28.69,28.69,0,0,1-8.85,1.12q-61.49-.08-123,0c-2,0-5-1.25-5.61,2.37A32,32,0,0,1,115,287.83Z"/><path class="cls-54" d="M106,266.88a28.32,28.32,0,0,1-3.1-10.7c-.95-2.6.82-3.23,2.72-3.65a31,31,0,0,1,6.46-.32c26.45-.08,52.89.16,79.33-.14,6.6.48,9.83,5.57,13.49,10,.84,1,.41,2.2-.65,3.05-2.58,1.62-5.48,1.25-8.28,1.26q-37.74,0-75.49,0C115.63,266.39,110.8,266.41,106,266.88Z"/><path class="cls-55" d="M106,266.88c.76-3.3,3.45-2,5.32-2q43.56-.12,87.12-.05c2.31,0,4.66.21,6.77-1.07a23.16,23.16,0,0,1,13,10,27.83,27.83,0,0,1-8.34,1.09q-50.43-.08-100.86,0A19.37,19.37,0,0,1,106,266.88Z"/><path class="cls-26" d="M98.94,219.81a58.83,58.83,0,0,1,1.23-16,6,6,0,0,1,4.62-1.53c17.32.05,34.65-.46,52,.25a4.87,4.87,0,0,1,3.65,3c1.46,3.14,3.26,6.08,4.86,9.13.88,1.68,2.1,3.58-.2,5.24-2.73,1.55-5.74,1.5-8.73,1.51q-25.14,0-50.28,0C103.58,221.39,101,221.6,98.94,219.81Z"/><path class="cls-56" d="M193.41,252.66c-2.1,1.24-4.42,1.17-6.76,1.17q-39.33,0-78.65,0c-2,0-4.58-1-5.12,2.32-1.81-4.26-2.35-8.79-2.76-13.35,2.4-2.11,5.34-1.56,8.12-1.57,24.32-.13,48.64.13,73-.17C188.07,242,190.79,247.26,193.41,252.66Z"/><path class="cls-29" d="M98.94,219.81h52.27c5,0,9.93.23,14.8-1,4.94,2.34,6.94,7.13,9.38,11.48.62,1.1-.35,2.18-1.43,2.85-2.45,1.35-5.15,1.26-7.8,1.26q-30,0-59.94,0c-2.46,0-5,.31-7.12-1.57C98.78,228.49,98.15,224.16,98.94,219.81Z"/><path class="cls-19" d="M158,203.81H100.17a74.93,74.93,0,0,1,3.42-16.15,8.83,8.83,0,0,1,4.71-1.4c14.11-.06,28.22-.21,42.33.08a7.73,7.73,0,0,1,2.42.49C157.31,191.73,158.14,197.63,158,203.81Z"/><path class="cls-57" d="M99.1,232.82c22.67,0,45.33,0,68,0a26.33,26.33,0,0,0,7.86-1c4.71,1.67,7.33,5.1,8.29,9.91-2.12,1.27-4.47,1.09-6.79,1.09H100.12l-.21-2.71c-.85-1.67.07-3.58-.73-5.26C99.15,234.17,99.13,233.49,99.1,232.82Z"/><path class="cls-54" d="M365.17,253.16a46.1,46.1,0,0,1-3.81,13.77,8.92,8.92,0,0,1-5.21,1.44c-9.83.06-19.65.09-29.47,0a8.82,8.82,0,0,1-5.24-1.34c-.5-.44-1.09-.94-1.14-1.59-.34-4.67-2.27-8.17-6.8-10.09-1.38-.58-2.42-1.86-1.55-3.67,1.93-2.31,4.64-2.37,7.29-2.39,13.08-.08,26.16-.14,39.24,0C361.19,249.36,364.85,248.59,365.17,253.16Z"/><path class="cls-58" d="M153.85,187.82l-50.26-.15c1.11-4.42,2.26-8.82,4.48-12.85,1.59-1.47,3.59-1.58,5.58-1.58q17.6-.09,35.19,0a8.75,8.75,0,0,1,5.23,1.22C156.22,179,156.57,183.41,153.85,187.82Z"/><path class="cls-52" d="M365.17,253.16c-.9-2.34-2.87-2.36-4.93-2.36q-21.35,0-42.67,0c-2.22,0-4.31.22-5.67,2.3C305.12,252,298.77,250,294,244.62c2-2,4.48-1.82,7-1.81h66.09A26.91,26.91,0,0,1,365.17,253.16Z"/><path class="cls-59" d="M321.19,265.82c1.77,1.27,3.8,1,5.78,1q17.19.07,34.39.12A58.28,58.28,0,0,1,355.1,282c-9.94-1.27-19.93-.41-29.9-.67-2.48-.06-5,.25-7.39-.71-.61-.32-1.26-.86-1.08-1.49C318,274.64,317.81,269.62,321.19,265.82Z"/><path class="cls-60" d="M154.2,174.87l-46.13-.05a36.74,36.74,0,0,1,5-11c1-1.67,2.49-2,4.25-1.91,11.25.75,22.52.14,33.77.37,2.13.05,4.35-.1,6.11,1.5C158.24,168,157.41,171.76,154.2,174.87Z"/><path class="cls-61" d="M157,164.9c-1.25-1.6-3-1-4.61-1.07-12.36-.51-24.77,1-37.11-.83-.71-.11-1.53.53-2.3.82a44.38,44.38,0,0,1,6.86-12c4.85,1.69,9.87.82,14.83,1,9.76.42,19.56-.9,29.29.71C162.31,157.7,161.51,162.42,157,164.9Z"/><path class="cls-62" d="M317.24,279.82h32.33c2.12,0,4.43-.43,5.53,2.19-1.51,3.13-2.45,6.56-4.91,9.17-1.24-2-3.24-1.33-5-1.34-9.76,0-19.53-.07-29.29,0a25.29,25.29,0,0,1-7.8-1C309.8,284.46,313.3,281.92,317.24,279.82Z"/><path class="cls-29" d="M99.18,234.85c1.43,1.59.65,3.48.73,5.26A9.07,9.07,0,0,1,99.18,234.85Z"/><path class="cls-20" d="M317.24,279.82a61.24,61.24,0,0,1-9.11,9c-6.93,4-14,7.62-22.16,8.15a59.12,59.12,0,0,1-28.7-4.27l-20.09-8-19-11-13-10-11.78-11.09-10.16-10.93a51.15,51.15,0,0,0-8.29-9.91c-2.32-4.8-5.85-8.76-9-13l-8-15q-2.1-8-4.18-16,.18-6.48.35-12.95,1.43-5,2.84-10c2.73-3.54,3.72-8.14,7-11.37.4-.27.94-.45,1.18-.82,5.68-8.58,13.85-9.52,23.14-8,3.08.49,4.49,2.51,6.41,4.24q2.09,4.56,4.18,9.13a53.07,53.07,0,0,0,5,11.8,52.9,52.9,0,0,0,5.1,12c.85,2.66,1.22,5.31-.11,7.94l-9.87,13c-3.65,2.38-4.09,5.39-1.68,8.88,2.16,3.11,4.41,6.16,6.62,9.24a72.54,72.54,0,0,0,14,16A66.5,66.5,0,0,0,233,248.59c3.35,0,5.65,2.52,8.53,3.66,1.84.72,3.56,1.76,5.35,2.63,10.89,5.3,11.43,5.17,19-4.1.81-1,1.41-2.34,3.07-2.11,2.48-1.29,3.71-3.74,5-5.93,2.45-4.06,5.54-4.67,9.59-2.77,3.43,1.61,6.93,3.1,10.39,4.65l17.89,8.49a11.12,11.12,0,0,0,2.07,1.2c5.65,1.82,8.28,5.5,7.22,11.51A69.4,69.4,0,0,1,317.24,279.82Z"/><path class="cls-34" d="M274,297H286A18.53,18.53,0,0,1,274,297Z"/><path class="cls-56" d="M269,248.67a10.37,10.37,0,0,1-.95,1.66c-9.5,11.44-7.7,12.21-21.67,5.61-4.6-2.17-9.46-3.9-13.36-7.35.31-1.8,1.68-1.78,3-1.77H266C267.41,246.81,268.73,246.88,269,248.67Z"/></g></g></svg>