<svg xmlns="http://www.w3.org/2000/svg" viewBox="0 0 917.94 182.5"><title>Asset 2</title><g id="Layer_2" data-name="Layer 2"><g id="Layer_1-2" data-name="Layer 1"><path d="M137.88,0h63.5a9.92,9.92,0,0,1,3.08.41,1.73,1.73,0,0,1,1,2.08,10.49,10.49,0,0,1-.53,1.55c-.9,2.14-1.82,4.27-2.73,6.4l-.43.93a2.9,2.9,0,0,1-2.89,1.88H145l-74-.07c-1.16,0-2.33,0-3.48,0-3.36.17-5.1,1.58-6,4.84-.46,1.64-.81,3.32-1.38,4.92-1.09,3-2.3,6-3.44,9a10.8,10.8,0,0,0-.59,1.74,1.52,1.52,0,0,0,1.46,2,13.87,13.87,0,0,0,2,.08H75.82a17.76,17.76,0,0,1,3.25.28c5.34,1,7.13,4.71,7.78,8.14a19.21,19.21,0,0,1-.65,9.1c-.4,1.37-.88,2.72-1.4,4.06Q75.89,80.6,67,103.81q-7.41,19.31-14.83,38.6-6.87,17.86-13.79,35.71c-.19.51-.41,1-.62,1.51a4.31,4.31,0,0,1-4.31,2.86h-.82l-29.09,0a6.65,6.65,0,0,1-2.43-.24,1.33,1.33,0,0,1-1-1.74,16.88,16.88,0,0,1,1.07-2.65c3-6.13,6.05-12.24,9.06-18.37q10.78-22,21.55-43.93,8.83-18,17.64-36.06c3.27-6.68,6.59-13.33,9.88-20a11.93,11.93,0,0,0,.8-1.88,2.13,2.13,0,0,0-1.18-2.73,11.33,11.33,0,0,0-3.52-1,43.45,43.45,0,0,0-5.92-.45,23.2,23.2,0,0,1-5.86-.81,13,13,0,0,1-5.85-3.23,10.86,10.86,0,0,1-3.17-9.92,14.53,14.53,0,0,1,1.6-4.84C39.72,28.11,43,21.5,47,15.26a68.36,68.36,0,0,1,4.37-6.19,24.83,24.83,0,0,1,5-4.85A18.66,18.66,0,0,1,64.56.9c2-.3,4-1,5.92-.89C76,.35,81.54,0,87.07,0,104,0,120.94,0,137.88,0Z"/><path d="M150.54,108H137.83a8.72,8.72,0,0,0-7.3,4l-.82,1.28c-6.18,9.67-12.26,19.4-18.77,28.85-4.23,6.13-8.6,12.15-13.41,17.84a68.23,68.23,0,0,1-23.17,18.21A42.44,42.44,0,0,1,61,181.83c-5.65.65-10.55.4-16.22.39a4.52,4.52,0,0,1-1.21-.16,1.22,1.22,0,0,1-.8-1.47,31.52,31.52,0,0,1,1.16-3.36c.65-1.64.85-1.93,1.4-3.35,1.27-3.27,1.88-4,4.89-4h4c2,0,3.54-.06,5.33,0,5.09,0,8.76-1.62,12.6-4.06a38.71,38.71,0,0,0,3.17-2.25A86.55,86.55,0,0,0,89,149.75a122.2,122.2,0,0,0,15.89-26.68c9.27-20.68,17.73-41.7,26.26-62.69,2.28-5.63,4.6-11.24,6.9-16.86a19.41,19.41,0,0,1,2-3.82,12.53,12.53,0,0,1,7-5,21.48,21.48,0,0,1,5.86-.82h37.49c1.16,0,2.32,0,3.48,0a4.35,4.35,0,0,0,3.83-2.35c.34-.59.59-1.23.87-1.85,2.24-5,4.47-10,6.73-14.93,1.41-3.11,2.86-6.2,4.3-9.29.17-.38.34-.75.54-1.11a5.25,5.25,0,0,1,5-2.93c6.42.06,12.84.05,19.26.05a9.94,9.94,0,0,1,3.42.56,3.44,3.44,0,0,1,2.39,4.53,13.11,13.11,0,0,1-1.49,3.36c-1.61,2.77-3.21,5.56-4.82,8.33Q225.81,32.14,217.72,46a40.62,40.62,0,0,1-2.46,3.77,14.32,14.32,0,0,1-13.75,6A68.29,68.29,0,0,0,194,55.5c-10.38,0-15.22.08-25.6.12a23.74,23.74,0,0,0-6.28.82,14.82,14.82,0,0,0-8.57,6.26,20.66,20.66,0,0,0-2.19,4.16c-1.67,4.33-3.31,8.67-4.95,13a9.46,9.46,0,0,0-.36,1.18,1.76,1.76,0,0,0,1.73,2.4,15.62,15.62,0,0,0,2.05.08c5.67,0,11.34,0,17,0,2.66,0,5.32,0,8,0a6.94,6.94,0,0,1,2.22.27,1,1,0,0,1,.71,1.27c-.31.9-.68,1.78-1.07,2.65-1.4,3.11-2.85,6.21-4.24,9.32-1.08,2.43-2.11,4.89-3.17,7.33a13.29,13.29,0,0,1-.67,1.49,4,4,0,0,1-3.48,2.18c-.54,0-1.09,0-1.63,0H150.54Z"/><path d="M543.22,49.77a3.88,3.88,0,0,0,1.59-1.19,29.27,29.27,0,0,1,17.75-7.75,59.8,59.8,0,0,1,12.62.41c2.42.28,4.84.54,7.23.94a12,12,0,0,1,8.88,6.43,19.07,19.07,0,0,1,2.14,8.24,41,41,0,0,1-1,10.87c-2.29,10.84-4.64,21.67-6.94,32.5-1.24,5.81-2.43,11.62-3.65,17.42a17.39,17.39,0,0,1-.56,2.29,3.29,3.29,0,0,1-2.6,2.3,9,9,0,0,1-2.13.16c-1.64-.07-3.29-.21-4.93-.2-2.15,0-4.29.13-6.43.2a6.65,6.65,0,0,1-2.35-.15,1.89,1.89,0,0,1-1.56-2,9.38,9.38,0,0,1,.22-1.9q3.42-15.82,6.87-31.65c1.3-6,2.64-12,3.85-18a15.56,15.56,0,0,0,.29-6.59,6.59,6.59,0,0,0-4-4.92,16.43,16.43,0,0,0-5.66-1.08,42,42,0,0,0-10.25.69A15.19,15.19,0,0,0,541.44,65a41,41,0,0,0-3.31,9c-2.31,9-4.29,18.08-6.12,27.19q-1.66,8.31-3.35,16.61a12.33,12.33,0,0,1-.37,1.45,4,4,0,0,1-4.29,3.13,20.6,20.6,0,0,1-2.36-.1,47.38,47.38,0,0,0-7.72,0c-.93.07-1.86.1-2.79.08a7.42,7.42,0,0,1-1.68-.25,1.68,1.68,0,0,1-1.33-1.74,10.14,10.14,0,0,1,.31-2.11c1.22-5.66,2.47-11.31,3.7-17q3.74-17.3,7.46-34.59,4.29-19.9,8.58-39.82c1.12-5.17,2.35-10.32,3.08-15.57a6.62,6.62,0,0,1,.52-1.85,3.28,3.28,0,0,1,3-2.13c.93,0,1.86,0,2.79,0a75.21,75.21,0,0,0,10.29-.17,4.79,4.79,0,0,1,1.07,0c1.91.25,2.56,1,2.58,3a18.66,18.66,0,0,1-.66,4q-3.49,16.25-7,32.49C543.57,47.66,543.42,48.64,543.22,49.77Z"/><path d="M389.93,85.59H366.75c-.36,0-.72,0-1.08,0-2.34.12-3.53,1.1-4,3.4a23.86,23.86,0,0,0-.43,2.53,48.1,48.1,0,0,0-.55,7.48,13.58,13.58,0,0,0,.47,3.18,6,6,0,0,0,3.49,4.09,15.82,15.82,0,0,0,4.77,1.18A71.58,71.58,0,0,0,385,107a13.81,13.81,0,0,0,2.89-.75,9.47,9.47,0,0,0,5.79-5.68c.27-.66.46-1.35.75-2a3.93,3.93,0,0,1,2.88-2.34,9.31,9.31,0,0,1,2.35-.21c1.35.05,2.71.13,4.07.19a68.33,68.33,0,0,0,6.86-.2,6.25,6.25,0,0,1,2.54.22A1.73,1.73,0,0,1,414.45,98a7.49,7.49,0,0,1-.21,2.12,38.48,38.48,0,0,1-5,11.33,22.74,22.74,0,0,1-10.56,8.46A33.81,33.81,0,0,1,390,122a151.4,151.4,0,0,1-24,.92,56.3,56.3,0,0,1-13.08-2.21,18.21,18.21,0,0,1-6.3-3.15A14.78,14.78,0,0,1,341,106a100.17,100.17,0,0,1,3.61-30.76,116.42,116.42,0,0,1,5.58-15.75c3.88-8.87,10.66-14.33,19.91-16.84a52,52,0,0,1,9.3-1.45,131.6,131.6,0,0,1,16.73-.3,54,54,0,0,1,11.65,1.66,27.92,27.92,0,0,1,2.86.9,14.78,14.78,0,0,1,9.69,11.15,25.24,25.24,0,0,1,.56,4.25,61.2,61.2,0,0,1-1.08,13.44c-.55,3.17-1.08,6.34-1.62,9.51,0,.14,0,.28-.07.42-.51,2.6-1.4,3.37-4.1,3.38-8,0-16,0-24,0ZM382.24,73H394a38.08,38.08,0,0,0,3.85-.25,3.41,3.41,0,0,0,3.18-3.2,35.58,35.58,0,0,0,.28-6.84c-.2-3.75-1.28-5-4.94-6-6.57-1.71-13.17-1.4-19.76-.21a11.63,11.63,0,0,0-7.11,4.08,19.24,19.24,0,0,0-3.87,10.06,1.75,1.75,0,0,0,1.59,2.16,10.8,10.8,0,0,0,2.13.16C373.67,73,378,73,382.24,73Z"/><path d="M704.25,85.6h-23.4a13.73,13.73,0,0,0-1.93.07,3,3,0,0,0-2.66,2.17,10.79,10.79,0,0,0-.33,1.24c-.39,2.4-.83,4.79-1.14,7.2a15,15,0,0,0,.19,5.12,6.65,6.65,0,0,0,4.46,5.08,21.21,21.21,0,0,0,4.81,1c5,.71,10,.16,15-.52a13,13,0,0,0,4.28-1.35,8.81,8.81,0,0,0,4.21-4.68c.21-.53.36-1.09.56-1.62A4.76,4.76,0,0,1,712.8,96a21.51,21.51,0,0,1,3,.07,41.43,41.43,0,0,0,6,0,32.33,32.33,0,0,1,4.29,0c2.24.15,3,1.1,2.52,3.23a29.74,29.74,0,0,1-7.71,15.08,26.67,26.67,0,0,1-13.6,7.3,34,34,0,0,1-5.31.71,191.93,191.93,0,0,1-21.45.56,58,58,0,0,1-13.52-2.2,16.63,16.63,0,0,1-8.53-5.47,14,14,0,0,1-3.32-9.08,130.72,130.72,0,0,1,.89-17.13,102.37,102.37,0,0,1,4.34-19.21A93.39,93.39,0,0,1,665.9,57c3.71-7.26,9.62-11.72,17.35-14a57.72,57.72,0,0,1,9.93-1.68,112.1,112.1,0,0,1,16.08-.5,68.21,68.21,0,0,1,11.48,1.41,22.73,22.73,0,0,1,6.06,2.11,13.82,13.82,0,0,1,7.14,8.45,31.48,31.48,0,0,1,1,11.47,132.06,132.06,0,0,1-2.8,18,9,9,0,0,1-.39,1.44,2.66,2.66,0,0,1-2.43,1.81c-.71,0-1.43.06-2.15.06h-23ZM697.19,73H710.7A11.11,11.11,0,0,0,712,73a2.88,2.88,0,0,0,3-3c.14-1.42.3-2.84.4-4.27.08-1.21.16-2.43.13-3.64a5.15,5.15,0,0,0-3.33-4.82,11.21,11.21,0,0,0-2.45-.76,46.24,46.24,0,0,0-16-.39,24.06,24.06,0,0,0-5,1.21,12.27,12.27,0,0,0-6.94,6,21.25,21.25,0,0,0-1.94,6.32,5.48,5.48,0,0,0,0,1.28,1.93,1.93,0,0,0,1.33,1.78,6.27,6.27,0,0,0,2.32.28Z"/><path d="M321.29,7.3h40.16a16.74,16.74,0,0,1,2.35.1,2,2,0,0,1,1.95,2.53,7.9,7.9,0,0,1-.41,1.66,54.49,54.49,0,0,0-2.49,11.29c-.05.35-.06.72-.14,1.06a3.48,3.48,0,0,1-3,3,13.67,13.67,0,0,1-1.91.16l-24.48,0c-.79,0-1.58,0-2.36.07a3,3,0,0,0-2.65,1.9,10.82,10.82,0,0,0-.71,2.24q-3,14.27-6,28.53-2.41,11.45-4.86,22.87-3.36,15.61-6.75,31.23c-.31,1.4-.59,2.8-1,4.18-.93,3.4-2.14,4.32-5.64,4.38-1.86,0-3.72-.06-5.57-.17-2.29-.15-4.58-.13-6.87-.17-.72,0-1.43,0-2.15,0-2.16-.09-3-1.09-2.64-3.17.07-.42.16-.84.25-1.26q2-9.12,4-18.23,4-18.54,8-37.09c2-9.44,4-18.89,6-28.33.28-1.33.64-2.64,1-4a9.09,9.09,0,0,0,.26-1.26,1.32,1.32,0,0,0-1.15-1.55,13.78,13.78,0,0,0-2.13-.14c-4,0-8-.08-12-.07-4.43,0-8.87,0-13.3.07a8.1,8.1,0,0,1-2.55-.24,2,2,0,0,1-1.65-2.39,13.86,13.86,0,0,1,.54-2.29,59.69,59.69,0,0,0,2.38-10.88A6.75,6.75,0,0,1,276,10a3.26,3.26,0,0,1,3.21-2.66c.92-.07,1.86-.05,2.79-.05h39.29Z"/><path d="M771.34,123.16c-5.71-.19-11-.15-16.28-.74a20.33,20.33,0,0,1-7.39-2.08A15.65,15.65,0,0,1,739,107.87a20.86,20.86,0,0,1,1.09-9.08A3.71,3.71,0,0,1,743.92,96h13.31a4.88,4.88,0,0,1,.85.07,2.14,2.14,0,0,1,2.07,2.09c.16,1.13.28,2.28.34,3.42A19.22,19.22,0,0,0,761,105a4.56,4.56,0,0,0,4.17,3.75,38.82,38.82,0,0,0,4.7.36,37,37,0,0,0,5.57-.18,30.7,30.7,0,0,1,4.29,0,23.33,23.33,0,0,0,6.39-.59c4.22-1.18,7.22-3.68,8.5-8a14.92,14.92,0,0,0,.63-4.88,5.44,5.44,0,0,0-4.24-5.51,26.46,26.46,0,0,0-5.93-.87c-3.71-.23-7.44-.31-11.15-.57-4.56-.32-9.14-.48-13.67-1.21a28,28,0,0,1-7.61-2.15,10,10,0,0,1-6-8.28,34.22,34.22,0,0,1,.22-9,43,43,0,0,1,3.36-12.16,22,22,0,0,1,9.8-11,25.17,25.17,0,0,1,7.74-2.46A112.91,112.91,0,0,1,792,40.57a109.89,109.89,0,0,1,15.56,1.72,17.24,17.24,0,0,1,6.36,2.46,13.18,13.18,0,0,1,5.92,10,28,28,0,0,1,0,5.57,8.26,8.26,0,0,1-.31,1.46A3,3,0,0,1,816.87,64a9.37,9.37,0,0,1-1.5.06c-3.72,0-7.45,0-11.17.06a12.47,12.47,0,0,1-1.93-.08,2.89,2.89,0,0,1-2.69-2.85,12.86,12.86,0,0,1,0-2.15,3.07,3.07,0,0,0-1.66-3,6.11,6.11,0,0,0-2.19-.84,49.36,49.36,0,0,0-13.24-.71c-2.35.25-4.68.6-7,1a9.12,9.12,0,0,0-6,3.88,12.14,12.14,0,0,0-2.63,7.77A4.74,4.74,0,0,0,770.7,72a8.28,8.28,0,0,0,1.47.28c4,.32,8,.64,12,.9,4.71.31,9.42.53,14.13.87a28.94,28.94,0,0,1,8,1.65,17.42,17.42,0,0,1,3.29,1.57,11.67,11.67,0,0,1,5.05,6.2,15.5,15.5,0,0,1,.93,4.82,43.65,43.65,0,0,1-3,17.22,24.75,24.75,0,0,1-15.26,14.73,37.17,37.17,0,0,1-8.55,1.92,140.61,140.61,0,0,1-15.21.91C772.64,123.06,771.78,123.14,771.34,123.16Z"/><path d="M476.12,40.93c2.37,0,4.73-.07,7.09,0a46.46,46.46,0,0,1,12.43,2.11A21,21,0,0,1,500,44.92a12.62,12.62,0,0,1,6.22,8.6,19,19,0,0,1,.5,4.26c0,2.14,0,4.29,0,6.44a9.84,9.84,0,0,1-.42,2.74,3.59,3.59,0,0,1-2.8,2.67,13.12,13.12,0,0,1-3.18.45l-9.66,0a8.38,8.38,0,0,1-.86,0c-1.55-.13-2.81-.76-2.94-2.77-.06-.92-.21-1.84-.29-2.77-.06-.64,0-1.29-.11-1.92a5.84,5.84,0,0,0-4.94-5.48,39.12,39.12,0,0,0-10.61-1.26,30.67,30.67,0,0,0-8,1.4,12.72,12.72,0,0,0-8.39,7.7,29.68,29.68,0,0,0-1.23,3.66c-2.08,8-4,16.09-5.29,24.29a34.62,34.62,0,0,0-.62,6.82c.15,3.56,1.72,5.75,5.07,6.91a10.28,10.28,0,0,0,1.44.41,34.72,34.72,0,0,0,9.38.61c2.14-.2,4.28-.25,6.41-.57a10.86,10.86,0,0,0,8.47-5.86,21.2,21.2,0,0,0,1.53-4q.57-2,1.29-3.87a3.32,3.32,0,0,1,2.84-2.3,20.7,20.7,0,0,1,2.34-.27c3.86,0,7.73,0,11.59,0a5.09,5.09,0,0,1,1.9.26,1.54,1.54,0,0,1,1.15,1.61,5.76,5.76,0,0,1-.33,1.68c-.39,1.29-.76,2.6-1.09,3.92a40.83,40.83,0,0,1-3.14,8.42A27.22,27.22,0,0,1,478,121.2a49.91,49.91,0,0,1-9.11,1.32c-5.14.34-10.29.52-15.44.42a57.75,57.75,0,0,1-13.15-1.77,21.63,21.63,0,0,1-5-1.87,13.78,13.78,0,0,1-7.17-9.42,16.13,16.13,0,0,1-.41-2.76,92,92,0,0,1,.47-15.21,110.09,110.09,0,0,1,5.28-22.72q1.8-5.18,4-10.19A27.22,27.22,0,0,1,453.5,43.82a49.34,49.34,0,0,1,11.05-2.53A91.29,91.29,0,0,1,476.12,40.93Z"/><path d="M875.79,41.83h11.38a7,7,0,0,1,2.33.25A1.57,1.57,0,0,1,890.75,44a3.23,3.23,0,0,1-.24,1A27.8,27.8,0,0,0,889,50.19c-.31,1.1-.58,2.21-1,3.29-.84,2.46-1.83,3.21-4.38,3.33-1.43.07-2.87.07-4.3.07-5.22,0-10.45,0-15.67,0a29.11,29.11,0,0,0-3.85.32,3.74,3.74,0,0,0-3.2,2.52,17.29,17.29,0,0,0-.74,2.45q-2.14,10.18-4.24,20.37c-1.25,6.09-2.45,12.19-3.69,18.29a11.71,11.71,0,0,0-.28,2.76,3.41,3.41,0,0,0,2.59,3.52,12.67,12.67,0,0,0,5.08.61,9.55,9.55,0,0,0,8.47-6,39.61,39.61,0,0,0,1.52-4.24c.43-1.28.85-2.58,1.35-3.84A4,4,0,0,1,870,91a19.22,19.22,0,0,1,2.13-.22c2.86,0,5.72-.07,8.59,0s3.54.85,2.91,3.58c-1.28,5.58-2.8,11.09-5.63,16.15a21.9,21.9,0,0,1-14.34,11.08,53.3,53.3,0,0,1-14.87,1.7,58.16,58.16,0,0,1-12.3-1.73,14.93,14.93,0,0,1-3.39-1.33,11.46,11.46,0,0,1-6.09-8.35,17,17,0,0,1,.17-6.82q2.58-12.93,5.27-25.84c1.23-6,2.54-11.89,3.8-17.83a9.45,9.45,0,0,0,.22-1.48c.07-2.06-.85-3-3-3.06a12.85,12.85,0,0,0-2.14.16,5.4,5.4,0,0,1-2.12-.18,2,2,0,0,1-1.7-2.16,4.62,4.62,0,0,1,.24-1.47,24,24,0,0,0,1-5.25,10.05,10.05,0,0,1,1-3.48,4.55,4.55,0,0,1,4.24-2.78c1,0,2,.09,3,.15,2.27.15,3.32-.52,3.91-2.75.48-1.8.78-3.64,1.12-5.46s.65-3.81,1-5.71a13.09,13.09,0,0,1,.46-1.87,3.14,3.14,0,0,1,2.85-2.25,11.11,11.11,0,0,1,1.29,0l12.67,0a8.23,8.23,0,0,1,.86,0c1.79.14,2.59,1.08,2.24,2.88-.69,3.58-1.47,7.14-2.22,10.7-.14.63-.35,1.25-.45,1.88a2,2,0,0,0,1.88,2.57,15.59,15.59,0,0,0,1.93.09h11.17Z"/><path d="M654.82,7.39h7.63a3.11,3.11,0,0,1,.43,0c2,.25,2.73,1.08,2.44,3.18-.22,1.56-.51,3.1-.85,4.64s-.82,3.33-1.25,5c-.48,1.85-.93,2.27-2.81,2.25-2.3,0-4.57.21-6.85.36a19.36,19.36,0,0,0-4.41.87,9,9,0,0,0-5.54,4.75A24.56,24.56,0,0,0,642,32.67c-.57,1.92-1.07,3.86-1.59,5.79a6.23,6.23,0,0,0-.15.62c-.33,1.9.26,2.62,2.24,2.74.57,0,1.14,0,1.71,0h10.52c.5,0,1,0,1.5,0,2.09.12,2.74.77,2.47,2.83A46.52,46.52,0,0,1,657,52.85a5,5,0,0,1-4.27,3.72,20.62,20.62,0,0,1-2.34.24c-2.43,0-4.87.08-7.3.06a33.1,33.1,0,0,0-3.85.3A3.63,3.63,0,0,0,636,59.84a42.7,42.7,0,0,0-1.2,5.21c-1.64,8-3.22,16-4.89,24-1.49,7.13-3.07,14.25-4.62,21.37-.62,2.86-1.28,5.72-1.92,8.57-.06.28-.12.56-.2.84a3,3,0,0,1-3.19,2.61,9.57,9.57,0,0,1-1.07,0c-4-.21-8-.08-12,0a7.63,7.63,0,0,1-2.13-.12c-1.05-.29-1.49-.75-1.49-1.8a11.48,11.48,0,0,1,.25-2.34q4.37-20.12,8.76-40.21,1.83-8.39,3.65-16.76a10.83,10.83,0,0,0,.28-1.69c.09-1.72-.65-2.54-2.35-2.63-.5,0-1,0-1.5,0-1.43,0-2.86,0-4.29,0a2,2,0,0,1-2-2.42,9.75,9.75,0,0,1,.21-1c.62-2.94,1.23-5.87,1.86-8.81.4-1.9,1.1-2.56,3.05-2.68,1.5-.09,3,0,4.51-.1a15,15,0,0,0,2.11-.27,3.1,3.1,0,0,0,2.47-2.14,22.75,22.75,0,0,0,.77-2.68,101.31,101.31,0,0,1,4.27-14.37,21.09,21.09,0,0,1,12.2-12.52,28.87,28.87,0,0,1,5.14-1.52,38.08,38.08,0,0,1,9.16-.83A14.72,14.72,0,0,0,654.82,7.39Z"/><path d="M887.64,17.65h-3.25V3.49h-5V.71h13.19V3.49h-5Z"/><path d="M909.51,17.65H906.6L901.23,3.44h-.07l.27,14.21h-3.25V.71h5.22L908,13.29h.09L912.61.71h5.33V17.65h-3.26L915,3.38h-.12Z"/><path d="M694.19,181.1h-25l1.33-6.33c1.81-8.5,5.36-9.12,13.06-10.32,6.86-1.19,8.28-.57,9.56-6.59.93-4.39-.39-5-5.09-5-5.75,0-6.86.05-8.28,6.87h-6c1.73-8.11,3.28-12.09,15.41-12.09,7.84,0,11.87,1.46,10,10.23s-5,9.83-13.51,11.2c-6.24.93-8.06.75-9.12,5.71l-.22,1.11h19Z"/><path d="M731.16,161.53l-1.29,6c-2.52,11.87-6.68,13.82-16.64,13.82s-13.33-2-10.81-13.82l1.29-6.11c2.39-11.11,5.35-13.81,16.69-13.81C730.36,147.63,733.68,149.66,731.16,161.53Zm-7.62,7.53,1.91-9.08c1.46-6.77,0-7.13-6.16-7.13s-7.79.36-9.25,7.13l-1.9,9.08c-1.47,6.82,0,7.08,6.19,7.08S722.08,175.88,723.54,169.06Z"/><path d="M750.64,181.1h-6l5.93-27.89-10.49,8.63-2.79-3.94,12.75-10h7.66Z"/><path d="M770.74,171.8c-.93,4.34.67,4.34,5.94,4.34s6.9-.09,8.1-5.75L786,164.9h-.08c-2,2.65-4.74,3.23-9,3.23-7.09,0-10.94-1.06-9-10,1.73-8.24,4.74-10.45,14.83-10.45,10.94,0,12.36,2.74,9.88,14.21l-2,9.61c-1.77,8.41-7,9.92-15,9.92-7.26,0-12.84-.18-10.85-9.57Zm3.19-13.72c-.93,4.34-.26,4.82,5.54,4.82s7-.35,8-4.82c1-5-.8-5.23-5.8-5.23C775.84,152.85,774.91,153.3,773.93,158.08Z"/><path d="M821.71,166.76l-.93,4.25H809l.93-4.25Z"/><path d="M862,181.1H837l1.33-6.33c1.82-8.5,5.36-9.12,13.06-10.32,6.87-1.19,8.28-.57,9.57-6.59.93-4.39-.4-5-5.1-5-5.75,0-6.86.05-8.27,6.87h-6c1.73-8.11,3.28-12.09,15.41-12.09,7.84,0,11.87,1.46,10,10.23s-5,9.83-13.51,11.2c-6.24.93-8.05.75-9.12,5.71l-.22,1.11h19Z"/><path d="M899,161.53l-1.28,6c-2.53,11.87-6.69,13.82-16.65,13.82s-13.33-2-10.8-13.82l1.28-6.11c2.39-11.11,5.36-13.81,16.69-13.81C898.17,147.63,901.49,149.66,899,161.53Zm-7.61,7.53,1.9-9.08c1.46-6.77,0-7.13-6.16-7.13s-7.79.36-9.25,7.13l-1.9,9.08c-1.46,6.82-.05,7.08,6.2,7.08S889.89,175.88,891.36,169.06Z"/></g></g></svg>