<?xml version="1.0" standalone="yes"?>
<svg xmlns="http://www.w3.org/2000/svg" width="2200" height="2200" >
<path style="fill:#020202; stroke:none; " d="M1832 521L1832 533L1853 533L1853 593L1867 593L1867 533L1888 533L1888 521L1832 521M1912 521L1912 593L1926 593L1925 534C1931.31 547.501 1935.8 562.092 1941.19 576C1942.89 580.387 1944.32 589.249 1948.42 591.972C1951.58 594.073 1957.37 593 1961 593C1964.47 578.374 1971.63 564.166 1976.69 550C1978.69 544.403 1981.4 538.957 1982 533L1984 533C1983.14 552.91 1982.16 573.076 1982 593L1996 593L1996 521L1973 521C1971.25 528.565 1968.05 535.682 1965.5 543C1961.92 553.329 1958.63 564.095 1954 574C1948.51 561.675 1944.59 548.613 1939.81 536C1938.29 531.999 1937.23 524.594 1933.5 522.028C1928.86 518.828 1917.5 521 1912 521M817 599.439C796.151 602.687 774.37 606.525 756 617.453C736.311 629.166 721.835 647.429 708.975 666C693.458 688.409 680.344 712.193 667.139 736C651.732 763.776 631.726 792.638 629.325 825C628.894 830.807 630.188 837.394 631.63 843C633.008 848.36 635.139 853.295 638.066 858C656.807 888.132 692.053 891.232 724 892.015C735.942 892.307 750.066 893.839 760.999 898.901C766.148 901.285 771.333 905.757 770.627 912C769.887 918.543 765.646 925.215 762.753 931L746.247 964C728.318 999.857 711.179 1036.14 693.247 1072C634.814 1188.87 579.188 1307.13 520.753 1424C499.818 1465.87 479.688 1508.13 458.753 1550C453.622 1560.26 448.334 1570.43 443.85 1581C442.108 1585.11 439.614 1590.53 442.028 1594.9C444.627 1599.59 450.264 1599.97 455 1600C465.666 1600.05 476.334 1600 487 1600L581 1600C596.558 1600 613.61 1601.97 629 1599.7C647.994 1596.89 652.339 1573.1 658.189 1558C674.968 1514.68 691.908 1471.42 708.424 1428C761.492 1288.5 816.76 1149.8 869.05 1010C879.93 980.912 891.382 952.028 902.424 923C913.433 894.061 923.874 865.057 915.255 834C910.173 815.69 897.555 802.557 879 797.895C872.238 796.196 865.841 796.481 859 795.83C836.569 793.695 813.546 795 791 795L765 795C760.604 794.998 755.778 795.382 752.109 792.486C743.986 786.075 752.601 772.423 755.424 765C761.611 748.735 768.9 732.801 773.576 716C776.952 703.867 778.621 689.435 788.174 680.301C801.458 667.598 824.163 671 841 671L970 671C1107.33 671 1244.62 672 1382 672L1494 672L1524 672C1529.28 672 1535.19 672.509 1540 669.86C1546.15 666.47 1548.81 659.107 1551.42 653C1556.39 641.389 1562.11 629.926 1566.3 618C1568.43 611.946 1569.01 604.113 1561.96 601.147C1554.68 598.087 1545.69 599 1538 599L1497 599L1348 599L991 599C951.653 599 912.268 599.529 873 599.996C863.085 600.114 852.892 600.588 843 599.911C834.407 599.322 825.615 598.097 817 599.439M1612 607.529C1593.35 611.811 1588.13 634.093 1580.75 649C1566.16 678.467 1553.16 708.925 1539.86 739C1534.26 751.667 1529.2 770.697 1517.99 779.468C1510.52 785.31 1500.98 785 1492 785L1447 785L1295 785C1267.53 785 1239.6 785.412 1218.01 805.174C1213.95 808.891 1210.58 813.44 1207.52 818C1198.96 830.761 1194.48 845.931 1188.58 860C1175.62 890.88 1163.53 922.122 1150.58 953C1108.9 1052.31 1069.66 1152.58 1025.86 1251C993.647 1323.39 956.753 1392.7 902.093 1450.99C884.6 1469.64 866.146 1488.37 845 1502.97C824.276 1517.29 801.575 1529.16 776 1530.91C760.148 1532 743.891 1531 728 1531C720.19 1531 711.529 1530.09 704 1532.64C697.088 1534.98 693.756 1541.69 691.201 1548C686.755 1558.98 681.751 1569.76 678 1581C675.384 1588.84 672.966 1597.42 684 1598.81C693.083 1599.97 702.847 1599 712 1599C726.663 1599 741.414 1599.56 756 1598.17C781.648 1595.73 806.575 1592.9 831 1583.95C944.233 1542.43 1013.94 1432.77 1077.67 1337C1097.42 1307.32 1116.65 1277.22 1135.58 1247C1145.12 1231.75 1154.22 1211.71 1169 1200.93C1184.49 1189.63 1202.86 1191 1221 1191C1252.72 1191 1284.28 1192 1316 1192C1328.04 1192 1343.71 1194.56 1355 1189.63C1366.87 1184.45 1370.46 1168.95 1375.01 1158C1383.27 1138.13 1392.35 1118.56 1401.31 1099C1406 1088.76 1412.51 1077.99 1415.2 1067C1416.73 1060.74 1412.4 1058.6 1407 1057.62C1397.36 1055.86 1386.77 1057 1377 1057L1280 1057L1257 1057C1252.6 1056.98 1247.76 1056.86 1244.39 1053.58C1237.17 1046.54 1245 1034.57 1247.66 1027C1253.08 1011.53 1259.27 996.287 1265.19 981C1269.09 970.919 1272.54 960.37 1278.01 951C1284.06 940.636 1291.68 931.1 1301 923.464C1323.45 905.06 1352.41 904 1380 904L1433 904C1451.67 904 1470.33 904.089 1489 903.999C1495.38 903.969 1501.59 902.651 1508 903.089C1516.66 903.682 1525.35 903.497 1534 904.089C1555.22 905.543 1575.51 907.464 1595 896.56C1621.76 881.592 1635.68 851.613 1650.28 826C1676.04 780.81 1702.71 736.13 1728.58 691C1737.49 675.45 1747.62 660.252 1755.22 644C1758.63 636.705 1761.2 626.502 1756.91 619.001C1750.1 607.083 1733.95 607 1722 607L1648 607C1636.64 607 1623.09 604.984 1612 607.529z"/>

</svg>
