<?xml version="1.0" encoding="utf-8"?>
<!-- Generator: Adobe Illustrator 23.0.5, SVG Export Plug-In . SVG Version: 6.00 Build 0)  -->
<svg version="1.1" id="Layer_1" xmlns="http://www.w3.org/2000/svg" xmlns:xlink="http://www.w3.org/1999/xlink" x="0px" y="0px"
	 viewBox="0 0 1920 1080" style="enable-background:new 0 0 1920 1080;" xml:space="preserve">
<style type="text/css">
	.st0{fill:#4000D0;}
	.st1{
		transform-origin:50% 50%;
		animation: rota 2s   infinite	normal	initial;
	}
	@keyframes rota {
		to{
			transform: rotate(360deg);
		}
	}
</style>
<g>
	<path class="st1" d="M959.92,456.99c-0.01,0-0.03,0-0.04,0c0,0-0.01,0-0.02,0c-0.01,0-0.02,0-0.02,0c-0.01,0-0.01,0-0.02,0
		c-0.01,0-0.02,0-0.02,0c-0.01,0-0.01,0-0.02,0c-0.01,0-0.02,0-0.02,0c-0.01,0-0.01,0-0.02,0c-0.01,0-0.01,0-0.02,0
		c-0.01,0-0.01,0-0.02,0c-0.01,0-0.01,0-0.02,0c-0.01,0-0.01,0-0.02,0c-0.01,0-0.01,0-0.02,0c-0.01,0-0.01,0-0.02,0
		c-0.01,0-0.02,0-0.02,0c-0.01,0-0.01,0-0.02,0c-0.01,0-0.02,0-0.02,0c-0.01,0-0.01,0-0.01,0c-0.01,0-0.02,0-0.03,0
		c0,0-0.01,0-0.01,0c-0.03,0-0.05,0-0.08,0c0,0-0.01,0-0.01,0c-0.01,0-0.02,0-0.03,0c0,0-0.01,0-0.01,0c-0.01,0-0.02,0-0.03,0
		c0,0-0.01,0-0.02,0c-0.01,0-0.02,0-0.03,0c-0.01,0-0.01,0-0.02,0c-0.01,0-0.01,0-0.02,0c-0.01,0-0.01,0-0.02,0
		c-0.01,0-0.01,0-0.02,0c-0.01,0-0.01,0-0.02,0c-0.01,0-0.01,0-0.02,0c-0.01,0-0.01,0-0.02,0c-0.01,0-0.02,0-0.02,0
		c0,0-0.01,0-0.02,0c-0.01,0-0.02,0-0.03,0c0,0-0.01,0-0.02,0c-0.01,0-0.02,0-0.03,0c0,0,0,0-0.01,0c-0.01,0-0.03,0-0.04,0
		c0,0,0,0-0.01,0c-0.01,0-0.02,0-0.03,0c-0.01,0-0.01,0-0.02,0c-0.01,0-0.02,0-0.02,0c-0.01,0-0.01,0-0.02,0c-0.01,0-0.02,0-0.02,0
		c-0.01,0-0.01,0-0.02,0c-0.01,0-0.02,0-0.03,0c-0.01,0-0.01,0-0.02,0c-0.01,0-0.02,0-0.02,0c-0.01,0-0.01,0-0.02,0
		c-0.01,0-0.02,0-0.02,0c-0.01,0-0.01,0-0.02,0c-0.01,0-0.02,0-0.02,0c0,0-0.01,0-0.01,0c-0.01,0-0.02,0-0.03,0c0,0-0.01,0-0.01,0
		c-0.01,0-0.02,0-0.03,0c0,0-0.01,0-0.01,0c-0.01,0-0.02,0-0.03,0c-0.01,0-0.01,0-0.02,0c-0.01,0-0.02,0-0.03,0c0,0-0.01,0-0.01,0
		c-0.01,0-0.02,0-0.03,0c0,0-0.01,0-0.01,0c-0.01,0-0.02,0-0.03,0c0,0-0.01,0-0.01,0c-0.01,0-0.02,0-0.03,0c-0.01,0-0.01,0-0.02,0
		c-0.01,0-0.02,0-0.03,0c0,0-0.01,0-0.01,0c-0.01,0-0.02,0-0.03,0c-0.01,0-0.01,0-0.02,0c-0.01,0-0.02,0-0.02,0
		c-0.01,0-0.01,0-0.02,0c-0.01,0-0.02,0-0.02,0c-0.01,0-0.01,0-0.02,0c-0.01,0-0.02,0-0.03,0c0,0-0.01,0-0.01,0
		c-0.01,0-0.02,0-0.03,0c0,0-0.01,0-0.01,0c-0.01,0-0.03,0-0.04,0c0,0,0,0,0,0c-0.01,0-0.02,0-0.04,0c0,0-0.01,0-0.01,0
		c-0.01,0-0.02,0-0.03,0c0,0-0.01,0-0.02,0c-0.01,0-0.02,0-0.02,0c-0.01,0-0.01,0-0.02,0c-0.01,0-0.02,0-0.02,0
		c-0.01,0-0.01,0-0.02,0c-0.01,0-0.02,0-0.02,0c-0.01,0-0.01,0-0.02,0c-0.01,0-0.01,0-0.02,0c-0.01,0-0.01,0-0.02,0
		c-0.01,0-0.02,0-0.02,0c-0.01,0-0.01,0-0.02,0c-0.01,0-0.02,0-0.03,0c0,0-0.01,0-0.01,0c-0.01,0-0.02,0-0.03,0c0,0-0.01,0-0.02,0
		c-0.01,0-0.02,0-0.03,0c0,0-0.01,0-0.01,0c-0.01,0-0.03,0-0.04,0c-0.01,0-0.01,0-0.02,0c-0.01,0-0.02,0-0.03,0
		c-0.01,0-0.01,0-0.02,0c-0.01,0-0.01,0-0.02,0c-0.01,0-0.01,0-0.02,0c-0.01,0-0.01,0-0.02,0c-0.01,0-0.01,0-0.02,0
		c-0.01,0-0.02,0-0.02,0c-0.01,0-0.01,0-0.02,0c-0.01,0-0.02,0-0.03,0c-0.01,0-0.01,0-0.02,0c-0.01,0-0.02,0-0.02,0
		c-0.01,0-0.01,0-0.02,0c-0.01,0-0.02,0-0.02,0c-0.01,0-0.01,0-0.02,0c-0.01,0-0.02,0-0.02,0c0,0-0.01,0-0.02,0
		c-0.01,0-0.02,0-0.03,0c0,0-0.01,0-0.01,0c-0.01,0-0.02,0-0.03,0c-0.01,0-0.01,0-0.02,0c-0.01,0-0.02,0-0.03,0c0,0-0.01,0-0.01,0
		c-0.01,0-0.02,0-0.03,0c0,0-0.01,0-0.02,0c-0.01,0-0.02,0-0.02,0c0,0-0.01,0-0.02,0c-0.01,0-0.02,0-0.02,0c-0.01,0-0.01,0-0.02,0
		c-0.01,0-0.01,0-0.02,0c-0.01,0-0.01,0-0.02,0c-0.01,0-0.01,0-0.02,0c-0.01,0-0.01,0-0.02,0c-0.01,0-0.01,0-0.02,0
		c-0.01,0-0.01,0-0.02,0c-0.01,0-0.01,0-0.02,0c-0.01,0-0.01,0-0.02,0c-0.01,0-0.01,0-0.02,0c-0.01,0-0.01,0-0.02,0
		c-0.01,0-0.02,0-0.03,0c0,0-0.01,0-0.01,0c-0.01,0-0.03,0-0.04,0c0,0-0.01,0-0.01,0c-0.01,0-0.02,0-0.03,0c-0.01,0-0.01,0-0.02,0
		c-0.01,0-0.02,0-0.02,0c-0.01,0-0.01,0-0.02,0c-0.01,0-0.01,0-0.02,0c-0.01,0-0.01,0-0.02,0c-0.01,0-0.01,0-0.02,0
		c-0.01,0-0.01,0-0.02,0c-0.01,0-0.01,0-0.02,0c-0.01,0-0.01,0-0.02,0c-0.01,0-0.02,0-0.02,0c-0.01,0-0.01,0-0.02,0
		c-0.01,0-0.02,0-0.02,0c-0.01,0-0.01,0-0.02,0c-0.01,0-0.02,0-0.02,0c-0.01,0-0.01,0-0.02,0c-0.01,0-0.02,0-0.02,0
		c0,0-0.01,0-0.02,0c-0.01,0-0.02,0-0.03,0c0,0,0,0-0.01,0c-0.01,0-0.03,0-0.04,0c0,0-0.01,0-0.01,0c-0.01,0-0.02,0-0.03,0
		c0,0-0.01,0-0.01,0c-0.01,0-0.02,0-0.03,0c0,0-0.01,0-0.01,0c-0.01,0-0.02,0-0.03,0c-0.01,0-0.01,0-0.02,0c-0.01,0-0.02,0-0.02,0
		c-0.01,0-0.01,0-0.02,0c-0.01,0-0.02,0-0.02,0c-0.01,0-0.01,0-0.02,0c-0.01,0-0.02,0-0.02,0c-0.01,0-0.01,0-0.02,0
		c-0.01,0-0.02,0-0.02,0c-0.01,0-0.01,0-0.02,0c-0.01,0-0.02,0-0.02,0c-0.01,0-0.01,0-0.02,0c-0.01,0-0.02,0-0.03,0
		c0,0-0.01,0-0.01,0c-0.01,0-0.02,0-0.03,0c-0.01,0-0.01,0-0.02,0c-0.01,0-0.02,0-0.03,0c0,0-0.01,0-0.01,0c-0.01,0-0.02,0-0.03,0
		c-0.01,0-0.01,0-0.02,0c-0.01,0-0.02,0-0.02,0c0,0-0.01,0-0.02,0c-0.01,0-0.02,0-0.02,0c-0.01,0-0.01,0-0.02,0
		c-0.01,0-0.02,0-0.02,0c-0.01,0-0.01,0-0.02,0c-0.01,0-0.02,0-0.02,0c-0.01,0-0.01,0-0.02,0c-0.01,0-0.02,0-0.02,0
		c-0.01,0-0.01,0-0.02,0c-0.01,0-0.01,0-0.02,0c-0.01,0-0.01,0-0.02,0c-0.01,0-0.02,0-0.02,0c-0.01,0-0.01,0-0.02,0
		c-0.01,0-0.02,0-0.03,0c0,0-0.01,0-0.01,0c-0.01,0-0.03,0-0.04,0c0,0-0.01,0-0.01,0c-0.01,0-0.02,0-0.03,0c-0.01,0-0.01,0-0.02,0
		c-0.01,0-0.02,0-0.02,0c-0.01,0-0.01,0-0.02,0c-0.01,0-0.02,0-0.02,0c-0.01,0-0.01,0-0.02,0c-0.01,0-0.01,0-0.02,0
		c-0.01,0-0.01,0-0.02,0c-0.01,0-0.01,0-0.02,0c-0.01,0-0.01,0-0.02,0c-0.01,0-0.01,0-0.02,0c-0.01,0-0.01,0-0.02,0
		c-0.01,0-0.01,0-0.02,0c-0.01,0-0.01,0-0.02,0c-0.01,0-0.02,0-0.02,0c0,0-0.01,0-0.02,0c-0.01,0-0.02,0-0.03,0c0,0-0.01,0-0.01,0
		c-0.03,0-0.05,0-0.08,0c-0.01,0-0.01,0-0.02,0c-0.01,0-0.02,0-0.02,0c-0.01,0-0.01,0-0.02,0c-0.01,0-0.01,0-0.02,0
		c-0.01,0-0.01,0-0.02,0c-0.01,0-0.01,0-0.02,0c-0.01,0-0.01,0-0.02,0c-0.01,0-0.01,0-0.02,0c-0.01,0-0.01,0-0.02,0
		c-0.01,0-0.01,0-0.02,0c-0.01,0-0.01,0-0.02,0c-0.01,0-0.01,0-0.02,0c-0.01,0-0.01,0-0.02,0c-0.01,0-0.01,0-0.02,0
		c-0.01,0-0.01,0-0.02,0c-0.01,0-0.01,0-0.02,0c-0.01,0-0.01,0-0.02,0c-0.01,0-0.01,0-0.02,0c-0.01,0-0.02,0-0.02,0
		c0,0-0.01,0-0.01,0c-0.02,0-0.03,0-0.05,0c-0.01,0-0.01,0-0.02,0c-0.01,0-0.01,0-0.02,0c-0.01,0-0.02,0-0.02,0c0,0-0.01,0-0.02,0
		c-0.01,0-0.02,0-0.02,0c0,0-0.01,0-0.02,0c-0.01,0-0.02,0-0.02,0c-0.01,0-0.01,0-0.02,0c-0.01,0-0.01,0-0.02,0
		c-0.01,0-0.01,0-0.02,0c-0.01,0-0.01,0-0.02,0c-0.01,0-0.01,0-0.02,0c-0.01,0-0.01,0-0.02,0c-0.01,0-0.01,0-0.02,0
		c-0.01,0-0.01,0-0.02,0c-0.01,0-0.01,0-0.02,0c-0.01,0-0.01,0-0.02,0c-0.01,0-0.01,0-0.02,0c-0.01,0-0.02,0-0.03,0
		c0,0-0.01,0-0.01,0c-0.01,0-0.03,0-0.04,0c0,0-0.01,0-0.01,0c-0.01,0-0.02,0-0.03,0c-0.01,0-0.01,0-0.02,0c-0.01,0-0.02,0-0.02,0
		c-0.01,0-0.01,0-0.02,0c-0.01,0-0.02,0-0.02,0c-0.01,0-0.01,0-0.02,0c-0.01,0-0.01,0-0.02,0c-0.01,0-0.01,0-0.02,0
		c-0.01,0-0.01,0-0.02,0c-0.01,0-0.01,0-0.02,0c-0.01,0-0.01,0-0.02,0c-0.01,0-0.01,0-0.02,0c-0.01,0-0.01,0-0.02,0
		c-0.01,0-0.01,0-0.02,0c-0.01,0-0.02,0-0.03,0c0,0-0.01,0-0.01,0c-0.01,0-0.02,0-0.03,0c0,0-0.01,0-0.01,0c-0.01,0-0.02,0-0.03,0
		c0,0,0,0-0.01,0c-0.01,0-0.03,0-0.04,0c0,0-0.01,0-0.01,0c-0.01,0-0.02,0-0.03,0c-0.01,0-0.01,0-0.02,0c-0.01,0-0.01,0-0.02,0
		c-0.01,0-0.01,0-0.02,0c-0.01,0-0.01,0-0.02,0c-0.01,0-0.01,0-0.02,0c-0.01,0-0.02,0-0.02,0c-0.01,0-0.01,0-0.02,0
		c-0.01,0-0.02,0-0.02,0c-0.01,0-0.01,0-0.02,0c-0.01,0-0.01,0-0.02,0c-0.01,0-0.01,0-0.02,0c-0.01,0-0.01,0-0.02,0
		c-0.01,0-0.01,0-0.02,0c-0.01,0-0.02,0-0.02,0c-0.01,0-0.01,0-0.02,0c-0.01,0-0.01,0-0.02,0c-0.01,0-0.01,0-0.02,0
		c-0.01,0-0.01,0-0.02,0c-0.01,0-0.02,0-0.03,0c-0.01,0-0.02,0-0.03,0c0,0-0.01,0-0.01,0c-0.01,0-0.02,0-0.03,0
		c-0.01,0-0.01,0-0.02,0c-0.01,0-0.02,0-0.02,0c-0.01,0-0.01,0-0.02,0c-0.01,0-0.02,0-0.02,0c-0.01,0-0.01,0-0.02,0
		c-0.01,0-0.01,0-0.02,0c-0.01,0-0.01,0-0.02,0c-0.01,0-0.01,0-0.02,0c-0.01,0-0.01,0-0.02,0c-0.01,0-0.01,0-0.02,0
		c-0.01,0-0.01,0-0.02,0c-0.01,0-0.01,0-0.02,0c-0.01,0-0.01,0-0.02,0c-0.01,0-0.02,0-0.02,0c-0.01,0-0.01,0-0.02,0
		c-0.01,0-0.02,0-0.03,0c0,0-0.01,0-0.01,0c-0.01,0-0.03,0-0.04,0c0,0-0.01,0-0.01,0c-0.01,0-0.02,0-0.03,0c-0.01,0-0.01,0-0.02,0
		c-0.01,0-0.01,0-0.02,0c-0.01,0-0.01,0-0.02,0c-0.01,0-0.01,0-0.02,0c-0.01,0-0.01,0-0.02,0c-0.01,0-0.01,0-0.02,0
		c-0.01,0-0.01,0-0.02,0c-0.01,0-0.01,0-0.02,0c-0.01,0-0.01,0-0.02,0c-0.01,0-0.01,0-0.02,0c-0.01,0-0.01,0-0.02,0
		c-0.01,0-0.01,0-0.02,0c-0.01,0-0.01,0-0.02,0c-0.01,0-0.01,0-0.02,0c-0.01,0-0.01,0-0.02,0c-0.01,0-0.02,0-0.02,0
		c-0.01,0-0.01,0-0.02,0c-0.01,0-0.02,0-0.02,0c-0.01,0-0.02,0-0.03,0c-0.01,0-0.02,0-0.03,0c-0.01,0-0.01,0-0.02,0
		c-0.01,0-0.01,0-0.02,0c-0.01,0-0.01,0-0.02,0c-0.01,0-0.01,0-0.02,0c-0.01,0-0.02,0-0.02,0c-0.01,0-0.01,0-0.02,0
		c-0.01,0-0.01,0-0.02,0c-0.01,0-0.01,0-0.02,0c-0.01,0-0.01,0-0.02,0c-0.01,0-0.01,0-0.02,0c-0.01,0-0.01,0-0.02,0
		c-0.01,0-0.01,0-0.02,0c-0.01,0-0.01,0-0.02,0c-0.01,0-0.01,0-0.02,0c-0.01,0-0.01,0-0.02,0c-0.01,0-0.01,0-0.02,0
		c-0.01,0-0.01,0-0.02,0c-0.01,0-0.01,0-0.02,0c-0.01,0-0.01,0-0.02,0c0,0,0,0,0,0c-0.02,0-0.04,0-0.06,0.01c0,0-0.01,0-0.01,0
		c-0.01,0-0.01,0-0.02,0c-0.01,0-0.01,0-0.02,0c-0.01,0-0.01,0-0.02,0c-0.01,0-0.01,0-0.02,0c-0.01,0-0.01,0-0.02,0
		c-0.01,0-0.01,0-0.02,0c-0.01,0-0.01,0-0.02,0c-0.01,0-0.01,0-0.02,0c-0.01,0-0.01,0-0.02,0c-0.01,0-0.02,0-0.02,0
		c-0.01,0-0.01,0-0.02,0c-0.01,0-0.01,0-0.02,0c-0.01,0-0.01,0-0.02,0c-0.01,0-0.01,0-0.02,0c-0.01,0-0.01,0-0.02,0
		c-0.01,0-0.01,0-0.02,0c-0.01,0-0.01,0-0.02,0c-0.01,0-0.01,0-0.02,0c-0.01,0-0.02,0-0.03,0c-0.01,0-0.02,0-0.03,0
		c-0.01,0-0.01,0-0.02,0c-0.01,0-0.01,0-0.02,0c-0.01,0-0.01,0-0.02,0c-0.01,0-0.01,0-0.02,0c-0.01,0-0.01,0-0.02,0
		c-0.01,0-0.01,0-0.02,0c-0.01,0-0.01,0-0.02,0c-0.01,0-0.01,0-0.02,0c-0.01,0-0.01,0-0.02,0c-0.01,0-0.01,0-0.02,0
		c-0.01,0-0.02,0-0.02,0c-0.01,0-0.01,0-0.02,0c-0.01,0-0.02,0-0.02,0c-0.01,0-0.01,0-0.02,0c-0.01,0-0.02,0-0.02,0
		c-0.01,0-0.01,0-0.02,0c-0.01,0-0.02,0-0.02,0c-0.01,0-0.01,0-0.02,0c-0.01,0-0.02,0-0.02,0c-0.01,0-0.01,0-0.02,0
		c-0.01,0-0.03,0-0.04,0c-0.01,0-0.01,0-0.02,0c-0.01,0-0.02,0-0.02,0c-0.01,0-0.01,0-0.02,0c-0.01,0-0.02,0-0.02,0
		c-0.01,0-0.01,0-0.02,0c-0.01,0-0.02,0-0.02,0c-0.01,0-0.01,0-0.02,0c-0.01,0-0.01,0-0.02,0c-0.01,0-0.01,0-0.02,0
		c-0.01,0-0.01,0-0.02,0c-0.01,0-0.01,0-0.02,0c-0.01,0-0.01,0-0.02,0c-0.01,0-0.01,0-0.02,0c-0.01,0-0.01,0-0.02,0
		c-0.01,0-0.01,0-0.02,0c-0.01,0-0.01,0-0.02,0c-0.01,0-0.01,0-0.02,0c-0.01,0-0.02,0-0.02,0c0,0-0.01,0-0.01,0
		c-0.03,0-0.07,0.01-0.1,0.01c0,0,0,0-0.01,0c-0.01,0-0.02,0-0.02,0c-0.01,0-0.01,0-0.02,0c-0.01,0-0.01,0-0.02,0
		c-0.01,0-0.01,0-0.02,0c-0.01,0-0.01,0-0.02,0c-0.01,0-0.01,0-0.02,0c-0.01,0-0.01,0-0.02,0c-0.01,0-0.01,0-0.02,0
		c-0.01,0-0.01,0-0.02,0c-0.01,0-0.01,0-0.02,0c-0.01,0-0.01,0-0.02,0c-0.01,0-0.01,0-0.02,0c-0.01,0-0.01,0-0.02,0
		c-0.01,0-0.01,0-0.02,0c-0.01,0-0.01,0-0.02,0c-0.01,0-0.01,0-0.02,0c-0.01,0-0.02,0-0.02,0c-0.01,0-0.01,0-0.02,0
		c-0.01,0-0.01,0-0.02,0c-0.01,0-0.03,0-0.04,0c-0.01,0-0.02,0-0.02,0c-0.01,0-0.01,0-0.02,0c-0.01,0-0.01,0-0.02,0
		c-0.01,0-0.01,0-0.02,0c-0.01,0-0.01,0-0.02,0c-0.01,0-0.01,0-0.02,0c-0.01,0-0.02,0-0.02,0c-0.01,0-0.01,0-0.02,0
		c-0.01,0-0.02,0-0.02,0c-0.01,0-0.01,0-0.02,0c-0.01,0-0.02,0-0.02,0c-0.01,0-0.01,0-0.02,0c-0.01,0-0.02,0-0.02,0
		c-0.01,0-0.01,0-0.02,0c-0.01,0-0.02,0-0.02,0c0,0-0.01,0-0.01,0c-0.01,0-0.02,0-0.03,0c0,0-0.01,0-0.01,0
		c-0.04,0.01-0.09,0.01-0.13,0.02c0,0-0.01,0-0.01,0c-0.01,0-0.02,0-0.03,0c0,0-0.01,0-0.01,0c-0.01,0-0.02,0-0.02,0
		c-0.01,0-0.01,0-0.02,0c-0.01,0-0.02,0-0.02,0c0,0-0.01,0-0.01,0c-0.01,0-0.02,0-0.03,0c-0.01,0-0.01,0-0.01,0
		c-0.01,0-0.02,0-0.03,0c0,0-0.01,0-0.01,0c-0.01,0-0.02,0-0.03,0c0,0-0.01,0-0.01,0c-0.01,0-0.02,0-0.03,0c0,0-0.01,0-0.01,0
		c-0.01,0-0.02,0-0.03,0c0,0,0,0,0,0c-0.04,0-0.07,0.01-0.11,0.01c0,0,0,0-0.01,0c-0.01,0-0.02,0-0.03,0c0,0-0.01,0-0.01,0
		c-0.01,0-0.02,0-0.03,0c0,0-0.01,0-0.01,0c-0.01,0-0.02,0-0.03,0c0,0-0.01,0-0.01,0c-0.01,0-0.02,0-0.03,0c0,0-0.01,0-0.02,0
		c-0.01,0-0.02,0-0.02,0c-0.01,0-0.01,0-0.02,0c-0.01,0-0.02,0-0.02,0c-0.01,0-0.01,0-0.02,0c-0.01,0-0.02,0-0.02,0
		c-0.01,0-0.01,0-0.01,0c-0.01,0-0.02,0-0.03,0c0,0-0.01,0-0.01,0c-0.01,0-0.02,0-0.03,0c0,0-0.01,0-0.01,0
		c-0.03,0-0.07,0.01-0.1,0.01c0,0,0,0-0.01,0c-0.01,0-0.02,0-0.03,0c0,0-0.01,0-0.01,0c-0.01,0-0.02,0-0.03,0c0,0-0.01,0-0.01,0
		c-0.01,0-0.02,0-0.03,0c0,0-0.01,0-0.01,0c-0.01,0-0.02,0-0.03,0c0,0-0.01,0-0.01,0c-0.01,0-0.02,0-0.03,0c0,0-0.01,0-0.01,0
		c-0.01,0-0.02,0-0.03,0c0,0-0.01,0-0.01,0c-0.01,0-0.02,0-0.03,0c0,0-0.01,0-0.01,0c-0.01,0-0.02,0-0.03,0l0,0
		c-0.04,0.01-0.07,0.01-0.11,0.02c0,0,0,0,0,0c-0.01,0-0.02,0-0.03,0c0,0-0.01,0-0.01,0c-0.01,0-0.02,0-0.03,0c0,0-0.01,0-0.01,0
		c-0.01,0-0.02,0-0.03,0c0,0-0.01,0-0.01,0c-0.01,0-0.02,0-0.03,0c0,0-0.01,0-0.01,0c-0.01,0-0.02,0-0.03,0c0,0-0.01,0-0.01,0
		c-0.01,0-0.02,0-0.03,0c0,0-0.01,0-0.01,0c-0.01,0-0.02,0-0.03,0c0,0-0.01,0-0.01,0c-0.01,0-0.02,0-0.03,0c0,0-0.01,0-0.01,0
		c-0.01,0-0.02,0-0.03,0l0,0c-0.05,0.01-0.1,0.01-0.15,0.02c0,0,0,0-0.01,0c-0.01,0-0.02,0-0.03,0c0,0-0.01,0-0.01,0
		c-0.01,0-0.02,0-0.03,0c0,0-0.01,0-0.01,0c-0.01,0-0.02,0-0.03,0c0,0-0.01,0-0.02,0c-0.01,0-0.02,0-0.02,0c0,0-0.01,0-0.01,0
		c-0.01,0-0.02,0-0.03,0c0,0-0.01,0-0.01,0c-0.01,0-0.02,0-0.03,0c0,0-0.01,0-0.01,0c-0.01,0-0.02,0-0.03,0c0,0,0,0-0.01,0
		c-0.06,0.01-0.12,0.02-0.18,0.03c0,0-0.01,0-0.01,0c-0.01,0-0.02,0-0.03,0c0,0-0.01,0-0.01,0c-0.01,0-0.02,0-0.03,0
		c0,0-0.01,0-0.01,0c-0.01,0-0.02,0-0.03,0c0,0-0.01,0-0.01,0c-0.01,0-0.02,0-0.03,0c0,0-0.01,0-0.01,0c-0.01,0-0.02,0-0.03,0
		c0,0-0.01,0-0.01,0c-0.01,0-0.02,0-0.03,0c0,0,0,0-0.01,0c-0.01,0-0.02,0-0.03,0c0,0,0,0-0.01,0c-0.05,0.01-0.1,0.01-0.14,0.02
		c0,0,0,0-0.01,0c-0.01,0-0.02,0-0.03,0.01c0,0,0,0,0,0c-0.01,0-0.02,0-0.03,0.01c0,0-0.01,0-0.01,0c-0.01,0-0.02,0-0.03,0
		c0,0-0.01,0-0.01,0c-0.01,0-0.02,0-0.03,0c0,0-0.01,0-0.01,0c-0.01,0-0.02,0-0.03,0c0,0,0,0-0.01,0c-0.01,0-0.02,0-0.03,0.01
		c0,0,0,0,0,0c-0.07,0.01-0.15,0.02-0.22,0.04c0,0,0,0,0,0c-0.01,0-0.02,0-0.03,0.01c0,0,0,0-0.01,0c-0.01,0-0.02,0-0.03,0.01
		c0,0,0,0-0.01,0c-0.01,0-0.02,0-0.03,0.01c0,0-0.01,0-0.01,0c-0.01,0-0.02,0-0.03,0c0,0-0.01,0-0.01,0c-0.01,0-0.02,0-0.03,0.01
		c0,0,0,0-0.01,0c-0.01,0-0.02,0-0.03,0.01c0,0,0,0,0,0c-0.07,0.01-0.15,0.02-0.22,0.04l0,0c-0.01,0-0.02,0-0.04,0.01c0,0,0,0,0,0
		c-0.01,0-0.02,0-0.03,0.01c0,0,0,0-0.01,0c-0.01,0-0.02,0-0.03,0.01c0,0,0,0-0.01,0c-0.01,0-0.02,0-0.03,0.01c0,0,0,0-0.01,0
		c-0.01,0-0.02,0-0.03,0.01c0,0,0,0,0,0c-0.01,0-0.02,0-0.04,0.01l0,0c-0.08,0.01-0.15,0.03-0.23,0.04c0,0,0,0,0,0
		c-0.01,0-0.02,0-0.03,0.01c0,0,0,0,0,0c-0.01,0-0.02,0-0.03,0.01c0,0,0,0-0.01,0c-0.01,0-0.02,0-0.03,0.01c0,0,0,0-0.01,0
		c-0.01,0-0.02,0-0.03,0.01c0,0,0,0-0.01,0c-0.01,0-0.02,0-0.03,0.01c0,0,0,0,0,0c-0.09,0.02-0.18,0.03-0.26,0.05l0,0
		c-0.01,0-0.02,0-0.04,0.01c0,0,0,0,0,0c-0.01,0-0.02,0-0.03,0.01c0,0,0,0,0,0c-0.01,0-0.02,0-0.03,0.01c0,0,0,0,0,0
		c-0.01,0-0.02,0-0.04,0.01c0,0,0,0,0,0c-0.1,0.02-0.2,0.04-0.3,0.06l0,0c-0.01,0-0.02,0-0.04,0.01c0,0,0,0,0,0
		c-0.16,0.03-0.33,0.06-0.49,0.09l0,0c-7.73,1.49-15.37,4.1-22.68,7.88l3.68,7.1c10.73-5.56,22.77-8.49,34.81-8.49V456.99
		L959.92,456.99L959.92,456.99z M891.5,492.34c-5.4,7.61-9.45,16.02-12.06,24.85c0,0,0,0,0,0c-0.01,0.04-0.02,0.08-0.04,0.12l0,0
		c0,0.01-0.01,0.02-0.01,0.03c0,0,0,0,0,0c0,0.01-0.01,0.02-0.01,0.03c0,0,0,0,0,0c-0.01,0.04-0.02,0.08-0.03,0.12c0,0,0,0,0,0
		c0,0.01,0,0.02-0.01,0.03c0,0,0,0,0,0c0,0.01-0.01,0.02-0.01,0.03v0c-0.01,0.04-0.02,0.08-0.03,0.12c0,0,0,0,0,0.01
		c0,0.01,0,0.02-0.01,0.03c0,0,0,0,0,0c-0.01,0.03-0.02,0.06-0.02,0.08c0,0,0,0.01,0,0.01c0,0.01,0,0.02-0.01,0.02
		c0,0,0,0.01,0,0.01c0,0.01,0,0.02-0.01,0.02c0,0,0,0,0,0.01c-0.01,0.03-0.02,0.06-0.02,0.09c0,0,0,0,0,0c0,0.01,0,0.02-0.01,0.02
		c0,0,0,0.01,0,0.01c0,0.01,0,0.02-0.01,0.02c0,0,0,0.01,0,0.01c0,0.01,0,0.02-0.01,0.02c0,0,0,0,0,0
		c-0.01,0.02-0.01,0.04-0.02,0.05c0,0,0,0,0,0c0,0.01,0,0.02-0.01,0.02c0,0,0,0.01,0,0.01c0,0.01,0,0.02-0.01,0.02
		c0,0,0,0.01,0,0.01c0,0.01,0,0.02-0.01,0.02l0,0c-0.01,0.02-0.01,0.04-0.02,0.06c0,0,0,0,0,0c0,0.01,0,0.01-0.01,0.02
		c0,0,0,0.01,0,0.01c0,0.01,0,0.02-0.01,0.02c0,0,0,0.01,0,0.01c0,0.01,0,0.01-0.01,0.02c0,0,0,0.01,0,0.01
		c-0.01,0.03-0.01,0.05-0.02,0.08c0,0,0,0.01,0,0.01c0,0.01,0,0.01-0.01,0.02c0,0,0,0.01,0,0.01c0,0.01,0,0.01-0.01,0.02
		c0,0,0,0.01,0,0.01c0,0.01,0,0.01-0.01,0.02c0,0,0,0.01,0,0.01c0,0.01-0.01,0.03-0.01,0.04c0,0,0,0.01,0,0.02
		c0,0.01,0,0.01-0.01,0.02c0,0,0,0.01,0,0.02c0,0.01,0,0.01-0.01,0.02c0,0.01,0,0.01,0,0.02c0,0.01,0,0.01,0,0.02
		c0,0.01,0,0.01-0.01,0.02c0,0.01,0,0.02-0.01,0.03c0,0.01,0,0.01,0,0.02c0,0.01,0,0.01,0,0.02c0,0.01,0,0.01,0,0.02
		c0,0.01,0,0.01-0.01,0.02c0,0.01,0,0.01,0,0.02c0,0.01,0,0.01,0,0.02c0,0.01,0,0.01-0.01,0.02c0,0.01,0,0.01-0.01,0.02
		c0,0.01,0,0.02-0.01,0.02c0,0.01,0,0.01,0,0.01c0,0.01,0,0.01,0,0.02c0,0.01,0,0.01,0,0.02c0,0.01,0,0.01-0.01,0.02
		c0,0,0,0.01,0,0.01c0,0.01,0,0.02-0.01,0.03c0,0,0,0.01,0,0.01c0,0.01-0.01,0.02-0.01,0.03c0,0.01,0,0.01,0,0.01
		c0,0.01,0,0.02-0.01,0.02c0,0.01,0,0.01,0,0.01c0,0.01,0,0.02-0.01,0.02c0,0,0,0.01,0,0.01c0,0.01-0.01,0.02-0.01,0.03
		c0,0,0,0,0,0.01c0,0.01-0.01,0.02-0.01,0.04c0,0,0,0,0,0c0,0.01-0.01,0.02-0.01,0.03c0,0,0,0.01,0,0.01c0,0.01,0,0.02-0.01,0.03
		c0,0,0,0.01,0,0.01c0,0.01,0,0.02-0.01,0.03c0,0.01,0,0,0,0.01c0,0.01-0.01,0.02-0.01,0.03c0,0,0,0,0,0c0,0.01-0.01,0.02-0.01,0.03
		c0,0,0,0.01,0,0.01c0,0.01,0,0.01-0.01,0.02c0,0.01,0,0.01,0,0.01c0,0.01,0,0.02-0.01,0.03c0,0,0,0.01,0,0.01
		c-0.01,0.02-0.01,0.05-0.02,0.07c0,0,0,0.01,0,0.01c0,0.01,0,0.02-0.01,0.03c0,0.01,0,0,0,0.01c0,0.01,0,0.02-0.01,0.03
		c0,0,0,0,0,0.01c-0.01,0.02-0.01,0.05-0.02,0.07c0,0,0,0,0,0.01c0,0.01,0,0.02-0.01,0.03c0,0,0,0,0,0.01
		c0,0.01-0.01,0.02-0.01,0.03c0,0,0,0,0,0.01c-0.01,0.02-0.01,0.05-0.02,0.07c0,0,0,0,0,0c0,0.01-0.01,0.02-0.01,0.03
		c0,0,0,0,0,0.01c0,0.01-0.01,0.02-0.01,0.03c0,0,0,0,0,0.01c0,0.01-0.01,0.02-0.01,0.03l0,0c-0.01,0.02-0.01,0.05-0.02,0.07
		c0,0,0,0,0,0.01c0,0.01-0.01,0.02-0.01,0.03c0,0,0,0,0,0.01c0,0.01-0.01,0.02-0.01,0.03l0,0c-0.01,0.04-0.02,0.07-0.03,0.11l0,0
		c-0.01,0.05-0.03,0.1-0.04,0.15l0,0c0,0.01-0.01,0.02-0.01,0.04v0c-0.01,0.04-0.02,0.08-0.03,0.11c0,0,0,0,0,0
		c0,0.01-0.01,0.02-0.01,0.04c0,0,0,0,0,0c-0.71,2.83-1.28,5.7-1.69,8.6l7.92,1.13c1.71-11.97,6.3-23.49,13.27-33.32L891.5,492.34
		L891.5,492.34z M888.2,565.96l-7.55,2.64c0.38,1.09,0.79,2.18,1.22,3.27l0,0c0,0.01,0.01,0.02,0.01,0.03l0,0
		c0,0.01,0.01,0.02,0.01,0.02c0,0,0,0,0,0c0,0.01,0.01,0.02,0.01,0.02l0,0c0,0.01,0.01,0.02,0.01,0.02c0,0.01,0,0,0,0.01
		c0,0.01,0.01,0.01,0.01,0.02c0,0,0,0.01,0,0.01c0,0.01,0.01,0.01,0.01,0.02c0,0,0,0.01,0,0.01c0,0.01,0.01,0.01,0.01,0.02
		c0,0,0,0.01,0,0.01c0,0.01,0.01,0.01,0.01,0.02c0,0,0,0.01,0,0.01c0,0.01,0.01,0.01,0.01,0.02l0,0.01c0,0.01,0.01,0.02,0.01,0.02
		c0,0.01,0,0.01,0,0.01c0,0.01,0.01,0.02,0.01,0.03c0,0.01,0,0.01,0.01,0.01c0,0,0,0.01,0,0.01c0,0.01,0,0.01,0.01,0.02
		c0,0,0,0.01,0,0.01c0,0.01,0.01,0.01,0.01,0.02c0,0,0,0.01,0,0.01c0,0.01,0.01,0.01,0.01,0.02c0,0,0,0.01,0.01,0.01
		c0,0.01,0,0.01,0.01,0.02c0,0,0,0.01,0.01,0.01c0,0.01,0,0.01,0.01,0.02c0,0,0,0.01,0.01,0.01c0,0.01,0,0.01,0.01,0.02
		c0,0,0,0.01,0.01,0.01c0,0.01,0,0.01,0.01,0.01c0,0.01,0,0.01,0.01,0.02c0,0.01,0,0.01,0.01,0.02c0,0,0,0.01,0.01,0.01
		c0,0.01,0.01,0.01,0.01,0.02c0,0,0,0.01,0,0.01c0,0.01,0.01,0.02,0.01,0.02c0,0,0,0,0,0.01c0,0.01,0.01,0.02,0.01,0.03c0,0,0,0,0,0
		c0.01,0.03,0.02,0.06,0.04,0.09c0,0,0,0,0,0c0,0.01,0.01,0.02,0.01,0.03c0,0,0,0,0,0.01c0,0.01,0.01,0.02,0.01,0.02c0,0,0,0,0,0
		c0,0.01,0.01,0.02,0.01,0.03c0,0,0,0,0,0c0,0.01,0.01,0.02,0.01,0.03c0,0,0,0,0,0c0,0.01,0.01,0.01,0.01,0.02c0,0,0,0,0,0.01
		c0,0.01,0.01,0.02,0.01,0.03c0,0,0,0,0,0c0,0.01,0.01,0.02,0.01,0.03c0,0,0,0,0,0c0,0.01,0.01,0.02,0.01,0.03c0,0,0,0,0,0
		c0,0.01,0.01,0.02,0.01,0.03c0,0,0,0,0,0c0.03,0.06,0.05,0.12,0.08,0.18l0,0c0.01,0.02,0.02,0.04,0.02,0.06c0,0,0,0,0,0
		c0.01,0.02,0.02,0.04,0.02,0.06c0,0,0,0,0,0c1.18,2.83,2.52,5.62,4.04,8.37c0,0,0,0,0,0c0.01,0.02,0.02,0.04,0.03,0.06c0,0,0,0,0,0
		c0.01,0.02,0.02,0.04,0.03,0.06c0,0,0,0,0,0c0.04,0.08,0.09,0.16,0.13,0.24c0,0,0,0,0,0c0.01,0.01,0.01,0.02,0.02,0.03c0,0,0,0,0,0
		c0.01,0.01,0.01,0.02,0.01,0.03c0,0,0,0,0,0c0.01,0.01,0.01,0.02,0.01,0.03c0,0,0,0,0,0c0.01,0.01,0.01,0.01,0.01,0.02
		c0,0,0,0,0,0.01c0.01,0.01,0.01,0.02,0.01,0.03c0,0,0,0,0,0c0.04,0.07,0.08,0.14,0.12,0.21c0,0,0,0,0,0
		c0.01,0.01,0.01,0.02,0.02,0.03l0,0c0.01,0.01,0.01,0.02,0.02,0.03c0,0,0,0,0,0c0.01,0.01,0.01,0.02,0.01,0.03c0,0,0,0,0,0
		c0.01,0.01,0.01,0.01,0.01,0.02c0,0,0,0,0,0.01c0.01,0.01,0.01,0.01,0.01,0.02c0,0,0,0,0,0.01c0,0.01,0.01,0.01,0.01,0.02
		c0,0,0,0.01,0,0.01c0,0.01,0.01,0.02,0.01,0.02c0,0,0,0,0,0.01c0,0.01,0.01,0.02,0.01,0.02c0,0,0,0,0,0.01
		c0.02,0.04,0.04,0.08,0.07,0.12c0,0,0,0,0,0c0.01,0.01,0.01,0.02,0.02,0.03c0,0,0,0,0,0c0.01,0.01,0.01,0.02,0.01,0.03
		c0,0,0,0.01,0,0.01c0,0.01,0.01,0.01,0.01,0.02c0,0,0,0.01,0.01,0.01c0,0,0.01,0.01,0.01,0.02c0,0,0,0.01,0.01,0.01
		c0,0,0.01,0.01,0.01,0.02c0,0,0,0.01,0.01,0.01c0,0,0.01,0.01,0.01,0.02c0,0,0,0.01,0.01,0.01c0,0,0.01,0.02,0.01,0.02
		c0,0,0,0.01,0,0.01c0,0.01,0.01,0.01,0.01,0.02c0,0,0,0.01,0.01,0.01c0,0.01,0.01,0.01,0.01,0.02c0,0,0,0.01,0,0.01
		c0,0.01,0.01,0.01,0.01,0.02c0,0,0,0,0,0.01c0.01,0.01,0.01,0.02,0.02,0.03c0,0,0,0,0,0c0.01,0.01,0.01,0.02,0.02,0.03l0,0
		c0.01,0.01,0.02,0.03,0.02,0.04c0,0,0,0.01,0.01,0.01c0.01,0.01,0.01,0.02,0.02,0.03c0,0,0.01,0.01,0.01,0.01
		c0.01,0.01,0.01,0.02,0.02,0.03c0,0,0,0.01,0.01,0.01c0.01,0.01,0.01,0.02,0.02,0.03c0,0,0.01,0.01,0.01,0.01
		c0.01,0.01,0.01,0.02,0.02,0.03c0,0,0.01,0.01,0.01,0.01c0.01,0.01,0.01,0.02,0.02,0.03c0,0,0,0.01,0.01,0.01
		c0.01,0.01,0.01,0.02,0.02,0.03c0,0,0,0.01,0.01,0.01c0.01,0.01,0.01,0.02,0.02,0.03c0,0,0.01,0.01,0.01,0.01
		c0.01,0.01,0.01,0.02,0.02,0.03c0,0,0,0.01,0.01,0.01c0.01,0.01,0.01,0.02,0.02,0.03c0,0,0,0.01,0.01,0.01
		c0.01,0.01,0.01,0.02,0.02,0.03c0,0,0,0,0,0.01c0.01,0.01,0.01,0.02,0.02,0.03c0,0,0,0.01,0,0.01c0.01,0.01,0.02,0.03,0.02,0.04v0
		c0.06,0.1,0.11,0.19,0.17,0.29l0,0c0.02,0.03,0.03,0.05,0.05,0.08l0,0c0.01,0.01,0.02,0.03,0.02,0.04c0,0,0,0,0,0
		c0.01,0.01,0.02,0.03,0.02,0.04l0,0c0.01,0.01,0.02,0.03,0.02,0.04c0,0,0,0,0,0c0.01,0.01,0.02,0.03,0.02,0.04l0,0
		c2.47,4.14,5.25,8,8.29,11.55c0,0,0,0,0,0c0.01,0.01,0.02,0.02,0.03,0.03l0,0c0.01,0.01,0.02,0.02,0.03,0.03c0,0,0,0,0,0
		c0.12,0.14,0.24,0.28,0.36,0.42c0,0,0,0,0,0c0.01,0.01,0.02,0.02,0.03,0.03c0,0,0,0,0,0c0.01,0.01,0.02,0.02,0.03,0.03c0,0,0,0,0,0
		c0.01,0.01,0.02,0.02,0.03,0.03c0,0,0,0,0,0c0.01,0.01,0.02,0.02,0.03,0.03c0,0,0,0,0,0.01c0.01,0.01,0.02,0.02,0.03,0.03
		c0,0,0,0,0,0c0.01,0.01,0.02,0.02,0.03,0.03c0,0,0,0,0,0c0.08,0.09,0.16,0.19,0.25,0.28l0,0c0.01,0.01,0.02,0.02,0.03,0.03
		c0,0,0,0,0.01,0.01c0.01,0.01,0.02,0.02,0.02,0.03c0,0,0,0,0.01,0.01c0.01,0.01,0.02,0.02,0.02,0.03c0,0,0,0,0.01,0.01
		c0.01,0.01,0.02,0.02,0.03,0.03c0,0,0,0,0.01,0.01c0.01,0.01,0.02,0.02,0.02,0.03c0,0,0,0,0.01,0.01c0.01,0.01,0.02,0.02,0.02,0.03
		c0,0,0,0.01,0.01,0.01c0.01,0.01,0.02,0.02,0.03,0.03c0,0,0,0,0,0c0.01,0.01,0.02,0.02,0.03,0.03c0,0,0,0,0,0
		c0.01,0.01,0.02,0.02,0.03,0.03l0,0c0.01,0.01,0.02,0.02,0.03,0.03c0,0,0,0,0,0c0.04,0.05,0.08,0.09,0.12,0.14l0,0
		c0.01,0.01,0.02,0.02,0.03,0.03c0,0,0,0,0,0c0.01,0.01,0.02,0.02,0.03,0.03c0,0,0,0,0.01,0.01c0.01,0.01,0.02,0.02,0.03,0.03
		c0,0,0,0.01,0.01,0.01c0.01,0.01,0.02,0.02,0.02,0.03c0,0,0.01,0.01,0.01,0.01c0.01,0.01,0.01,0.02,0.02,0.02
		c0,0,0.01,0.01,0.01,0.01c0.01,0.01,0.01,0.02,0.02,0.02c0,0,0.01,0.01,0.01,0.01c0.01,0.01,0.01,0.02,0.02,0.02
		c0,0,0.01,0.01,0.01,0.01c0.01,0.01,0.01,0.02,0.02,0.02c0,0,0.01,0.01,0.01,0.01c0.01,0.01,0.01,0.02,0.02,0.02
		c0,0,0.01,0.01,0.01,0.01c0.01,0.01,0.01,0.02,0.02,0.02c0,0,0.01,0.01,0.01,0.01c0.01,0.01,0.01,0.02,0.02,0.02
		c0,0,0.01,0.01,0.01,0.01c0.01,0.01,0.01,0.02,0.02,0.02c0,0,0.01,0.01,0.01,0.01c0.01,0.01,0.02,0.02,0.02,0.03
		c0,0,0.01,0.01,0.01,0.01c0.01,0.01,0.02,0.02,0.03,0.03c0,0,0,0,0,0c0.02,0.02,0.04,0.04,0.06,0.07c0,0,0.01,0.01,0.01,0.01
		c0.01,0.01,0.01,0.02,0.02,0.02c0,0,0.01,0.01,0.01,0.01c0.01,0.01,0.01,0.01,0.02,0.02c0,0,0.01,0.01,0.01,0.01
		c0.01,0.01,0.01,0.01,0.02,0.02c0,0,0.01,0.01,0.01,0.01c0.01,0.01,0.01,0.01,0.02,0.02c0,0,0.01,0.01,0.01,0.01
		c0.01,0.01,0.01,0.01,0.02,0.02c0,0,0.01,0.01,0.01,0.01c0.01,0.01,0.01,0.01,0.02,0.02c0,0,0.01,0.01,0.01,0.01
		c0.01,0.01,0.01,0.01,0.02,0.02c0,0,0.01,0.01,0.01,0.01c0.01,0.01,0.01,0.01,0.02,0.02c0,0,0.01,0.01,0.01,0.01
		c0.01,0.01,0.01,0.01,0.02,0.02c0,0,0.01,0.01,0.01,0.01c0.01,0.01,0.01,0.01,0.02,0.02c0,0,0.01,0.01,0.01,0.01
		c0.01,0.01,0.01,0.02,0.02,0.02c0,0,0.01,0.01,0.01,0.01c0.01,0.01,0.01,0.01,0.02,0.02c0,0,0.01,0.01,0.01,0.01
		c0.01,0.01,0.01,0.01,0.02,0.02c0,0,0.01,0.01,0.01,0.01c0.01,0.01,0.02,0.02,0.02,0.03c0,0,0,0,0.01,0.01
		c0.02,0.02,0.04,0.04,0.06,0.07c0,0.01,0.01,0.01,0.01,0.01c0.01,0.01,0.01,0.01,0.02,0.02c0,0,0.01,0.01,0.01,0.01
		c0.01,0.01,0.01,0.01,0.02,0.02c0,0,0.01,0.01,0.01,0.01c0.01,0.01,0.01,0.01,0.02,0.02c0.01,0.01,0.01,0.01,0.01,0.01
		c0.01,0.01,0.01,0.01,0.02,0.02c0,0.01,0.01,0.01,0.01,0.01c0.01,0.01,0.01,0.01,0.02,0.02c0,0,0.01,0.01,0.01,0.01
		c0.01,0.01,0.01,0.01,0.02,0.02c0,0,0.01,0.01,0.01,0.01c0.01,0.01,0.01,0.01,0.02,0.02c0,0,0.01,0.01,0.01,0.01
		c0.01,0.01,0.01,0.01,0.02,0.02c0,0,0.01,0.01,0.01,0.01c0.01,0.01,0.01,0.01,0.02,0.02c0,0.01,0.01,0.01,0.01,0.01
		c0.01,0.01,0.01,0.01,0.02,0.02c0.01,0.01,0.01,0.01,0.01,0.01c0.01,0.01,0.01,0.01,0.02,0.02c0,0,0.01,0.01,0.01,0.01
		c0.01,0.01,0.01,0.01,0.02,0.02c0,0,0.01,0.01,0.01,0.01c0.01,0.01,0.01,0.01,0.02,0.02c0.01,0.01,0.01,0.01,0.01,0.01
		c0.01,0.01,0.02,0.02,0.03,0.03c0,0,0,0,0.01,0.01c0.01,0.01,0.02,0.02,0.03,0.03c0,0,0.01,0.01,0.01,0.01
		c0.01,0.01,0.01,0.01,0.02,0.02c0.01,0.01,0.01,0.01,0.02,0.02c0.01,0.01,0.01,0.01,0.02,0.02c0,0,0.01,0.01,0.01,0.01
		c0.01,0.01,0.01,0.01,0.02,0.02c0,0,0.01,0.01,0.01,0.01c0.01,0.01,0.01,0.01,0.02,0.02c0.01,0.01,0.01,0.01,0.01,0.01
		c0.01,0.01,0.01,0.01,0.02,0.02c0.01,0.01,0.01,0.01,0.01,0.01c0.01,0.01,0.01,0.01,0.02,0.02c0,0,0.01,0.01,0.01,0.01
		c0.01,0.01,0.01,0.01,0.02,0.02c0.01,0.01,0.01,0.01,0.01,0.01c0.01,0.01,0.01,0.01,0.02,0.02c0.01,0.01,0.01,0.01,0.01,0.01
		c0.01,0.01,0.01,0.01,0.02,0.02c0.01,0.01,0.01,0.01,0.02,0.02c0.01,0.01,0.01,0.01,0.02,0.02c0.01,0.01,0.01,0.01,0.01,0.01
		c0.01,0.01,0.01,0.01,0.02,0.02c0.01,0.01,0.01,0.01,0.01,0.01c0.01,0.01,0.01,0.01,0.02,0.02c0,0,0.01,0.01,0.01,0.01
		c0.01,0.01,0.01,0.01,0.02,0.02c0.01,0.01,0.01,0.01,0.01,0.02c0.01,0.01,0.01,0.01,0.02,0.02c0.01,0.01,0.01,0.01,0.01,0.01
		c0.01,0.01,0.01,0.01,0.02,0.02c0.01,0.01,0.02,0.02,0.04,0.04c0,0,0.01,0.01,0.01,0.01c0.01,0.01,0.01,0.01,0.02,0.02
		c0,0,0.01,0.01,0.01,0.01c0.01,0.01,0.01,0.01,0.02,0.02c0,0,0.01,0.01,0.01,0.02c0.01,0.01,0.01,0.01,0.02,0.02
		c0.01,0.01,0.01,0.01,0.02,0.02c0.01,0.01,0.01,0.01,0.02,0.02c0.01,0.01,0.01,0.01,0.02,0.02c0.01,0.01,0.01,0.01,0.01,0.01
		c0.01,0.01,0.01,0.01,0.02,0.02c0.01,0.01,0.01,0.01,0.01,0.02c0.01,0.01,0.01,0.01,0.02,0.02c0,0,0.01,0.01,0.01,0.01
		c0.01,0.01,0.01,0.01,0.02,0.02c0.01,0.01,0.01,0.01,0.01,0.02c0.01,0.01,0.01,0.01,0.02,0.02c0.01,0.01,0.01,0.01,0.01,0.02
		c0.01,0.01,0.01,0.01,0.02,0.02c0.01,0.01,0.01,0.01,0.02,0.02c0.01,0.01,0.01,0.01,0.02,0.02c0.01,0.01,0.01,0.01,0.02,0.02
		c0.01,0.01,0.01,0.01,0.02,0.02c0.01,0.01,0.01,0.01,0.02,0.02c0.01,0.01,0.01,0.01,0.02,0.02c0.01,0.01,0.01,0.01,0.01,0.02
		c0.01,0.01,0.01,0.01,0.02,0.02c0.01,0.01,0.01,0.01,0.02,0.02c0.01,0.01,0.01,0.01,0.02,0.02c0.01,0.01,0.01,0.01,0.01,0.01
		c0,0,0.01,0.01,0.01,0.01c0.02,0.02,0.05,0.05,0.07,0.07c0,0,0,0.01,0.01,0.01c0.01,0.01,0.01,0.01,0.02,0.02
		c0,0,0.01,0.01,0.01,0.01c0.01,0.01,0.01,0.01,0.02,0.02c0,0,0.01,0.01,0.01,0.01c0.01,0.01,0.01,0.01,0.02,0.02
		c0.01,0.01,0.01,0.01,0.02,0.02s0.01,0.01,0.02,0.02c0.01,0.01,0.01,0.01,0.02,0.02c0.01,0.01,0.01,0.01,0.02,0.02
		c0.01,0.01,0.01,0.01,0.02,0.02c0.01,0.01,0.01,0.01,0.02,0.02c0,0,0.01,0.01,0.01,0.01c0.01,0.01,0.01,0.01,0.02,0.02
		c0,0,0.01,0.01,0.01,0.01c0.01,0.01,0.01,0.01,0.02,0.02c0,0,0.01,0.01,0.01,0.01c0.01,0.01,0.01,0.01,0.02,0.02
		c0,0,0.01,0.01,0.01,0.01c0.01,0.01,0.01,0.01,0.02,0.02c0.01,0.01,0.01,0.01,0.02,0.02c0.01,0.01,0.01,0.01,0.02,0.02
		c0.01,0.01,0.01,0.01,0.02,0.02c0.01,0.01,0.01,0.01,0.02,0.02c0.01,0.01,0.01,0.01,0.02,0.02c0.01,0.01,0.01,0.01,0.02,0.02
		c0.01,0.01,0.01,0.01,0.02,0.02c0.01,0.01,0.01,0.01,0.01,0.01c0.01,0.01,0.01,0.01,0.02,0.02c0.01,0.01,0.02,0.02,0.02,0.02
		c0.01,0.01,0.01,0.01,0.02,0.02c0.01,0.01,0.01,0.01,0.02,0.02s0.01,0.01,0.02,0.02c0.01,0.01,0.01,0.01,0.02,0.02
		c0.01,0.01,0.01,0.01,0.02,0.02c0,0,0.01,0.01,0.01,0.01c0.01,0.01,0.01,0.01,0.02,0.02c0,0,0.01,0.01,0.01,0.01
		c0.01,0.01,0.01,0.01,0.02,0.02c0.01,0.01,0.01,0.01,0.01,0.01c0.01,0.01,0.01,0.01,0.02,0.02c0.01,0.01,0.01,0.01,0.02,0.02
		c0.01,0.01,0.01,0.01,0.02,0.02c0,0,0.01,0.01,0.01,0.01c0.01,0.01,0.01,0.01,0.02,0.02c0.01,0.01,0.01,0.01,0.01,0.01
		c0.01,0.01,0.01,0.01,0.02,0.02c0.01,0.01,0.01,0.01,0.02,0.01c0.01,0.01,0.01,0.01,0.02,0.02c0.01,0.01,0.01,0.01,0.02,0.02
		c0.01,0.01,0.01,0.01,0.02,0.02c0.01,0.01,0.01,0.01,0.02,0.02c0.01,0.01,0.01,0.01,0.02,0.02c0.01,0.01,0.01,0.01,0.01,0.01
		c0.01,0.01,0.01,0.01,0.02,0.02c0,0,0.01,0.01,0.01,0.01c0.01,0.01,0.01,0.01,0.02,0.02c0.01,0.01,0.01,0.01,0.02,0.02
		c0.01,0.01,0.01,0.01,0.02,0.02c0.01,0.01,0.01,0.01,0.01,0.01c0.01,0.01,0.02,0.02,0.03,0.03c0,0,0,0,0,0
		c0.01,0.01,0.02,0.02,0.03,0.03c0.01,0.01,0.01,0.01,0.02,0.02c0.01,0.01,0.01,0.01,0.02,0.02c0.01,0.01,0.01,0.01,0.01,0.01
		c0.01,0.01,0.01,0.01,0.02,0.02c0,0,0.01,0.01,0.01,0.01c0.01,0.01,0.01,0.01,0.02,0.02c0,0,0.01,0.01,0.01,0.01
		c0.01,0.01,0.01,0.01,0.02,0.02c0.01,0.01,0.01,0.01,0.01,0.01c0.01,0.01,0.01,0.01,0.02,0.02c0,0,0.01,0.01,0.01,0.01
		c0.01,0.01,0.01,0.01,0.02,0.02c0,0,0.01,0.01,0.01,0.01c0.01,0.01,0.01,0.01,0.02,0.02c0.01,0.01,0.01,0.01,0.01,0.01
		c0.01,0.01,0.01,0.01,0.02,0.02c0.01,0.01,0.01,0.01,0.02,0.02c0.01,0.01,0.01,0.01,0.02,0.02c0.01,0.01,0.01,0.01,0.02,0.02
		c0.01,0.01,0.01,0.01,0.02,0.02c0.01,0.01,0.01,0.01,0.01,0.01c0.01,0.01,0.01,0.01,0.02,0.02c0.01,0.01,0.01,0.01,0.01,0.01
		c0.01,0.01,0.01,0.01,0.02,0.02c0,0,0.01,0.01,0.01,0.01c0.01,0.01,0.01,0.01,0.02,0.02c0,0,0.01,0.01,0.01,0.01
		c0.01,0.01,0.02,0.02,0.03,0.03c0,0,0,0,0.01,0c0.01,0.01,0.02,0.02,0.03,0.03c0,0,0,0,0,0c0.01,0.01,0.02,0.02,0.03,0.03
		c0,0,0,0,0.01,0.01c0.01,0.01,0.02,0.02,0.03,0.03c0,0,0.01,0.01,0.01,0.01c0.01,0.01,0.01,0.01,0.02,0.02c0,0,0.01,0.01,0.01,0.01
		c0.01,0.01,0.02,0.01,0.02,0.02c0,0,0.01,0.01,0.01,0.01c0.01,0.01,0.01,0.01,0.02,0.02c0,0,0.01,0.01,0.01,0.01
		c0.01,0.01,0.01,0.01,0.02,0.02c0,0,0.01,0.01,0.01,0.01c0.01,0.01,0.01,0.01,0.02,0.02c0,0,0.01,0.01,0.01,0.01
		c0.01,0.01,0.01,0.01,0.02,0.02c0.01,0.01,0.01,0.01,0.01,0.01c0.01,0.01,0.01,0.01,0.02,0.02c0,0,0.01,0.01,0.01,0.01
		c0.01,0.01,0.01,0.01,0.02,0.02c0,0,0.01,0.01,0.01,0.01c0.01,0.01,0.01,0.01,0.02,0.02c0,0,0.01,0.01,0.01,0.01
		c0.01,0.01,0.01,0.01,0.02,0.02c0,0,0.01,0.01,0.01,0.01c0.01,0.01,0.01,0.01,0.02,0.02c0,0,0.01,0.01,0.01,0.01
		c0.01,0.01,0.02,0.02,0.02,0.02c0,0,0.01,0.01,0.01,0.01c0.01,0.01,0.02,0.02,0.03,0.03c0,0,0,0,0,0c0.02,0.02,0.04,0.04,0.07,0.06
		l0,0c0.01,0.01,0.02,0.02,0.03,0.03l0,0l5.51-5.8c-5.26-5-9.78-10.76-13.45-17.11C891.78,574.84,889.77,570.45,888.2,565.96
		L888.2,565.96z M938.71,613.96l-2.24,7.68c4.54,1.32,9.18,2.27,13.89,2.81l0,0c0.02,0,0.03,0,0.05,0.01l0,0
		c0.02,0,0.03,0,0.05,0.01h0c0.12,0.01,0.25,0.03,0.37,0.04c0,0,0,0,0,0c0.01,0,0.03,0,0.04,0l0,0c0.01,0,0.03,0,0.04,0l0,0
		c0.02,0,0.03,0,0.05,0l0,0c0.08,0.01,0.15,0.02,0.23,0.02l0,0c0.02,0,0.03,0,0.05,0l0,0c0.02,0,0.03,0,0.04,0c0,0,0,0,0,0
		c0.01,0,0.03,0,0.04,0c0,0,0,0,0,0c0.01,0,0.03,0,0.04,0c0,0,0,0,0,0c0.09,0.01,0.18,0.02,0.28,0.03c0,0,0,0,0,0
		c0.01,0,0.03,0,0.04,0c0,0,0,0,0.01,0c0.01,0,0.03,0,0.04,0c0,0,0,0,0.01,0c0.01,0,0.03,0,0.04,0c0,0,0,0,0.01,0
		c0.01,0,0.03,0,0.04,0c0,0,0,0,0,0c0.09,0.01,0.18,0.02,0.28,0.03c0,0,0,0,0,0c0.01,0,0.03,0,0.04,0c0,0,0,0,0.01,0
		c0.01,0,0.03,0,0.04,0c0,0,0.01,0,0.01,0c0.01,0,0.03,0,0.04,0l0,0c0.01,0,0.03,0,0.04,0l0,0c0.08,0.01,0.15,0.01,0.23,0.02
		c0,0,0,0,0,0c0.01,0,0.03,0,0.04,0c0,0,0.01,0,0.01,0c0.01,0,0.03,0,0.04,0c0,0,0,0,0.01,0c0.01,0,0.02,0,0.04,0c0,0,0.01,0,0.01,0
		c0.01,0,0.03,0,0.04,0c0,0,0,0,0.01,0c0.01,0,0.03,0,0.04,0l0,0c0.06,0.01,0.12,0.01,0.18,0.02c0,0,0,0,0.01,0
		c0.01,0,0.03,0,0.04,0c0,0,0.01,0,0.01,0c0.01,0,0.02,0,0.04,0c0.01,0,0.01,0,0.01,0c0.01,0,0.02,0,0.03,0c0,0,0.01,0,0.01,0
		c0.01,0,0.02,0,0.04,0c0,0,0.01,0,0.01,0c0.01,0,0.02,0,0.04,0c0,0,0.01,0,0.01,0c0.01,0,0.03,0,0.04,0c0,0,0,0,0,0
		c0.05,0,0.09,0.01,0.14,0.01h0c0.02,0,0.03,0,0.04,0c0,0,0.01,0,0.01,0c0.01,0,0.03,0,0.04,0c0,0,0.01,0,0.01,0
		c0.01,0,0.02,0,0.03,0c0,0,0.01,0,0.01,0c0.01,0,0.02,0,0.03,0c0,0,0.01,0,0.01,0c0.01,0,0.02,0,0.04,0c0,0,0.01,0,0.01,0
		c0.01,0,0.03,0,0.04,0c0,0,0,0,0.01,0c0.01,0,0.03,0,0.04,0c0,0,0,0,0,0c0.05,0,0.09,0.01,0.14,0.01c0,0,0,0,0,0
		c0.01,0,0.03,0,0.04,0c0,0,0.01,0,0.01,0c0.01,0,0.02,0,0.03,0c0,0,0.01,0,0.01,0c0.01,0,0.02,0,0.03,0c0,0,0.01,0,0.01,0
		c0.01,0,0.02,0,0.03,0c0.01,0,0.01,0,0.01,0c0.01,0,0.02,0,0.03,0c0,0,0.01,0,0.01,0c0.01,0,0.02,0,0.03,0c0,0,0.01,0,0.01,0
		c0.01,0,0.03,0,0.04,0l0,0c0.03,0,0.06,0,0.09,0.01c0,0,0,0,0.01,0c0.01,0,0.03,0,0.04,0c0,0,0,0,0.01,0c0.01,0,0.03,0,0.04,0
		c0,0,0.01,0,0.01,0c0.01,0,0.02,0,0.03,0c0.01,0,0.01,0,0.01,0c0.01,0,0.02,0,0.03,0c0,0,0.01,0,0.01,0c0.01,0,0.02,0,0.03,0
		c0,0,0.01,0,0.01,0c0.01,0,0.02,0,0.04,0c0,0,0.01,0,0.01,0c0.01,0,0.03,0,0.04,0c0,0,0,0,0,0c0.05,0,0.09,0.01,0.14,0.01
		c0,0,0,0,0,0c0.01,0,0.03,0,0.04,0c0,0,0.01,0,0.01,0c0.01,0,0.02,0,0.03,0c0.01,0,0.01,0,0.01,0c0.01,0,0.02,0,0.03,0
		c0.01,0,0.01,0,0.01,0c0.01,0,0.02,0,0.03,0c0.01,0,0.01,0,0.01,0c0.01,0,0.02,0,0.03,0c0,0,0.01,0,0.01,0c0.01,0,0.02,0,0.03,0
		c0.01,0,0.01,0,0.01,0c0.01,0,0.03,0,0.04,0c0,0,0,0,0.01,0c0.03,0,0.06,0,0.09,0.01l0,0c0.01,0,0.03,0,0.04,0c0,0,0.01,0,0.01,0
		c0.01,0,0.02,0,0.03,0c0,0,0.01,0,0.01,0c0.01,0,0.02,0,0.03,0c0.01,0,0.01,0,0.01,0c0.01,0,0.02,0,0.03,0c0,0,0.01,0,0.01,0
		c0.01,0,0.02,0,0.03,0c0.01,0,0.01,0,0.02,0c0.01,0,0.02,0,0.03,0c0.01,0,0.01,0,0.01,0c0.01,0,0.02,0,0.03,0c0.01,0,0.01,0,0.01,0
		c0.01,0,0.02,0,0.03,0c0.01,0,0.01,0,0.01,0c0.02,0,0.03,0,0.04,0c0,0,0.01,0,0.01,0c0.01,0,0.02,0,0.04,0c0,0,0.01,0,0.01,0
		c0.01,0,0.02,0,0.03,0c0.01,0,0.01,0,0.02,0c0.01,0,0.02,0,0.03,0c0.01,0,0.01,0,0.02,0c0.01,0,0.02,0,0.03,0c0.01,0,0.01,0,0.02,0
		c0.01,0,0.02,0,0.03,0c0.01,0,0.01,0,0.02,0c0.01,0,0.02,0,0.03,0c0.01,0,0.01,0,0.02,0c0.01,0,0.02,0,0.03,0c0.01,0,0.01,0,0.01,0
		c0.01,0,0.02,0,0.03,0c0,0,0.01,0,0.01,0c0.03,0,0.06,0,0.09,0c0,0,0,0,0.01,0c0.01,0,0.03,0,0.04,0c0,0,0.01,0,0.01,0
		c0.01,0,0.02,0,0.03,0c0.01,0,0.01,0,0.02,0c0.01,0,0.02,0,0.03,0c0.01,0,0.01,0,0.02,0c0.01,0,0.02,0,0.03,0c0.01,0,0.01,0,0.02,0
		c0.01,0,0.02,0,0.03,0c0.01,0,0.01,0,0.02,0c0.01,0,0.02,0,0.03,0c0.01,0,0.01,0,0.02,0c0.01,0,0.02,0,0.03,0c0.01,0,0.01,0,0.02,0
		c0.01,0,0.02,0,0.03,0c0.01,0,0.01,0,0.02,0c0.01,0,0.03,0,0.04,0c0,0,0,0,0,0c0.01,0,0.03,0,0.04,0c0.01,0,0.01,0,0.01,0
		c0.01,0,0.02,0,0.03,0c0.01,0,0.01,0,0.01,0c0.01,0,0.02,0,0.03,0c0.01,0,0.01,0,0.02,0c0.01,0,0.02,0,0.03,0c0.01,0,0.01,0,0.02,0
		c0.01,0,0.02,0,0.03,0c0.01,0,0.01,0,0.02,0c0.01,0,0.02,0,0.03,0c0.01,0,0.01,0,0.02,0c0.01,0,0.02,0,0.02,0c0.01,0,0.01,0,0.02,0
		c0.01,0,0.02,0,0.03,0c0.01,0,0.01,0,0.02,0c0.01,0,0.02,0,0.03,0c0.01,0,0.01,0,0.01,0c0.01,0,0.03,0,0.04,0c0,0,0.01,0,0.01,0
		c0.01,0,0.02,0,0.03,0c0.01,0,0.01,0,0.02,0c0.01,0,0.02,0,0.03,0c0.01,0,0.01,0,0.02,0c0.01,0,0.02,0,0.02,0c0.01,0,0.01,0,0.02,0
		c0.01,0,0.02,0,0.02,0c0.01,0,0.01,0,0.02,0c0.01,0,0.02,0,0.02,0c0.01,0,0.01,0,0.02,0c0.01,0,0.02,0,0.03,0c0.01,0,0.01,0,0.02,0
		c0.01,0,0.02,0,0.03,0c0.01,0,0.01,0,0.02,0c0.01,0,0.02,0,0.03,0c0,0,0.01,0,0.01,0c0.03,0,0.06,0,0.09,0c0,0,0,0,0.01,0
		c0.01,0,0.02,0,0.04,0c0.01,0,0.01,0,0.02,0c0.01,0,0.02,0,0.03,0c0.01,0,0.01,0,0.02,0c0.01,0,0.02,0,0.03,0c0.01,0,0.01,0,0.02,0
		c0.01,0,0.02,0,0.03,0c0.01,0,0.01,0,0.02,0c0.01,0,0.02,0,0.03,0c0.01,0,0.01,0,0.02,0c0.01,0,0.02,0,0.03,0c0.01,0,0.01,0,0.02,0
		c0.01,0,0.02,0,0.03,0c0.01,0,0.01,0,0.01,0c0.01,0,0.02,0,0.03,0c0.01,0,0.01,0,0.01,0c0.01,0,0.02,0,0.04,0c0.01,0,0.01,0,0.02,0
		c0.01,0,0.02,0,0.03,0c0.01,0,0.01,0,0.02,0c0.01,0,0.02,0,0.03,0c0.01,0,0.01,0,0.02,0c0.01,0,0.02,0,0.03,0c0.01,0,0.01,0,0.02,0
		c0.01,0,0.02,0,0.03,0c0.01,0,0.01,0,0.02,0c0.01,0,0.02,0,0.03,0c0.01,0,0.01,0,0.02,0c0.01,0,0.02,0,0.03,0c0.01,0,0.01,0,0.02,0
		c0.01,0,0.02,0,0.03,0c0.01,0,0.01,0,0.02,0c0.01,0,0.02,0,0.02,0c0.01,0,0.02,0,0.02,0c0.01,0,0.02,0,0.03,0c0.01,0,0.01,0,0.02,0
		c0.01,0,0.03,0,0.04,0c0.01,0,0.01,0,0.01,0c0.01,0,0.02,0,0.03,0c0.01,0,0.01,0,0.02,0c0.01,0,0.02,0,0.03,0c0.01,0,0.01,0,0.02,0
		c0.01,0,0.02,0,0.03,0c0.01,0,0.01,0,0.02,0c0.01,0,0.02,0,0.03,0c0.01,0,0.01,0,0.02,0c0.01,0,0.02,0,0.02,0c0.01,0,0.01,0,0.02,0
		c0.01,0,0.02,0,0.02,0c0.01,0,0.01,0,0.02,0c0.01,0,0.02,0,0.02,0c0.01,0,0.01,0,0.02,0c0.01,0,0.02,0,0.03,0c0.01,0,0.01,0,0.02,0
		c0.03,0,0.06,0,0.09,0c0.01,0,0.01,0,0.02,0c0.01,0,0.02,0,0.03,0c0.01,0,0.01,0,0.02,0c0.01,0,0.02,0,0.03,0c0.01,0,0.01,0,0.02,0
		c0.01,0,0.02,0,0.03,0c0.01,0,0.01,0,0.02,0c0.01,0,0.02,0,0.02,0c0.01,0,0.01,0,0.02,0c0.01,0,0.02,0,0.02,0c0.01,0,0.01,0,0.02,0
		c0.01,0,0.02,0,0.03,0c0.01,0,0.01,0,0.02,0c0.01,0,0.02,0,0.03,0c0.01,0,0.01,0,0.02,0c0.01,0,0.02,0,0.03,0c0.01,0,0.01,0,0.02,0
		c0.01,0,0.03,0,0.04,0c0,0,0.01,0,0.01,0c0.01,0,0.02,0,0.03,0c0.01,0,0.01,0,0.02,0c0.01,0,0.02,0,0.03,0c0.01,0,0.01,0,0.02,0
		c0.01,0,0.02,0,0.03,0c0.01,0,0.01,0,0.02,0c0.01,0,0.02,0,0.02,0c0.01,0,0.01,0,0.02,0c0.01,0,0.02,0,0.03,0c0.01,0,0.01,0,0.02,0
		c0.01,0,0.02,0,0.03,0c0.01,0,0.01,0,0.02,0c0.01,0,0.02,0,0.03,0c0.01,0,0.01,0,0.02,0c0.01,0,0.02,0,0.03,0c0.01,0,0.01,0,0.02,0
		c0.01,0,0.02,0,0.03,0c0,0,0.01,0,0.01,0c0.01,0,0.03,0,0.04,0c0.01,0,0.01,0,0.01,0c0.01,0,0.02,0,0.03,0c0.01,0,0.01,0,0.02,0
		c0.01,0,0.02,0,0.03,0c0.01,0,0.01,0,0.02,0c0.01,0,0.02,0,0.03,0c0.01,0,0.01,0,0.02,0c0.01,0,0.02,0,0.03,0c0.01,0,0.01,0,0.02,0
		c0.01,0,0.02,0,0.02,0c0.01,0,0.01,0,0.02,0c0.01,0,0.02,0,0.03,0c0.01,0,0.01,0,0.02,0c0.01,0,0.02,0,0.03,0c0.01,0,0.01,0,0.02,0
		c0.01,0,0.02,0,0.03,0c0.01,0,0.01,0,0.01,0c0.02,0,0.03,0,0.04,0l0,0c0.01,0,0.03,0,0.04,0c0,0,0.01,0,0.01,0
		c0.01,0,0.02,0,0.03,0c0,0,0.01,0,0.01,0c0.01,0,0.02,0,0.04,0c0,0,0,0,0,0c0.01,0,0.02,0,0.04,0c0,0,0.01,0,0.01,0
		c0.01,0,0.02,0,0.03,0c0,0,0.01,0,0.01,0c0.01,0,0.02,0,0.04,0c0,0,0,0,0,0c0.01,0,0.02,0,0.03,0c0,0,0.01,0,0.01,0
		c0.01,0,0.02,0,0.02,0c0,0,0.01,0,0.01,0c0.01,0,0.02,0,0.04,0c0,0,0,0,0,0c0.01,0,0.02,0,0.04,0c0,0,0.01,0,0.01,0
		c0.01,0,0.02,0,0.03,0c0,0,0.01,0,0.01,0c0.01,0,0.03,0,0.04,0c0,0,0,0,0,0c0.01,0,0.02,0,0.04,0c0,0,0.01,0,0.01,0
		c0.01,0,0.02,0,0.03,0c0,0,0.01,0,0.01,0c0.01,0,0.02,0,0.04,0c0,0,0,0,0.01,0c0.01,0,0.02,0,0.03,0c0.01,0,0.01,0,0.02,0
		c0.01,0,0.02,0,0.02,0c0,0,0.01,0,0.01,0c0.01,0,0.02,0,0.04,0c0,0,0,0,0.01,0c0.01,0,0.02,0,0.03,0c0,0,0.01,0,0.01,0
		c0.01,0,0.02,0,0.03,0c0,0,0.01,0,0.01,0c0.01,0,0.02,0,0.04,0c0,0,0,0,0.01,0c0.01,0,0.02,0,0.03,0c0,0,0.01,0,0.01,0
		c0.01,0,0.02,0,0.03,0c0,0,0.01,0,0.01,0c0.01,0,0.02,0,0.04,0c0,0,0.01,0,0.01,0c0.01,0,0.02,0,0.03,0c0,0,0.01,0,0.01,0
		c0.01,0,0.02,0,0.03,0c0,0,0.01,0,0.01,0c0.01,0,0.02,0,0.04,0c0,0,0.01,0,0.01,0c0.01,0,0.02,0,0.02,0c0.01,0,0.01,0,0.02,0
		c0.01,0,0.02,0,0.02,0c0,0,0.01,0,0.01,0c0.01,0,0.02,0,0.04,0c0,0,0.01,0,0.01,0c0.01,0,0.02,0,0.03,0c0.01,0,0.01,0,0.01,0
		c0.01,0,0.01,0,0.02,0c0.01,0,0.01,0,0.02,0c0.01,0,0.02,0,0.03,0c0,0,0.01,0,0.01,0c0.01,0,0.02,0,0.02,0c0,0,0.01,0,0.01,0
		c0.01,0,0.02,0,0.02,0c0,0,0.01,0,0.01,0c0.01,0,0.02,0,0.04,0c0,0,0.01,0,0.01,0c0.01,0,0.02,0,0.03,0c0,0,0.01,0,0.01,0
		c0.01,0,0.02,0,0.03,0c0,0,0.01,0,0.01,0c0.01,0,0.02,0,0.04,0c0,0,0.01,0,0.01,0c0.01,0,0.02,0,0.02,0c0.01,0,0.01,0,0.02,0
		c0.01,0,0.02,0,0.02,0c0,0,0.01,0,0.01,0c0.01,0,0.02,0,0.04,0c0,0,0.01,0,0.01,0c0.01,0,0.02,0,0.03,0c0,0,0.01,0,0.01,0
		c0.01,0,0.02,0,0.03,0c0,0,0.01,0,0.01,0c0.01,0,0.02,0,0.04,0c0,0,0.01,0,0.01,0c0.01,0,0.02,0,0.03,0c0,0,0.01,0,0.01,0
		c0.01,0,0.02,0,0.03,0c0,0,0.01,0,0.01,0c0.01,0,0.02,0,0.04,0c0,0,0.01,0,0.01,0c0.01,0,0.02,0,0.02,0c0,0,0.01,0,0.01,0
		c0.01,0,0.02,0,0.03,0c0,0,0.01,0,0.01,0c0.01,0,0.02,0,0.04,0c0,0,0.01,0,0.01,0c0.01,0,0.02,0,0.02,0c0.01,0,0.01,0,0.02,0
		c0.01,0,0.02,0,0.02,0c0.01,0,0.01,0,0.02,0c0.01,0,0.02,0,0.03,0c0.01,0,0.01,0,0.02,0c0.01,0,0.01,0,0.02,0c0.01,0,0.01,0,0.02,0
		c0.01,0,0.01,0,0.02,0c0.01,0,0.02,0,0.03,0c0.01,0,0.01,0,0.02,0c0.01,0,0.01,0,0.02,0c0.01,0,0.01,0,0.02,0c0.01,0,0.01,0,0.02,0
		c0.01,0,0.01,0,0.02,0c0.01,0,0.02,0,0.03,0c0.01,0,0.02,0,0.02,0c0.01,0,0.01,0,0.02,0c0.01,0,0.01,0,0.02,0c0.01,0,0.01,0,0.02,0
		c0.01,0,0.01,0,0.02,0c0.01,0,0.02,0,0.03,0c0.01,0,0.01,0,0.02,0c0.01,0,0.01,0,0.02,0c0.01,0,0.01,0,0.02,0c0.01,0,0.01,0,0.02,0
		c0,0,0.01,0,0.01,0c0.01,0,0.03,0,0.04,0c0.01,0,0.01,0,0.02,0c0.01,0,0.01,0,0.02,0c0.01,0,0.01,0,0.02,0c0.01,0,0.01,0,0.02,0
		c0.01,0,0.01,0,0.02,0c0.01,0,0.03,0,0.04,0c0.01,0,0.01,0,0.01,0c0.01,0,0.01,0,0.02,0c0,0,0.01,0,0.01,0c0.01,0,0.02,0,0.02,0
		c0,0,0.01,0,0.01,0c0.01,0,0.03,0,0.04,0c0.01,0,0.01,0,0.01,0c0.01,0,0.01,0,0.02,0c0,0,0.01,0,0.01,0c0.01,0,0.02,0,0.02,0
		c0,0,0.01,0,0.01,0c0.02,0,0.03,0,0.05,0c0,0,0.01,0,0.01,0c0.01,0,0.02,0,0.02,0c0,0,0.01,0,0.01,0c0.01,0,0.02,0,0.02,0
		c0,0,0,0,0.01,0c0.02,0,0.03,0,0.05,0c0,0,0.01,0,0.01,0c0.01,0,0.02,0,0.02,0c0,0,0.01,0,0.01,0c0.01,0,0.02,0,0.03,0h0
		c0.02,0,0.04,0,0.05,0c0,0,0.01,0,0.01,0c0.01,0,0.02,0,0.02,0c0,0,0.01,0,0.01,0c0.01,0,0.02,0,0.02,0c0,0,0.01,0,0.01,0
		c0.02,0,0.03,0,0.05,0c0,0,0.01,0,0.01,0c0.01,0,0.01,0,0.02,0c0,0,0.01,0,0.01,0c0.01,0,0.02,0,0.02,0c0,0,0,0,0,0
		c0.02,0,0.03,0,0.05,0c0,0,0.01,0,0.01,0c0.01,0,0.02,0,0.02,0c0,0,0.01,0,0.01,0c0.03,0,0.05,0,0.08,0c0,0,0.01,0,0.01,0
		c0.01,0,0.02,0,0.02,0c0,0,0.01,0,0.01,0c0.03,0,0.05,0,0.08,0c0,0,0.01,0,0.01,0c0.01,0,0.02,0,0.03,0c0,0,0,0,0.01,0
		c0.03,0,0.06,0,0.08,0c0,0,0.01,0,0.01,0c0.01,0,0.02,0,0.03,0c0,0,0,0,0.01,0c0.03,0,0.06,0,0.08,0c0,0,0.01,0,0.01,0
		c0.01,0,0.02,0,0.03,0c0,0,0,0,0.01,0c0.03,0,0.06,0,0.08,0c0,0,0.01,0,0.01,0c0.01,0,0.02,0,0.03,0l0,0c0.03,0,0.06,0,0.09,0
		c0,0,0,0,0,0c0.01,0,0.02,0,0.03,0c0,0,0,0,0,0c0.03,0,0.06,0,0.09,0c0,0,0,0,0,0c2.76-0.15,5.52-0.43,8.27-0.86c0,0,0,0,0,0
		c0.01,0,0.02,0,0.03,0l0,0c0.03,0,0.06-0.01,0.09-0.01c0,0,0,0,0,0c0.01,0,0.02,0,0.03,0c0,0,0,0,0.01,0
		c0.02,0,0.03-0.01,0.05-0.01c0,0,0,0,0.01,0c0.01,0,0.02,0,0.03,0c0,0,0.01,0,0.01,0c0.01,0,0.02,0,0.03,0c0,0,0,0,0,0
		c0.02,0,0.04-0.01,0.06-0.01c0,0,0,0,0,0c0.01,0,0.02,0,0.03,0c0,0,0.01,0,0.01,0c0.01,0,0.02,0,0.03,0c0,0,0,0,0.01,0
		c0.02,0,0.04-0.01,0.06-0.01l0,0c0.01,0,0.02,0,0.03,0c0,0,0,0,0.01,0c0.03,0,0.06-0.01,0.09-0.01l0,0c0.01,0,0.02,0,0.03,0
		c0,0,0.01,0,0.01,0c0.01,0,0.02,0,0.02,0c0,0,0.01,0,0.01,0c0.01,0,0.03,0,0.04-0.01c0.01,0,0.01,0,0.02,0c0.01,0,0.01,0,0.02,0
		c0.01,0,0.01,0,0.02,0c0.01,0,0.01,0,0.02,0c0.01,0,0.01,0,0.02,0c0.01,0,0.02,0,0.03-0.01c0.01,0,0.01,0,0.02,0
		c0.01,0,0.01,0,0.02,0c0.01,0,0.01,0,0.02,0c0.01,0,0.01,0,0.02,0c0.01,0,0.01,0,0.02,0c0.01,0,0.02,0,0.03-0.01
		c0.01,0,0.01,0,0.02,0c0.01,0,0.01,0,0.02,0c0.01,0,0.01,0,0.02,0c0.01,0,0.01,0,0.02,0c0.01,0,0.02,0,0.03,0c0.01,0,0.01,0,0.02,0
		c0.01,0,0.02,0,0.02,0c0.01,0,0.01,0,0.02,0c0.01,0,0.01,0,0.02,0c0.01,0,0.01,0,0.02,0c0.01,0,0.02,0,0.03-0.01c0,0,0.01,0,0.01,0
		c0.01,0,0.02,0,0.03,0c0,0,0.01,0,0.01,0c0.01,0,0.02,0,0.02,0c0,0,0.01,0,0.01,0c0.01,0,0.02,0,0.04-0.01c0,0,0.01,0,0.01,0
		c0.01,0,0.02,0,0.03,0c0,0,0.01,0,0.01,0c0.01,0,0.02,0,0.03,0c0,0,0.01,0,0.01,0c0.01,0,0.03,0,0.04-0.01c0,0,0,0,0.01,0
		c0.01,0,0.02,0,0.03-0.01c0,0,0.01,0,0.01,0c0.01,0,0.02,0,0.03-0.01c0,0,0.01,0,0.01,0c0.01,0,0.02,0,0.04-0.01c0,0,0,0,0.01,0
		c0.01,0,0.02,0,0.03-0.01c0,0,0.01,0,0.01,0c0.01,0,0.02,0,0.03-0.01c0,0,0,0,0,0c0.01,0,0.03,0,0.04-0.01c0,0,0,0,0,0
		c0.01,0,0.03,0,0.04-0.01c0,0,0,0,0,0c0.01,0,0.02,0,0.04-0.01c0,0,0,0,0,0c0.01,0,0.03,0,0.04-0.01l0,0c0.01,0,0.03,0,0.04-0.01
		c0,0,0,0,0.01,0c0.01,0,0.03,0,0.04-0.01h0c0.01,0,0.03,0,0.04-0.01c0,0,0,0,0,0c0.01,0,0.03,0,0.04-0.01c0,0,0,0,0,0
		c0.04-0.01,0.08-0.01,0.12-0.02c0,0,0,0,0,0c0.37-0.07,0.73-0.14,1.1-0.21l-1.53-7.85c-4.74,0.92-9.6,1.39-14.45,1.39
		C952.86,617.01,945.67,615.99,938.71,613.96L938.71,613.96z M1029.2,572.43c-4.99,11-12.62,20.76-22.09,28.21l4.95,6.28
		c0.38-0.3,0.76-0.61,1.14-0.92c0,0,0,0,0.01,0c0.01-0.01,0.01-0.01,0.02-0.02c0,0,0,0,0,0c0.03-0.03,0.06-0.05,0.1-0.08
		c0,0,0,0,0,0c0.01-0.01,0.01-0.01,0.02-0.02c0,0,0,0,0.01-0.01c0.01-0.01,0.01-0.01,0.02-0.02c0,0,0,0,0,0
		c0.01-0.01,0.02-0.01,0.02-0.02c0,0,0,0,0,0c0.02-0.01,0.03-0.02,0.05-0.04c0,0,0,0,0,0c0.01-0.01,0.01-0.01,0.02-0.02c0,0,0,0,0,0
		c0.01-0.01,0.01-0.01,0.02-0.02c0,0,0.01,0,0.01-0.01c0.01-0.01,0.01-0.01,0.02-0.02c0,0,0,0,0,0c0.02-0.02,0.05-0.04,0.07-0.06
		c0,0,0.01,0,0.01-0.01c0.01-0.01,0.01-0.01,0.02-0.02c0,0,0,0,0.01-0.01c0.01-0.01,0.01-0.01,0.02-0.02c0,0,0,0,0.01-0.01
		c0.03-0.02,0.06-0.05,0.09-0.08c0,0,0.01,0,0.01-0.01c0.01-0.01,0.01-0.01,0.02-0.02c0,0,0.01,0,0.01-0.01
		c0.01-0.01,0.01-0.01,0.02-0.02c0,0,0.01-0.01,0.01-0.01c0.02-0.02,0.04-0.03,0.06-0.05c0,0,0.01,0,0.01-0.01
		c0.01-0.01,0.01-0.01,0.02-0.01c0,0,0.01-0.01,0.01-0.01c0.01-0.01,0.01-0.01,0.02-0.02c0,0,0.01,0,0.01-0.01
		c0.01-0.01,0.01-0.01,0.02-0.02c0,0,0.01-0.01,0.01-0.01c0.01-0.01,0.02-0.02,0.04-0.03c0,0,0.01,0,0.01-0.01
		c0.01-0.01,0.01-0.01,0.02-0.01c0,0,0.01-0.01,0.01-0.01c0.01-0.01,0.01-0.01,0.02-0.02c0,0,0.01-0.01,0.01-0.01
		c0.01-0.01,0.01-0.01,0.02-0.01c0,0,0.01-0.01,0.01-0.01c0.01-0.01,0.01-0.01,0.02-0.01c0.01-0.01,0.02-0.01,0.02-0.02
		c0,0,0.01-0.01,0.01-0.01c0.01-0.01,0.01-0.01,0.02-0.02c0,0,0.01-0.01,0.01-0.01c0.01,0,0.01-0.01,0.02-0.01
		c0,0,0.01-0.01,0.01-0.01c0.01,0,0.01-0.01,0.02-0.02c0,0,0.01-0.01,0.01-0.01c0.01,0,0.01-0.01,0.02-0.01c0,0,0.01-0.01,0.01-0.01
		c0.01-0.01,0.02-0.01,0.03-0.02c0,0,0.01-0.01,0.01-0.01c0.01,0,0.01-0.01,0.02-0.01c0,0,0.01-0.01,0.01-0.01
		c0.01,0,0.01-0.01,0.02-0.01c0,0,0.01-0.01,0.01-0.01c0.01,0,0.01-0.01,0.02-0.02c0,0,0.01,0,0.01-0.01
		c0.02-0.02,0.04-0.03,0.06-0.05c0,0,0,0,0.01-0.01c0.01-0.01,0.01-0.01,0.02-0.02c0,0,0,0,0.01-0.01c0.01-0.01,0.01-0.01,0.02-0.02
		c0,0,0.01-0.01,0.01-0.01c0.01-0.01,0.01-0.01,0.02-0.02c0,0,0,0,0.01-0.01c0.01-0.01,0.02-0.02,0.03-0.02c0,0,0,0,0,0
		c0.01-0.01,0.02-0.01,0.02-0.02c0,0,0,0,0.01-0.01c0.01-0.01,0.02-0.01,0.02-0.02c0,0,0,0,0.01-0.01c0.01-0.01,0.01-0.01,0.02-0.02
		c0,0,0,0,0.01-0.01c0.02-0.02,0.04-0.03,0.06-0.05l0,0c0.01-0.01,0.02-0.02,0.03-0.02c0,0,0,0,0.01,0
		c0.01-0.01,0.02-0.01,0.02-0.02c0,0,0,0,0.01-0.01c0.03-0.02,0.06-0.05,0.09-0.08l0,0c0.01-0.01,0.02-0.02,0.03-0.02l0,0
		c0.01-0.01,0.02-0.02,0.03-0.02l0,0c0.03-0.03,0.06-0.05,0.09-0.08c0,0,0,0,0,0c0.01-0.01,0.02-0.02,0.03-0.02l0,0
		c0.04-0.03,0.08-0.07,0.12-0.1l0,0c0.01-0.01,0.02-0.02,0.03-0.02c0,0,0,0,0,0c0.04-0.03,0.08-0.07,0.12-0.1l0,0
		c7.84-6.85,14.18-14.97,18.89-23.86l0,0c0.02-0.04,0.05-0.09,0.07-0.13c0,0,0,0,0,0c0-0.01,0.01-0.02,0.01-0.03c0,0,0,0,0-0.01
		c0.01-0.01,0.01-0.02,0.02-0.03l0,0c0.01-0.02,0.02-0.04,0.04-0.07c0,0,0,0,0,0c0-0.01,0.01-0.02,0.01-0.03c0,0,0,0,0-0.01
		c0-0.01,0.01-0.02,0.01-0.03c0,0,0-0.01,0-0.01c0.01-0.02,0.02-0.04,0.03-0.06l0,0c0.01-0.01,0.01-0.02,0.02-0.03c0,0,0,0,0-0.01
		c0-0.01,0.01-0.02,0.01-0.02c0,0,0-0.01,0-0.01c0-0.01,0.01-0.02,0.01-0.03l0,0c0.01-0.02,0.02-0.04,0.03-0.07c0,0,0,0,0-0.01
		c0-0.01,0.01-0.02,0.01-0.03c0,0,0,0,0-0.01c0-0.01,0.01-0.02,0.01-0.03c0,0,0,0,0-0.01c0.02-0.03,0.03-0.06,0.05-0.1
		c0,0,0-0.01,0.01-0.01c0-0.01,0.01-0.01,0.01-0.02c0,0,0-0.01,0.01-0.01c0-0.01,0.01-0.01,0.01-0.02c0,0,0-0.01,0.01-0.01
		c0-0.01,0.01-0.02,0.01-0.03c0,0,0,0,0,0c0.01-0.01,0.01-0.02,0.02-0.03c0,0,0-0.01,0.01-0.01c0-0.01,0.01-0.01,0.01-0.02
		c0,0,0-0.01,0.01-0.01c0-0.01,0.01-0.01,0.01-0.02c0,0,0-0.01,0.01-0.01c0-0.01,0.01-0.01,0.01-0.02c0,0,0-0.01,0.01-0.01
		c0-0.01,0.01-0.01,0.01-0.02c0-0.01,0.01-0.02,0.01-0.02c0-0.01,0.01-0.01,0.01-0.02c0-0.01,0-0.01,0.01-0.02
		c0-0.01,0.01-0.01,0.01-0.02c0,0,0.01-0.01,0.01-0.02c0-0.01,0.01-0.01,0.01-0.02c0-0.01,0-0.01,0.01-0.02
		c0-0.01,0.01-0.01,0.01-0.02c0,0,0.01-0.01,0.01-0.02c0-0.01,0.01-0.02,0.01-0.03c0-0.01,0.01-0.01,0.01-0.02
		c0-0.01,0-0.01,0.01-0.01c0-0.01,0.01-0.01,0.01-0.02c0,0,0-0.01,0.01-0.01c0,0,0.01-0.01,0.01-0.02c0,0,0-0.01,0.01-0.01
		c0.01-0.02,0.02-0.05,0.04-0.07c0,0,0-0.01,0-0.01c0-0.01,0.01-0.01,0.01-0.02c0,0,0-0.01,0.01-0.01c0,0,0.01-0.01,0.01-0.02
		c0,0,0-0.01,0.01-0.01c0-0.01,0.01-0.01,0.01-0.02c0,0,0-0.01,0-0.01c0.01-0.02,0.02-0.05,0.03-0.07c0,0,0-0.01,0.01-0.01
		c0-0.01,0.01-0.01,0.01-0.02c0,0,0-0.01,0.01-0.01c0-0.01,0.01-0.01,0.01-0.02c0,0,0-0.01,0.01-0.01c0-0.01,0.01-0.01,0.01-0.02
		c0,0,0-0.01,0.01-0.01c0.01-0.02,0.02-0.05,0.04-0.07c0,0,0,0,0-0.01c0-0.01,0.01-0.02,0.01-0.02c0,0,0-0.01,0-0.01
		c0-0.01,0.01-0.02,0.01-0.02c0,0,0,0,0-0.01c0.01-0.03,0.03-0.05,0.04-0.08v0c0-0.01,0.01-0.02,0.01-0.03c0,0,0,0,0,0
		c0-0.01,0.01-0.01,0.01-0.02c0,0,0,0,0-0.01c0.02-0.04,0.04-0.07,0.05-0.11c0,0,0,0,0,0c0-0.01,0.01-0.01,0.01-0.02c0,0,0,0,0-0.01
		c0-0.01,0.01-0.01,0.01-0.02c0,0,0,0,0-0.01c0.02-0.04,0.04-0.07,0.05-0.11l0,0c0.4-0.81,0.78-1.63,1.16-2.45L1029.2,572.43
		L1029.2,572.43z M1032.64,498.82l-6.92,4.02l0.09,0.16c6.11,10.58,9.51,22.09,10.1,34.2l7.99-0.39c-0.12-2.42-0.34-4.84-0.67-7.26
		l0,0c-0.02-0.13-0.03-0.25-0.05-0.38l0,0c0-0.01,0-0.02-0.01-0.04c0,0,0,0,0,0c-0.01-0.04-0.01-0.07-0.02-0.11l0,0
		c0-0.01,0-0.02,0-0.03c0,0,0,0,0-0.01c0-0.01,0-0.02,0-0.03c0,0,0-0.01,0-0.01c0-0.01,0-0.02,0-0.03l0,0
		c-0.01-0.04-0.01-0.07-0.02-0.11c0,0,0,0,0-0.01c0-0.01,0-0.02,0-0.03c0,0,0-0.01,0-0.01c0-0.01,0-0.02,0-0.03c0,0,0,0,0-0.01
		c-0.01-0.04-0.01-0.07-0.02-0.11l0,0c0-0.01,0-0.02,0-0.03l0-0.01c0-0.01,0-0.02,0-0.03c0,0,0,0,0-0.01c0-0.01,0-0.02,0-0.03
		c0,0,0,0,0-0.01c0-0.02-0.01-0.05-0.01-0.07c0,0,0-0.01,0-0.01c0-0.01,0-0.02,0-0.03c0-0.01,0-0.01,0-0.01c0-0.01,0-0.02,0-0.02
		c0,0,0-0.01,0-0.01c0-0.01,0-0.02,0-0.03c0-0.01,0,0,0-0.01c0-0.01,0-0.02,0-0.03l0,0c0-0.01,0-0.02-0.01-0.03c0-0.01,0,0,0-0.01
		c0-0.01,0-0.02,0-0.03c0,0,0-0.01,0-0.01c0-0.01,0-0.02,0-0.02c0-0.01,0-0.01,0-0.01c0-0.01,0-0.02,0-0.03c0,0,0-0.01,0-0.01
		c0-0.02-0.01-0.05-0.01-0.07c0-0.01,0-0.01,0-0.01c0-0.01,0-0.02,0-0.03c0,0,0-0.01,0-0.01c0-0.01,0-0.02,0-0.02
		c0-0.01,0-0.01,0-0.01c0-0.01,0-0.02,0-0.02c0,0,0-0.01,0-0.01c0-0.01,0-0.02,0-0.03c0,0,0-0.01,0-0.01c0-0.01,0-0.02-0.01-0.03
		c0,0,0-0.01,0-0.01c0-0.01,0-0.02,0-0.02c0,0,0-0.01,0-0.01c0-0.01,0-0.01,0-0.02c0-0.01,0-0.01,0-0.02c0-0.01,0-0.01,0-0.02
		c0-0.01,0-0.01,0-0.02c0-0.01,0-0.01,0-0.02c0-0.01,0-0.01,0-0.02c0-0.01,0-0.02,0-0.03c0-0.01,0-0.01,0-0.02c0-0.01,0-0.01,0-0.02
		c0-0.01,0-0.01,0-0.02c0-0.01,0-0.01,0-0.02c0-0.01,0-0.01,0-0.02c0-0.01,0-0.01,0-0.02c0-0.01,0-0.01,0-0.02c0-0.01,0-0.01,0-0.02
		c0-0.01,0-0.01,0-0.02c0-0.01,0-0.01,0-0.02c0-0.01,0-0.02-0.01-0.03c0,0,0-0.01,0-0.02c0-0.01,0-0.01,0-0.02c0,0,0-0.01,0-0.01
		c0-0.01,0-0.01,0-0.02c0,0,0-0.01,0-0.01c0-0.01,0-0.01,0-0.02c0,0,0-0.01,0-0.01c0-0.01,0-0.01,0-0.02c0,0,0-0.01,0-0.01
		c0-0.03-0.01-0.05-0.01-0.08c0,0,0,0,0-0.01c0-0.01,0-0.02,0-0.02c0,0,0-0.01,0-0.01c0-0.01,0-0.02,0-0.02c0,0,0-0.01,0-0.01
		c0-0.01,0-0.02,0-0.03c0,0,0,0,0,0c-0.01-0.03-0.01-0.06-0.02-0.09c0,0,0,0,0,0c0-0.01,0-0.02,0-0.03c0,0,0-0.01,0-0.01
		c0-0.01,0-0.01,0-0.02c0,0,0-0.01,0-0.01c0-0.01,0-0.02,0-0.02c0,0,0-0.01,0-0.01c-0.01-0.04-0.01-0.08-0.02-0.11
		c0,0,0-0.01,0-0.01c0-0.01,0-0.01,0-0.02c0,0,0-0.01,0-0.01c0-0.01,0-0.02,0-0.03c0,0,0,0,0-0.01c-0.01-0.04-0.01-0.08-0.02-0.12
		c0,0,0-0.01,0-0.01c0-0.01,0-0.02,0-0.02c0,0,0-0.01,0-0.01c0-0.01,0-0.02,0-0.02c0,0,0-0.01,0-0.01
		c-0.01-0.04-0.01-0.08-0.02-0.12c0,0,0,0,0,0c0-0.01,0-0.02-0.01-0.03c0,0,0,0,0,0c0-0.01,0-0.02-0.01-0.03c0,0,0,0,0,0
		c-0.01-0.05-0.02-0.1-0.03-0.15c0,0,0,0,0,0c0-0.01,0-0.02-0.01-0.03c0,0,0,0,0,0c-1.59-8.9-4.66-17.68-9.29-26c0,0,0,0,0,0
		c-0.02-0.04-0.04-0.08-0.06-0.12l0,0c-0.01-0.01-0.01-0.02-0.01-0.03c0,0,0,0,0,0c-0.01-0.01-0.01-0.02-0.01-0.03c0,0,0,0,0-0.01
		c-0.01-0.01-0.01-0.02-0.01-0.03c0,0,0,0,0,0c-0.02-0.03-0.03-0.06-0.05-0.09c0,0,0,0,0,0c-0.01-0.01-0.01-0.02-0.01-0.03
		c0,0,0,0,0,0c-0.01-0.01-0.01-0.01-0.01-0.02c0,0,0,0,0-0.01c0-0.01-0.01-0.02-0.01-0.02c0,0,0,0,0-0.01
		c-0.02-0.03-0.03-0.06-0.05-0.08l0,0c0-0.01-0.01-0.02-0.01-0.02c0,0,0-0.01,0-0.01c0-0.01-0.01-0.01-0.01-0.02
		c0,0,0-0.01-0.01-0.01c0-0.01-0.01-0.01-0.01-0.02c0,0,0-0.01-0.01-0.01c0-0.01-0.01-0.02-0.01-0.02c0,0,0,0,0-0.01
		c-0.01-0.02-0.03-0.05-0.04-0.08c0,0,0-0.01-0.01-0.01c0-0.01-0.01-0.01-0.01-0.02c0-0.01-0.01-0.01-0.01-0.01
		c0,0-0.01-0.01-0.01-0.02c0,0,0-0.01-0.01-0.01c0-0.01-0.01-0.01-0.01-0.02c0,0-0.01-0.01-0.01-0.01
		c-0.01-0.02-0.02-0.04-0.04-0.07c0,0,0-0.01-0.01-0.01c0-0.01-0.01-0.01-0.01-0.02c0,0,0-0.01-0.01-0.01c0,0-0.01-0.01-0.01-0.02
		c0,0-0.01-0.01-0.01-0.01c0,0-0.01-0.01-0.01-0.02c0-0.01-0.01-0.01-0.01-0.02c0,0-0.01-0.01-0.01-0.02c0-0.01-0.01-0.01-0.01-0.02
		c0-0.01-0.01-0.02-0.02-0.03c0-0.01-0.01-0.01-0.01-0.01c0,0-0.01-0.01-0.01-0.02c0-0.01-0.01-0.01-0.01-0.02
		c0,0-0.01-0.01-0.01-0.01c0-0.01-0.01-0.01-0.01-0.02c0,0-0.01-0.01-0.01-0.01c0-0.01-0.01-0.01-0.01-0.02c0,0,0-0.01-0.01-0.01
		c-0.01-0.01-0.01-0.02-0.02-0.03l0,0l0,0c-0.01-0.01-0.02-0.03-0.02-0.04c0,0,0-0.01,0-0.01
		C1032.69,498.91,1032.67,498.87,1032.64,498.82L1032.64,498.82z M967.76,457.35l-0.75,7.97c12.03,1.13,23.76,5.15,33.93,11.63
		l4.3-6.74c-1.96-1.25-3.97-2.42-6.02-3.5c0,0,0,0,0,0c-0.01-0.01-0.02-0.01-0.04-0.02l0,0c-0.01-0.01-0.02-0.01-0.04-0.02l0,0
		c-0.1-0.05-0.2-0.1-0.3-0.16l0,0c-0.01-0.01-0.02-0.01-0.04-0.02l0,0c-0.01-0.01-0.02-0.01-0.04-0.02c0,0,0,0,0,0
		c-0.03-0.01-0.05-0.02-0.07-0.04l0,0c-0.1-0.05-0.2-0.1-0.3-0.15c0,0,0,0,0,0c-0.01-0.01-0.02-0.01-0.03-0.02c0,0,0,0,0,0
		c-0.01,0-0.02-0.01-0.03-0.02c0,0,0,0-0.01,0c-0.01-0.01-0.02-0.01-0.03-0.02c0,0,0,0,0,0c-0.01-0.01-0.02-0.01-0.03-0.02
		c0,0,0,0-0.01,0c-0.01-0.01-0.02-0.01-0.03-0.02c0,0,0,0,0,0c-0.08-0.04-0.15-0.08-0.23-0.11c0,0,0,0-0.01,0
		c-0.01,0-0.02-0.01-0.03-0.02c0,0-0.01,0-0.01,0c-0.01,0-0.02-0.01-0.03-0.01c0,0-0.01,0-0.01,0c-0.01,0-0.02-0.01-0.03-0.01
		c0,0-0.01,0-0.01,0c-0.01,0-0.02-0.01-0.03-0.01c0,0-0.01,0-0.01-0.01c-0.01,0-0.02-0.01-0.02-0.01c0,0-0.01,0-0.01-0.01
		c-0.01,0-0.02-0.01-0.03-0.01c0,0,0,0-0.01,0c-0.01-0.01-0.02-0.01-0.03-0.02c0,0,0,0-0.01,0c-0.01-0.01-0.02-0.01-0.04-0.02l0,0
		c-0.04-0.02-0.08-0.04-0.11-0.06c0,0,0,0,0,0c-0.01-0.01-0.02-0.01-0.03-0.02c0,0-0.01,0-0.01,0c-0.01,0-0.02-0.01-0.03-0.01
		c0,0-0.01,0-0.01-0.01c-0.01,0-0.02-0.01-0.03-0.01c0,0-0.01,0-0.01-0.01c-0.01,0-0.02-0.01-0.03-0.01c0,0-0.01,0-0.01-0.01
		c-0.01,0-0.02-0.01-0.03-0.01c0,0-0.01,0-0.01-0.01c-0.01,0-0.02-0.01-0.03-0.01c0,0-0.01,0-0.01-0.01c-0.01,0-0.02-0.01-0.03-0.01
		c0,0-0.01,0-0.01-0.01c-0.01,0-0.02-0.01-0.03-0.01c0,0-0.01,0-0.01,0c-0.01-0.01-0.02-0.01-0.03-0.02c0,0,0,0,0,0
		c-0.03-0.01-0.05-0.02-0.08-0.04c0,0,0,0,0,0c-0.01-0.01-0.02-0.01-0.03-0.02c0,0-0.01,0-0.01-0.01c-0.01,0-0.02-0.01-0.03-0.01
		c0,0-0.01,0-0.01-0.01c-0.01,0-0.02-0.01-0.03-0.01c0,0-0.01,0-0.01-0.01c-0.01,0-0.01-0.01-0.02-0.01c-0.01,0-0.01,0-0.02-0.01
		c-0.01,0-0.01-0.01-0.02-0.01c-0.01,0-0.01-0.01-0.02-0.01c-0.01,0-0.01-0.01-0.02-0.01c-0.01,0-0.01-0.01-0.02-0.01
		c-0.01,0-0.01-0.01-0.02-0.01c-0.01,0-0.01-0.01-0.02-0.01c-0.01,0-0.01-0.01-0.02-0.01c-0.01,0-0.01-0.01-0.02-0.01
		c-0.01,0-0.01-0.01-0.02-0.01c-0.01,0-0.01,0-0.01-0.01c-0.01,0-0.02-0.01-0.03-0.01c0,0-0.01,0-0.01-0.01
		c-0.01,0-0.02-0.01-0.03-0.01c-0.01,0-0.01-0.01-0.02-0.01c-0.01,0-0.02-0.01-0.03-0.01c-0.01,0-0.01-0.01-0.02-0.01
		c-0.01,0-0.01-0.01-0.02-0.01c-0.01,0-0.01-0.01-0.02-0.01c-0.01,0-0.01-0.01-0.02-0.01c-0.01,0-0.01-0.01-0.02-0.01
		c0,0-0.01-0.01-0.02-0.01c-0.01,0-0.01-0.01-0.02-0.01c0,0-0.01-0.01-0.02-0.01c-0.01,0-0.01-0.01-0.02-0.01
		c-0.01,0-0.01-0.01-0.02-0.01c-0.01,0-0.01-0.01-0.02-0.01c-0.01,0-0.01-0.01-0.02-0.01c-0.01,0-0.01-0.01-0.02-0.01
		c0,0-0.01-0.01-0.02-0.01c-0.01,0-0.01-0.01-0.02-0.01c0,0-0.01,0-0.01-0.01c-0.01,0-0.01-0.01-0.02-0.01c0,0-0.01,0-0.01-0.01
		c-0.01,0-0.02-0.01-0.02-0.01c0,0-0.01,0-0.01-0.01c-0.01,0-0.02-0.01-0.02-0.01l0,0c-0.03-0.01-0.06-0.03-0.09-0.04
		c0,0-0.01,0-0.01-0.01c-0.01,0-0.02-0.01-0.02-0.01c0,0-0.01,0-0.01-0.01c-0.01,0-0.01-0.01-0.02-0.01c0,0-0.01,0-0.01-0.01
		c-0.01,0-0.02-0.01-0.02-0.01c0,0-0.01,0-0.01-0.01c-0.01,0-0.02-0.01-0.02-0.01c0,0-0.01,0-0.01-0.01c-0.01,0-0.02-0.01-0.02-0.01
		c0,0-0.01,0-0.01-0.01c-0.01,0-0.02-0.01-0.02-0.01c0,0-0.01,0-0.01-0.01c-0.01,0-0.02-0.01-0.03-0.01c0,0-0.01,0-0.01-0.01
		c-0.01,0-0.02-0.01-0.02-0.01c0,0-0.01,0-0.01-0.01c-0.01,0-0.02-0.01-0.02-0.01c0,0,0,0-0.01,0c-0.03-0.02-0.07-0.03-0.1-0.05l0,0
		c-0.01,0-0.02-0.01-0.03-0.01c0,0,0,0-0.01,0c-0.01,0-0.02-0.01-0.03-0.01c0,0-0.01,0-0.01,0c-0.01,0-0.02-0.01-0.03-0.01
		c0,0,0,0-0.01,0c-0.01,0-0.02-0.01-0.03-0.01c0,0-0.01,0-0.01,0c-0.01,0-0.02-0.01-0.03-0.01c0,0-0.01,0-0.01,0
		c-0.01,0-0.02-0.01-0.03-0.01c0,0-0.01,0-0.01-0.01c-0.01,0-0.02-0.01-0.03-0.01c0,0-0.01,0-0.01,0c-0.01,0-0.02-0.01-0.03-0.01
		c0,0,0,0-0.01,0c-0.01,0-0.02-0.01-0.03-0.01l0,0c-0.07-0.03-0.14-0.06-0.21-0.1l0,0c-0.01,0-0.02-0.01-0.03-0.01c0,0,0,0-0.01,0
		c-0.01,0-0.02-0.01-0.03-0.01c0,0,0,0-0.01,0c-0.01,0-0.02-0.01-0.03-0.01c0,0,0,0-0.01,0c-0.01,0-0.02-0.01-0.03-0.01c0,0,0,0,0,0
		c-0.01,0-0.02-0.01-0.03-0.01c0,0,0,0,0,0c-0.12-0.05-0.23-0.11-0.35-0.16l0,0c-0.01-0.01-0.02-0.01-0.03-0.02l0,0
		c-0.01-0.01-0.02-0.01-0.03-0.02c0,0,0,0,0,0c-0.14-0.06-0.28-0.13-0.43-0.19l0,0C985.83,460.55,976.89,458.21,967.76,457.35
		L967.76,457.35z"/>
</g>
<g>
	<circle class="st0" cx="961" cy="541" r="74.5"/>
	<path d="M961,467c40.8,0,74,33.2,74,74s-33.2,74-74,74s-74-33.2-74-74S920.2,467,961,467 M961,466c-41.42,0-75,33.58-75,75
		s33.58,75,75,75s75-33.58,75-75S1002.42,466,961,466L961,466z"/>
</g>
</svg>
